<svg width="17" height="17" viewBox="0 0 17 17" fill="none" xmlns="http://www.w3.org/2000/svg">
<path d="M3.44271 11.071C2.44271 11.911 2.10938 14.4044 2.10938 14.4044C2.10938 14.4044 4.60271 14.071 5.44271 13.071C5.91604 12.511 5.90938 11.651 5.38271 11.131C5.12358 10.8837 4.78224 10.7408 4.42419 10.7297C4.06615 10.7186 3.71663 10.8402 3.44271 11.071Z" stroke="#67E8F9" stroke-width="1.33333" stroke-linecap="round" stroke-linejoin="round"/>
<path d="M8.44531 10.071L6.44531 8.07102C6.80008 7.15064 7.24678 6.2684 7.77865 5.43769C8.55543 4.19568 9.63706 3.17305 10.9206 2.46708C12.2042 1.76111 13.6471 1.39527 15.112 1.40436C15.112 3.21769 14.592 6.40436 11.112 8.73769C10.2699 9.27017 9.37654 9.71685 8.44531 10.071Z" stroke="#67E8F9" stroke-width="1.33333" stroke-linecap="round" stroke-linejoin="round"/>
<path d="M6.44271 8.07102H3.10938C3.10938 8.07102 3.47604 6.05102 4.44271 5.40436C5.52271 4.68436 7.77604 5.40436 7.77604 5.40436" stroke="#67E8F9" stroke-width="1.33333" stroke-linecap="round" stroke-linejoin="round"/>
<path d="M8.44531 10.071V13.4044C8.44531 13.4044 10.4653 13.0377 11.112 12.071C11.832 10.991 11.112 8.73769 11.112 8.73769" stroke="#67E8F9" stroke-width="1.33333" stroke-linecap="round" stroke-linejoin="round"/>
</svg>
