<svg width="1025" height="641" viewBox="0 0 1025 641" fill="none" xmlns="http://www.w3.org/2000/svg">
<g opacity="0.4">
<g filter="url(#filter0_f_632_15242)">
<path d="M192.595 167.134C196.13 167.134 198.995 164.269 198.995 160.734C198.995 157.2 196.13 154.334 192.595 154.334C189.061 154.334 186.195 157.2 186.195 160.734C186.195 164.269 189.061 167.134 192.595 167.134Z" fill="url(#paint0_linear_632_15242)"/>
</g>
<g filter="url(#filter1_f_632_15242)">
<path d="M192.595 247.134C196.13 247.134 198.995 244.269 198.995 240.734C198.995 237.2 196.13 234.334 192.595 234.334C189.061 234.334 186.195 237.2 186.195 240.734C186.195 244.269 189.061 247.134 192.595 247.134Z" fill="url(#paint1_linear_632_15242)"/>
</g>
<g filter="url(#filter2_f_632_15242)">
<path d="M192.595 327.134C196.13 327.134 198.995 324.269 198.995 320.734C198.995 317.2 196.13 314.334 192.595 314.334C189.061 314.334 186.195 317.2 186.195 320.734C186.195 324.269 189.061 327.134 192.595 327.134Z" fill="url(#paint2_linear_632_15242)"/>
</g>
<g filter="url(#filter3_f_632_15242)">
<path d="M192.595 407.134C196.13 407.134 198.995 404.269 198.995 400.734C198.995 397.2 196.13 394.334 192.595 394.334C189.061 394.334 186.195 397.2 186.195 400.734C186.195 404.269 189.061 407.134 192.595 407.134Z" fill="url(#paint3_linear_632_15242)"/>
</g>
<g filter="url(#filter4_f_632_15242)">
<path d="M352.595 127.134C356.13 127.134 358.995 124.269 358.995 120.734C358.995 117.2 356.13 114.334 352.595 114.334C349.061 114.334 346.195 117.2 346.195 120.734C346.195 124.269 349.061 127.134 352.595 127.134Z" fill="url(#paint4_linear_632_15242)"/>
</g>
<g filter="url(#filter5_f_632_15242)">
<path d="M352.595 207.134C356.13 207.134 358.995 204.269 358.995 200.734C358.995 197.2 356.13 194.334 352.595 194.334C349.061 194.334 346.195 197.2 346.195 200.734C346.195 204.269 349.061 207.134 352.595 207.134Z" fill="url(#paint5_linear_632_15242)"/>
</g>
<g filter="url(#filter6_f_632_15242)">
<path d="M352.595 287.134C356.13 287.134 358.995 284.269 358.995 280.734C358.995 277.2 356.13 274.334 352.595 274.334C349.061 274.334 346.195 277.2 346.195 280.734C346.195 284.269 349.061 287.134 352.595 287.134Z" fill="url(#paint6_linear_632_15242)"/>
</g>
<g filter="url(#filter7_f_632_15242)">
<path d="M352.595 367.134C356.13 367.134 358.995 364.269 358.995 360.734C358.995 357.2 356.13 354.334 352.595 354.334C349.061 354.334 346.195 357.2 346.195 360.734C346.195 364.269 349.061 367.134 352.595 367.134Z" fill="url(#paint7_linear_632_15242)"/>
</g>
<g filter="url(#filter8_f_632_15242)">
<path d="M352.595 447.134C356.13 447.134 358.995 444.269 358.995 440.734C358.995 437.2 356.13 434.334 352.595 434.334C349.061 434.334 346.195 437.2 346.195 440.734C346.195 444.269 349.061 447.134 352.595 447.134Z" fill="url(#paint8_linear_632_15242)"/>
</g>
<g filter="url(#filter9_f_632_15242)">
<path d="M512.595 167.134C516.13 167.134 518.995 164.269 518.995 160.734C518.995 157.2 516.13 154.334 512.595 154.334C509.061 154.334 506.195 157.2 506.195 160.734C506.195 164.269 509.061 167.134 512.595 167.134Z" fill="url(#paint9_linear_632_15242)"/>
</g>
<g filter="url(#filter10_f_632_15242)">
<path d="M512.595 247.134C516.13 247.134 518.995 244.269 518.995 240.734C518.995 237.2 516.13 234.334 512.595 234.334C509.061 234.334 506.195 237.2 506.195 240.734C506.195 244.269 509.061 247.134 512.595 247.134Z" fill="url(#paint10_linear_632_15242)"/>
</g>
<g filter="url(#filter11_f_632_15242)">
<path d="M512.595 327.134C516.13 327.134 518.995 324.269 518.995 320.734C518.995 317.2 516.13 314.334 512.595 314.334C509.061 314.334 506.195 317.2 506.195 320.734C506.195 324.269 509.061 327.134 512.595 327.134Z" fill="url(#paint11_linear_632_15242)"/>
</g>
<g filter="url(#filter12_f_632_15242)">
<path d="M512.595 407.134C516.13 407.134 518.995 404.269 518.995 400.734C518.995 397.2 516.13 394.334 512.595 394.334C509.061 394.334 506.195 397.2 506.195 400.734C506.195 404.269 509.061 407.134 512.595 407.134Z" fill="url(#paint12_linear_632_15242)"/>
</g>
<g filter="url(#filter13_f_632_15242)">
<path d="M672.592 250.334C677.894 250.334 682.192 246.036 682.192 240.734C682.192 235.432 677.894 231.134 672.592 231.134C667.29 231.134 662.992 235.432 662.992 240.734C662.992 246.036 667.29 250.334 672.592 250.334Z" fill="url(#paint13_linear_632_15242)"/>
</g>
<g filter="url(#filter14_f_632_15242)">
<path d="M672.592 330.334C677.894 330.334 682.192 326.036 682.192 320.734C682.192 315.432 677.894 311.134 672.592 311.134C667.29 311.134 662.992 315.432 662.992 320.734C662.992 326.036 667.29 330.334 672.592 330.334Z" fill="url(#paint14_linear_632_15242)"/>
</g>
<g opacity="0.6">
<path d="M192.594 160.734C245.927 147.401 299.26 134.068 352.594 120.734" stroke="url(#paint15_linear_632_15242)" stroke-width="1.6"/>
<path d="M192.594 240.734C245.927 227.401 299.26 214.068 352.594 200.734" stroke="url(#paint16_linear_632_15242)" stroke-width="1.6"/>
<path d="M192.594 320.734C245.927 307.401 299.26 294.068 352.594 280.734" stroke="url(#paint17_linear_632_15242)" stroke-width="1.6"/>
<path d="M192.594 400.734C245.927 387.401 299.26 374.068 352.594 360.734" stroke="url(#paint18_linear_632_15242)" stroke-width="1.6"/>
<path d="M352.594 120.734C405.927 134.068 459.26 147.401 512.594 160.734" stroke="url(#paint19_linear_632_15242)" stroke-width="1.6"/>
<path d="M352.594 200.734C405.927 214.068 459.26 227.401 512.594 240.734" stroke="url(#paint20_linear_632_15242)" stroke-width="1.6"/>
<path d="M352.594 280.734C405.927 294.068 459.26 307.401 512.594 320.734" stroke="url(#paint21_linear_632_15242)" stroke-width="1.6"/>
<path d="M352.594 360.734C405.927 374.068 459.26 387.401 512.594 400.734" stroke="url(#paint22_linear_632_15242)" stroke-width="1.6"/>
<path d="M512.594 160.734C565.927 174.068 619.26 200.734 672.594 240.734" stroke="url(#paint23_linear_632_15242)" stroke-width="1.6"/>
<path d="M512.594 240.734C565.927 254.068 619.26 280.734 672.594 320.734" stroke="url(#paint24_linear_632_15242)" stroke-width="1.6"/>
<path d="M512.594 320.734C565.927 307.401 619.26 280.734 672.594 240.734" stroke="url(#paint25_linear_632_15242)" stroke-width="1.6"/>
<path d="M512.594 400.734C565.927 387.401 619.26 360.734 672.594 320.734" stroke="url(#paint26_linear_632_15242)" stroke-width="1.6"/>
</g>
<path opacity="0.8" d="M512.595 283.134C513.921 283.134 514.995 282.06 514.995 280.734C514.995 279.409 513.921 278.334 512.595 278.334C511.27 278.334 510.195 279.409 510.195 280.734C510.195 282.06 511.27 283.134 512.595 283.134Z" fill="#06B6D4"/>
<path opacity="0.8" d="M501.877 323.134C503.202 323.134 504.277 322.06 504.277 320.734C504.277 319.409 503.202 318.334 501.877 318.334C500.551 318.334 499.477 319.409 499.477 320.734C499.477 322.06 500.551 323.134 501.877 323.134Z" fill="#06B6D4"/>
<path opacity="0.8" d="M472.595 352.416C473.921 352.416 474.995 351.342 474.995 350.016C474.995 348.691 473.921 347.616 472.595 347.616C471.27 347.616 470.195 348.691 470.195 350.016C470.195 351.342 471.27 352.416 472.595 352.416Z" fill="#06B6D4"/>
<path opacity="0.8" d="M432.595 363.134C433.921 363.134 434.995 362.06 434.995 360.734C434.995 359.409 433.921 358.334 432.595 358.334C431.27 358.334 430.195 359.409 430.195 360.734C430.195 362.06 431.27 363.134 432.595 363.134Z" fill="#06B6D4"/>
<path opacity="0.8" d="M392.595 352.416C393.921 352.416 394.995 351.342 394.995 350.016C394.995 348.691 393.921 347.616 392.595 347.616C391.27 347.616 390.195 348.691 390.195 350.016C390.195 351.342 391.27 352.416 392.595 352.416Z" fill="#06B6D4"/>
<path opacity="0.8" d="M363.314 323.134C364.64 323.134 365.714 322.06 365.714 320.734C365.714 319.409 364.64 318.334 363.314 318.334C361.989 318.334 360.914 319.409 360.914 320.734C360.914 322.06 361.989 323.134 363.314 323.134Z" fill="#06B6D4"/>
<path opacity="0.8" d="M352.595 283.134C353.921 283.134 354.995 282.06 354.995 280.734C354.995 279.409 353.921 278.334 352.595 278.334C351.27 278.334 350.195 279.409 350.195 280.734C350.195 282.06 351.27 283.134 352.595 283.134Z" fill="#06B6D4"/>
<path opacity="0.8" d="M363.314 243.134C364.64 243.134 365.714 242.06 365.714 240.734C365.714 239.409 364.64 238.334 363.314 238.334C361.989 238.334 360.914 239.409 360.914 240.734C360.914 242.06 361.989 243.134 363.314 243.134Z" fill="#06B6D4"/>
<path opacity="0.8" d="M392.595 213.852C393.921 213.852 394.995 212.778 394.995 211.452C394.995 210.127 393.921 209.052 392.595 209.052C391.27 209.052 390.195 210.127 390.195 211.452C390.195 212.778 391.27 213.852 392.595 213.852Z" fill="#06B6D4"/>
<path opacity="0.8" d="M432.595 203.134C433.921 203.134 434.995 202.06 434.995 200.734C434.995 199.409 433.921 198.334 432.595 198.334C431.27 198.334 430.195 199.409 430.195 200.734C430.195 202.06 431.27 203.134 432.595 203.134Z" fill="#06B6D4"/>
<path opacity="0.8" d="M472.595 213.852C473.921 213.852 474.995 212.778 474.995 211.452C474.995 210.127 473.921 209.052 472.595 209.052C471.27 209.052 470.195 210.127 470.195 211.452C470.195 212.778 471.27 213.852 472.595 213.852Z" fill="#06B6D4"/>
<path opacity="0.8" d="M501.877 243.134C503.202 243.134 504.277 242.06 504.277 240.734C504.277 239.409 503.202 238.334 501.877 238.334C500.551 238.334 499.477 239.409 499.477 240.734C499.477 242.06 500.551 243.134 501.877 243.134Z" fill="#06B6D4"/>
</g>
<defs>
<filter id="filter0_f_632_15242" x="179.795" y="147.934" width="25.5969" height="25.6" filterUnits="userSpaceOnUse" color-interpolation-filters="sRGB">
<feFlood flood-opacity="0" result="BackgroundImageFix"/>
<feBlend mode="normal" in="SourceGraphic" in2="BackgroundImageFix" result="shape"/>
<feGaussianBlur stdDeviation="3.2" result="effect1_foregroundBlur_632_15242"/>
</filter>
<filter id="filter1_f_632_15242" x="179.795" y="227.934" width="25.5969" height="25.6" filterUnits="userSpaceOnUse" color-interpolation-filters="sRGB">
<feFlood flood-opacity="0" result="BackgroundImageFix"/>
<feBlend mode="normal" in="SourceGraphic" in2="BackgroundImageFix" result="shape"/>
<feGaussianBlur stdDeviation="3.2" result="effect1_foregroundBlur_632_15242"/>
</filter>
<filter id="filter2_f_632_15242" x="179.795" y="307.934" width="25.5969" height="25.6" filterUnits="userSpaceOnUse" color-interpolation-filters="sRGB">
<feFlood flood-opacity="0" result="BackgroundImageFix"/>
<feBlend mode="normal" in="SourceGraphic" in2="BackgroundImageFix" result="shape"/>
<feGaussianBlur stdDeviation="3.2" result="effect1_foregroundBlur_632_15242"/>
</filter>
<filter id="filter3_f_632_15242" x="179.795" y="387.934" width="25.5969" height="25.6" filterUnits="userSpaceOnUse" color-interpolation-filters="sRGB">
<feFlood flood-opacity="0" result="BackgroundImageFix"/>
<feBlend mode="normal" in="SourceGraphic" in2="BackgroundImageFix" result="shape"/>
<feGaussianBlur stdDeviation="3.2" result="effect1_foregroundBlur_632_15242"/>
</filter>
<filter id="filter4_f_632_15242" x="339.795" y="107.934" width="25.5969" height="25.6" filterUnits="userSpaceOnUse" color-interpolation-filters="sRGB">
<feFlood flood-opacity="0" result="BackgroundImageFix"/>
<feBlend mode="normal" in="SourceGraphic" in2="BackgroundImageFix" result="shape"/>
<feGaussianBlur stdDeviation="3.2" result="effect1_foregroundBlur_632_15242"/>
</filter>
<filter id="filter5_f_632_15242" x="339.795" y="187.934" width="25.5969" height="25.6" filterUnits="userSpaceOnUse" color-interpolation-filters="sRGB">
<feFlood flood-opacity="0" result="BackgroundImageFix"/>
<feBlend mode="normal" in="SourceGraphic" in2="BackgroundImageFix" result="shape"/>
<feGaussianBlur stdDeviation="3.2" result="effect1_foregroundBlur_632_15242"/>
</filter>
<filter id="filter6_f_632_15242" x="339.795" y="267.934" width="25.5969" height="25.6" filterUnits="userSpaceOnUse" color-interpolation-filters="sRGB">
<feFlood flood-opacity="0" result="BackgroundImageFix"/>
<feBlend mode="normal" in="SourceGraphic" in2="BackgroundImageFix" result="shape"/>
<feGaussianBlur stdDeviation="3.2" result="effect1_foregroundBlur_632_15242"/>
</filter>
<filter id="filter7_f_632_15242" x="339.795" y="347.934" width="25.5969" height="25.6" filterUnits="userSpaceOnUse" color-interpolation-filters="sRGB">
<feFlood flood-opacity="0" result="BackgroundImageFix"/>
<feBlend mode="normal" in="SourceGraphic" in2="BackgroundImageFix" result="shape"/>
<feGaussianBlur stdDeviation="3.2" result="effect1_foregroundBlur_632_15242"/>
</filter>
<filter id="filter8_f_632_15242" x="339.795" y="427.934" width="25.5969" height="25.6" filterUnits="userSpaceOnUse" color-interpolation-filters="sRGB">
<feFlood flood-opacity="0" result="BackgroundImageFix"/>
<feBlend mode="normal" in="SourceGraphic" in2="BackgroundImageFix" result="shape"/>
<feGaussianBlur stdDeviation="3.2" result="effect1_foregroundBlur_632_15242"/>
</filter>
<filter id="filter9_f_632_15242" x="499.795" y="147.934" width="25.5969" height="25.6" filterUnits="userSpaceOnUse" color-interpolation-filters="sRGB">
<feFlood flood-opacity="0" result="BackgroundImageFix"/>
<feBlend mode="normal" in="SourceGraphic" in2="BackgroundImageFix" result="shape"/>
<feGaussianBlur stdDeviation="3.2" result="effect1_foregroundBlur_632_15242"/>
</filter>
<filter id="filter10_f_632_15242" x="499.795" y="227.934" width="25.5969" height="25.6" filterUnits="userSpaceOnUse" color-interpolation-filters="sRGB">
<feFlood flood-opacity="0" result="BackgroundImageFix"/>
<feBlend mode="normal" in="SourceGraphic" in2="BackgroundImageFix" result="shape"/>
<feGaussianBlur stdDeviation="3.2" result="effect1_foregroundBlur_632_15242"/>
</filter>
<filter id="filter11_f_632_15242" x="499.795" y="307.934" width="25.5969" height="25.6" filterUnits="userSpaceOnUse" color-interpolation-filters="sRGB">
<feFlood flood-opacity="0" result="BackgroundImageFix"/>
<feBlend mode="normal" in="SourceGraphic" in2="BackgroundImageFix" result="shape"/>
<feGaussianBlur stdDeviation="3.2" result="effect1_foregroundBlur_632_15242"/>
</filter>
<filter id="filter12_f_632_15242" x="499.795" y="387.934" width="25.5969" height="25.6" filterUnits="userSpaceOnUse" color-interpolation-filters="sRGB">
<feFlood flood-opacity="0" result="BackgroundImageFix"/>
<feBlend mode="normal" in="SourceGraphic" in2="BackgroundImageFix" result="shape"/>
<feGaussianBlur stdDeviation="3.2" result="effect1_foregroundBlur_632_15242"/>
</filter>
<filter id="filter13_f_632_15242" x="656.592" y="224.734" width="32.0031" height="32" filterUnits="userSpaceOnUse" color-interpolation-filters="sRGB">
<feFlood flood-opacity="0" result="BackgroundImageFix"/>
<feBlend mode="normal" in="SourceGraphic" in2="BackgroundImageFix" result="shape"/>
<feGaussianBlur stdDeviation="3.2" result="effect1_foregroundBlur_632_15242"/>
</filter>
<filter id="filter14_f_632_15242" x="656.592" y="304.734" width="32.0031" height="32" filterUnits="userSpaceOnUse" color-interpolation-filters="sRGB">
<feFlood flood-opacity="0" result="BackgroundImageFix"/>
<feBlend mode="normal" in="SourceGraphic" in2="BackgroundImageFix" result="shape"/>
<feGaussianBlur stdDeviation="3.2" result="effect1_foregroundBlur_632_15242"/>
</filter>
<linearGradient id="paint0_linear_632_15242" x1="186.195" y1="154.334" x2="1466.2" y2="1434.33" gradientUnits="userSpaceOnUse">
<stop stop-color="#6366F1" stop-opacity="0.6"/>
<stop offset="0.33" stop-color="#06B6D4" stop-opacity="0.6"/>
<stop offset="0.66" stop-color="#22C55E" stop-opacity="0.6"/>
<stop offset="1" stop-color="#A855F7" stop-opacity="0.6"/>
</linearGradient>
<linearGradient id="paint1_linear_632_15242" x1="186.195" y1="234.334" x2="1466.2" y2="1514.33" gradientUnits="userSpaceOnUse">
<stop stop-color="#6366F1" stop-opacity="0.6"/>
<stop offset="0.33" stop-color="#06B6D4" stop-opacity="0.6"/>
<stop offset="0.66" stop-color="#22C55E" stop-opacity="0.6"/>
<stop offset="1" stop-color="#A855F7" stop-opacity="0.6"/>
</linearGradient>
<linearGradient id="paint2_linear_632_15242" x1="186.195" y1="314.334" x2="1466.2" y2="1594.33" gradientUnits="userSpaceOnUse">
<stop stop-color="#6366F1" stop-opacity="0.6"/>
<stop offset="0.33" stop-color="#06B6D4" stop-opacity="0.6"/>
<stop offset="0.66" stop-color="#22C55E" stop-opacity="0.6"/>
<stop offset="1" stop-color="#A855F7" stop-opacity="0.6"/>
</linearGradient>
<linearGradient id="paint3_linear_632_15242" x1="186.195" y1="394.334" x2="1466.2" y2="1674.33" gradientUnits="userSpaceOnUse">
<stop stop-color="#6366F1" stop-opacity="0.6"/>
<stop offset="0.33" stop-color="#06B6D4" stop-opacity="0.6"/>
<stop offset="0.66" stop-color="#22C55E" stop-opacity="0.6"/>
<stop offset="1" stop-color="#A855F7" stop-opacity="0.6"/>
</linearGradient>
<linearGradient id="paint4_linear_632_15242" x1="346.195" y1="114.334" x2="1626.2" y2="1394.33" gradientUnits="userSpaceOnUse">
<stop stop-color="#6366F1" stop-opacity="0.6"/>
<stop offset="0.33" stop-color="#06B6D4" stop-opacity="0.6"/>
<stop offset="0.66" stop-color="#22C55E" stop-opacity="0.6"/>
<stop offset="1" stop-color="#A855F7" stop-opacity="0.6"/>
</linearGradient>
<linearGradient id="paint5_linear_632_15242" x1="346.195" y1="194.334" x2="1626.2" y2="1474.33" gradientUnits="userSpaceOnUse">
<stop stop-color="#6366F1" stop-opacity="0.6"/>
<stop offset="0.33" stop-color="#06B6D4" stop-opacity="0.6"/>
<stop offset="0.66" stop-color="#22C55E" stop-opacity="0.6"/>
<stop offset="1" stop-color="#A855F7" stop-opacity="0.6"/>
</linearGradient>
<linearGradient id="paint6_linear_632_15242" x1="346.195" y1="274.334" x2="1626.2" y2="1554.33" gradientUnits="userSpaceOnUse">
<stop stop-color="#6366F1" stop-opacity="0.6"/>
<stop offset="0.33" stop-color="#06B6D4" stop-opacity="0.6"/>
<stop offset="0.66" stop-color="#22C55E" stop-opacity="0.6"/>
<stop offset="1" stop-color="#A855F7" stop-opacity="0.6"/>
</linearGradient>
<linearGradient id="paint7_linear_632_15242" x1="346.195" y1="354.334" x2="1626.2" y2="1634.33" gradientUnits="userSpaceOnUse">
<stop stop-color="#6366F1" stop-opacity="0.6"/>
<stop offset="0.33" stop-color="#06B6D4" stop-opacity="0.6"/>
<stop offset="0.66" stop-color="#22C55E" stop-opacity="0.6"/>
<stop offset="1" stop-color="#A855F7" stop-opacity="0.6"/>
</linearGradient>
<linearGradient id="paint8_linear_632_15242" x1="346.195" y1="434.334" x2="1626.2" y2="1714.33" gradientUnits="userSpaceOnUse">
<stop stop-color="#6366F1" stop-opacity="0.6"/>
<stop offset="0.33" stop-color="#06B6D4" stop-opacity="0.6"/>
<stop offset="0.66" stop-color="#22C55E" stop-opacity="0.6"/>
<stop offset="1" stop-color="#A855F7" stop-opacity="0.6"/>
</linearGradient>
<linearGradient id="paint9_linear_632_15242" x1="506.195" y1="154.334" x2="1786.2" y2="1434.33" gradientUnits="userSpaceOnUse">
<stop stop-color="#6366F1" stop-opacity="0.6"/>
<stop offset="0.33" stop-color="#06B6D4" stop-opacity="0.6"/>
<stop offset="0.66" stop-color="#22C55E" stop-opacity="0.6"/>
<stop offset="1" stop-color="#A855F7" stop-opacity="0.6"/>
</linearGradient>
<linearGradient id="paint10_linear_632_15242" x1="506.195" y1="234.334" x2="1786.2" y2="1514.33" gradientUnits="userSpaceOnUse">
<stop stop-color="#6366F1" stop-opacity="0.6"/>
<stop offset="0.33" stop-color="#06B6D4" stop-opacity="0.6"/>
<stop offset="0.66" stop-color="#22C55E" stop-opacity="0.6"/>
<stop offset="1" stop-color="#A855F7" stop-opacity="0.6"/>
</linearGradient>
<linearGradient id="paint11_linear_632_15242" x1="506.195" y1="314.334" x2="1786.2" y2="1594.33" gradientUnits="userSpaceOnUse">
<stop stop-color="#6366F1" stop-opacity="0.6"/>
<stop offset="0.33" stop-color="#06B6D4" stop-opacity="0.6"/>
<stop offset="0.66" stop-color="#22C55E" stop-opacity="0.6"/>
<stop offset="1" stop-color="#A855F7" stop-opacity="0.6"/>
</linearGradient>
<linearGradient id="paint12_linear_632_15242" x1="506.195" y1="394.334" x2="1786.2" y2="1674.33" gradientUnits="userSpaceOnUse">
<stop stop-color="#6366F1" stop-opacity="0.6"/>
<stop offset="0.33" stop-color="#06B6D4" stop-opacity="0.6"/>
<stop offset="0.66" stop-color="#22C55E" stop-opacity="0.6"/>
<stop offset="1" stop-color="#A855F7" stop-opacity="0.6"/>
</linearGradient>
<linearGradient id="paint13_linear_632_15242" x1="662.992" y1="231.134" x2="2582.99" y2="2151.13" gradientUnits="userSpaceOnUse">
<stop stop-color="#6366F1" stop-opacity="0.6"/>
<stop offset="0.33" stop-color="#06B6D4" stop-opacity="0.6"/>
<stop offset="0.66" stop-color="#22C55E" stop-opacity="0.6"/>
<stop offset="1" stop-color="#A855F7" stop-opacity="0.6"/>
</linearGradient>
<linearGradient id="paint14_linear_632_15242" x1="662.992" y1="311.134" x2="2582.99" y2="2231.13" gradientUnits="userSpaceOnUse">
<stop stop-color="#6366F1" stop-opacity="0.6"/>
<stop offset="0.33" stop-color="#06B6D4" stop-opacity="0.6"/>
<stop offset="0.66" stop-color="#22C55E" stop-opacity="0.6"/>
<stop offset="1" stop-color="#A855F7" stop-opacity="0.6"/>
</linearGradient>
<linearGradient id="paint15_linear_632_15242" x1="192.594" y1="120.734" x2="2074.95" y2="7650.15" gradientUnits="userSpaceOnUse">
<stop stop-color="#6366F1" stop-opacity="0.6"/>
<stop offset="0.33" stop-color="#06B6D4" stop-opacity="0.6"/>
<stop offset="0.66" stop-color="#22C55E" stop-opacity="0.6"/>
<stop offset="1" stop-color="#A855F7" stop-opacity="0.6"/>
</linearGradient>
<linearGradient id="paint16_linear_632_15242" x1="192.594" y1="200.734" x2="2074.95" y2="7730.15" gradientUnits="userSpaceOnUse">
<stop stop-color="#6366F1" stop-opacity="0.6"/>
<stop offset="0.33" stop-color="#06B6D4" stop-opacity="0.6"/>
<stop offset="0.66" stop-color="#22C55E" stop-opacity="0.6"/>
<stop offset="1" stop-color="#A855F7" stop-opacity="0.6"/>
</linearGradient>
<linearGradient id="paint17_linear_632_15242" x1="192.594" y1="280.734" x2="2074.95" y2="7810.15" gradientUnits="userSpaceOnUse">
<stop stop-color="#6366F1" stop-opacity="0.6"/>
<stop offset="0.33" stop-color="#06B6D4" stop-opacity="0.6"/>
<stop offset="0.66" stop-color="#22C55E" stop-opacity="0.6"/>
<stop offset="1" stop-color="#A855F7" stop-opacity="0.6"/>
</linearGradient>
<linearGradient id="paint18_linear_632_15242" x1="192.594" y1="360.734" x2="2074.95" y2="7890.15" gradientUnits="userSpaceOnUse">
<stop stop-color="#6366F1" stop-opacity="0.6"/>
<stop offset="0.33" stop-color="#06B6D4" stop-opacity="0.6"/>
<stop offset="0.66" stop-color="#22C55E" stop-opacity="0.6"/>
<stop offset="1" stop-color="#A855F7" stop-opacity="0.6"/>
</linearGradient>
<linearGradient id="paint19_linear_632_15242" x1="352.594" y1="120.734" x2="2234.95" y2="7650.15" gradientUnits="userSpaceOnUse">
<stop stop-color="#6366F1" stop-opacity="0.6"/>
<stop offset="0.33" stop-color="#06B6D4" stop-opacity="0.6"/>
<stop offset="0.66" stop-color="#22C55E" stop-opacity="0.6"/>
<stop offset="1" stop-color="#A855F7" stop-opacity="0.6"/>
</linearGradient>
<linearGradient id="paint20_linear_632_15242" x1="352.594" y1="200.734" x2="2234.95" y2="7730.15" gradientUnits="userSpaceOnUse">
<stop stop-color="#6366F1" stop-opacity="0.6"/>
<stop offset="0.33" stop-color="#06B6D4" stop-opacity="0.6"/>
<stop offset="0.66" stop-color="#22C55E" stop-opacity="0.6"/>
<stop offset="1" stop-color="#A855F7" stop-opacity="0.6"/>
</linearGradient>
<linearGradient id="paint21_linear_632_15242" x1="352.594" y1="280.734" x2="2234.95" y2="7810.15" gradientUnits="userSpaceOnUse">
<stop stop-color="#6366F1" stop-opacity="0.6"/>
<stop offset="0.33" stop-color="#06B6D4" stop-opacity="0.6"/>
<stop offset="0.66" stop-color="#22C55E" stop-opacity="0.6"/>
<stop offset="1" stop-color="#A855F7" stop-opacity="0.6"/>
</linearGradient>
<linearGradient id="paint22_linear_632_15242" x1="352.594" y1="360.734" x2="2234.95" y2="7890.15" gradientUnits="userSpaceOnUse">
<stop stop-color="#6366F1" stop-opacity="0.6"/>
<stop offset="0.33" stop-color="#06B6D4" stop-opacity="0.6"/>
<stop offset="0.66" stop-color="#22C55E" stop-opacity="0.6"/>
<stop offset="1" stop-color="#A855F7" stop-opacity="0.6"/>
</linearGradient>
<linearGradient id="paint23_linear_632_15242" x1="512.594" y1="160.734" x2="6912.59" y2="12960.7" gradientUnits="userSpaceOnUse">
<stop stop-color="#6366F1" stop-opacity="0.6"/>
<stop offset="0.33" stop-color="#06B6D4" stop-opacity="0.6"/>
<stop offset="0.66" stop-color="#22C55E" stop-opacity="0.6"/>
<stop offset="1" stop-color="#A855F7" stop-opacity="0.6"/>
</linearGradient>
<linearGradient id="paint24_linear_632_15242" x1="512.594" y1="240.734" x2="6912.59" y2="13040.7" gradientUnits="userSpaceOnUse">
<stop stop-color="#6366F1" stop-opacity="0.6"/>
<stop offset="0.33" stop-color="#06B6D4" stop-opacity="0.6"/>
<stop offset="0.66" stop-color="#22C55E" stop-opacity="0.6"/>
<stop offset="1" stop-color="#A855F7" stop-opacity="0.6"/>
</linearGradient>
<linearGradient id="paint25_linear_632_15242" x1="512.594" y1="240.734" x2="6912.59" y2="13040.7" gradientUnits="userSpaceOnUse">
<stop stop-color="#6366F1" stop-opacity="0.6"/>
<stop offset="0.33" stop-color="#06B6D4" stop-opacity="0.6"/>
<stop offset="0.66" stop-color="#22C55E" stop-opacity="0.6"/>
<stop offset="1" stop-color="#A855F7" stop-opacity="0.6"/>
</linearGradient>
<linearGradient id="paint26_linear_632_15242" x1="512.594" y1="320.734" x2="6912.59" y2="13120.7" gradientUnits="userSpaceOnUse">
<stop stop-color="#6366F1" stop-opacity="0.6"/>
<stop offset="0.33" stop-color="#06B6D4" stop-opacity="0.6"/>
<stop offset="0.66" stop-color="#22C55E" stop-opacity="0.6"/>
<stop offset="1" stop-color="#A855F7" stop-opacity="0.6"/>
</linearGradient>
</defs>
</svg>
