<svg width="392" height="907" viewBox="0 0 392 907" fill="none" xmlns="http://www.w3.org/2000/svg">
<g opacity="0.4">
<g filter="url(#filter0_f_632_15896)">
<path d="M65.7629 391C67.2025 391 68.3696 389.836 68.3696 388.4C68.3696 386.964 67.2025 385.8 65.7629 385.8C64.3233 385.8 63.1562 386.964 63.1562 388.4C63.1562 389.836 64.3233 391 65.7629 391Z" fill="url(#paint0_linear_632_15896)"/>
</g>
<g filter="url(#filter1_f_632_15896)">
<path d="M65.7629 423.5C67.2025 423.5 68.3696 422.336 68.3696 420.9C68.3696 419.464 67.2025 418.3 65.7629 418.3C64.3233 418.3 63.1562 419.464 63.1562 420.9C63.1562 422.336 64.3233 423.5 65.7629 423.5Z" fill="url(#paint1_linear_632_15896)"/>
</g>
<g filter="url(#filter2_f_632_15896)">
<path d="M65.7629 455.999C67.2025 455.999 68.3696 454.835 68.3696 453.399C68.3696 451.963 67.2025 450.799 65.7629 450.799C64.3233 450.799 63.1562 451.963 63.1562 453.399C63.1562 454.835 64.3233 455.999 65.7629 455.999Z" fill="url(#paint2_linear_632_15896)"/>
</g>
<g filter="url(#filter3_f_632_15896)">
<path d="M65.7629 488.499C67.2025 488.499 68.3696 487.335 68.3696 485.899C68.3696 484.463 67.2025 483.299 65.7629 483.299C64.3233 483.299 63.1562 484.463 63.1562 485.899C63.1562 487.335 64.3233 488.499 65.7629 488.499Z" fill="url(#paint3_linear_632_15896)"/>
</g>
<g filter="url(#filter4_f_632_15896)">
<path d="M130.927 374.75C132.367 374.75 133.534 373.586 133.534 372.15C133.534 370.714 132.367 369.55 130.927 369.55C129.487 369.55 128.32 370.714 128.32 372.15C128.32 373.586 129.487 374.75 130.927 374.75Z" fill="url(#paint4_linear_632_15896)"/>
</g>
<g filter="url(#filter5_f_632_15896)">
<path d="M130.927 407.25C132.367 407.25 133.534 406.086 133.534 404.65C133.534 403.214 132.367 402.05 130.927 402.05C129.487 402.05 128.32 403.214 128.32 404.65C128.32 406.086 129.487 407.25 130.927 407.25Z" fill="url(#paint5_linear_632_15896)"/>
</g>
<g filter="url(#filter6_f_632_15896)">
<path d="M130.927 439.75C132.367 439.75 133.534 438.586 133.534 437.15C133.534 435.714 132.367 434.55 130.927 434.55C129.487 434.55 128.32 435.714 128.32 437.15C128.32 438.586 129.487 439.75 130.927 439.75Z" fill="url(#paint6_linear_632_15896)"/>
</g>
<g filter="url(#filter7_f_632_15896)">
<path d="M130.927 472.249C132.367 472.249 133.534 471.085 133.534 469.649C133.534 468.213 132.367 467.049 130.927 467.049C129.487 467.049 128.32 468.213 128.32 469.649C128.32 471.085 129.487 472.249 130.927 472.249Z" fill="url(#paint7_linear_632_15896)"/>
</g>
<g filter="url(#filter8_f_632_15896)">
<path d="M130.927 504.749C132.367 504.749 133.534 503.585 133.534 502.149C133.534 500.713 132.367 499.549 130.927 499.549C129.487 499.549 128.32 500.713 128.32 502.149C128.32 503.585 129.487 504.749 130.927 504.749Z" fill="url(#paint8_linear_632_15896)"/>
</g>
<g filter="url(#filter9_f_632_15896)">
<path d="M196.099 391C197.538 391 198.706 389.836 198.706 388.4C198.706 386.964 197.538 385.8 196.099 385.8C194.659 385.8 193.492 386.964 193.492 388.4C193.492 389.836 194.659 391 196.099 391Z" fill="url(#paint9_linear_632_15896)"/>
</g>
<g filter="url(#filter10_f_632_15896)">
<path d="M196.099 423.5C197.538 423.5 198.706 422.336 198.706 420.9C198.706 419.464 197.538 418.3 196.099 418.3C194.659 418.3 193.492 419.464 193.492 420.9C193.492 422.336 194.659 423.5 196.099 423.5Z" fill="url(#paint10_linear_632_15896)"/>
</g>
<g filter="url(#filter11_f_632_15896)">
<path d="M196.099 455.999C197.538 455.999 198.706 454.835 198.706 453.399C198.706 451.963 197.538 450.799 196.099 450.799C194.659 450.799 193.492 451.963 193.492 453.399C193.492 454.835 194.659 455.999 196.099 455.999Z" fill="url(#paint11_linear_632_15896)"/>
</g>
<g filter="url(#filter12_f_632_15896)">
<path d="M196.099 488.499C197.538 488.499 198.706 487.335 198.706 485.899C198.706 484.463 197.538 483.299 196.099 483.299C194.659 483.299 193.492 484.463 193.492 485.899C193.492 487.335 194.659 488.499 196.099 488.499Z" fill="url(#paint12_linear_632_15896)"/>
</g>
<g filter="url(#filter13_f_632_15896)">
<path d="M261.262 424.8C263.421 424.8 265.172 423.054 265.172 420.9C265.172 418.746 263.421 417 261.262 417C259.102 417 257.352 418.746 257.352 420.9C257.352 423.054 259.102 424.8 261.262 424.8Z" fill="url(#paint13_linear_632_15896)"/>
</g>
<g filter="url(#filter14_f_632_15896)">
<path d="M261.262 457.299C263.421 457.299 265.172 455.553 265.172 453.399C265.172 451.245 263.421 449.499 261.262 449.499C259.102 449.499 257.352 451.245 257.352 453.399C257.352 455.553 259.102 457.299 261.262 457.299Z" fill="url(#paint14_linear_632_15896)"/>
</g>
<g opacity="0.6">
<path d="M65.7578 388.4C87.48 382.983 109.202 377.566 130.924 372.15" stroke="url(#paint15_linear_632_15896)" stroke-width="0.65"/>
<path d="M65.7578 420.9C87.48 415.483 109.202 410.066 130.924 404.65" stroke="url(#paint16_linear_632_15896)" stroke-width="0.65"/>
<path d="M65.7578 453.4C87.48 447.983 109.202 442.566 130.924 437.15" stroke="url(#paint17_linear_632_15896)" stroke-width="0.65"/>
<path d="M65.7578 485.899C87.48 480.483 109.202 475.066 130.924 469.649" stroke="url(#paint18_linear_632_15896)" stroke-width="0.65"/>
<path d="M130.922 372.15C152.644 377.566 174.366 382.983 196.089 388.4" stroke="url(#paint19_linear_632_15896)" stroke-width="0.65"/>
<path d="M130.922 404.65C152.644 410.066 174.366 415.483 196.089 420.9" stroke="url(#paint20_linear_632_15896)" stroke-width="0.65"/>
<path d="M130.922 437.15C152.644 442.566 174.366 447.983 196.089 453.4" stroke="url(#paint21_linear_632_15896)" stroke-width="0.65"/>
<path d="M130.922 469.649C152.644 475.066 174.366 480.483 196.089 485.899" stroke="url(#paint22_linear_632_15896)" stroke-width="0.65"/>
<path d="M196.094 388.4C217.816 393.816 239.538 404.65 261.26 420.9" stroke="url(#paint23_linear_632_15896)" stroke-width="0.65"/>
<path d="M196.094 420.9C217.816 426.316 239.538 437.15 261.26 453.4" stroke="url(#paint24_linear_632_15896)" stroke-width="0.65"/>
<path d="M196.094 453.4C217.816 447.983 239.538 437.15 261.26 420.9" stroke="url(#paint25_linear_632_15896)" stroke-width="0.65"/>
<path d="M196.094 485.899C217.816 480.483 239.538 469.649 261.26 453.399" stroke="url(#paint26_linear_632_15896)" stroke-width="0.65"/>
</g>
<path opacity="0.8" d="M196.095 438.125C196.635 438.125 197.072 437.688 197.072 437.15C197.072 436.611 196.635 436.175 196.095 436.175C195.555 436.175 195.117 436.611 195.117 437.15C195.117 437.688 195.555 438.125 196.095 438.125Z" fill="#06B6D4"/>
<path opacity="0.8" d="M191.735 454.375C192.275 454.375 192.713 453.938 192.713 453.4C192.713 452.861 192.275 452.425 191.735 452.425C191.195 452.425 190.758 452.861 190.758 453.4C190.758 453.938 191.195 454.375 191.735 454.375Z" fill="#06B6D4"/>
<path opacity="0.8" d="M179.806 466.27C180.345 466.27 180.783 465.834 180.783 465.295C180.783 464.757 180.345 464.32 179.806 464.32C179.266 464.32 178.828 464.757 178.828 465.295C178.828 465.834 179.266 466.27 179.806 466.27Z" fill="#06B6D4"/>
<path opacity="0.8" d="M163.517 470.625C164.056 470.625 164.494 470.188 164.494 469.65C164.494 469.111 164.056 468.675 163.517 468.675C162.977 468.675 162.539 469.111 162.539 469.65C162.539 470.188 162.977 470.625 163.517 470.625Z" fill="#06B6D4"/>
<path opacity="0.8" d="M147.22 466.27C147.76 466.27 148.197 465.834 148.197 465.295C148.197 464.757 147.76 464.32 147.22 464.32C146.68 464.32 146.242 464.757 146.242 465.295C146.242 465.834 146.68 466.27 147.22 466.27Z" fill="#06B6D4"/>
<path opacity="0.8" d="M135.298 454.375C135.838 454.375 136.275 453.938 136.275 453.4C136.275 452.861 135.838 452.425 135.298 452.425C134.758 452.425 134.32 452.861 134.32 453.4C134.32 453.938 134.758 454.375 135.298 454.375Z" fill="#06B6D4"/>
<path opacity="0.8" d="M130.931 438.125C131.47 438.125 131.908 437.688 131.908 437.15C131.908 436.611 131.47 436.175 130.931 436.175C130.391 436.175 129.953 436.611 129.953 437.15C129.953 437.688 130.391 438.125 130.931 438.125Z" fill="#06B6D4"/>
<path opacity="0.8" d="M135.298 421.875C135.838 421.875 136.275 421.438 136.275 420.9C136.275 420.361 135.838 419.925 135.298 419.925C134.758 419.925 134.32 420.361 134.32 420.9C134.32 421.438 134.758 421.875 135.298 421.875Z" fill="#06B6D4"/>
<path opacity="0.8" d="M147.22 409.979C147.76 409.979 148.197 409.542 148.197 409.004C148.197 408.465 147.76 408.029 147.22 408.029C146.68 408.029 146.242 408.465 146.242 409.004C146.242 409.542 146.68 409.979 147.22 409.979Z" fill="#06B6D4"/>
<path opacity="0.8" d="M163.517 405.625C164.056 405.625 164.494 405.188 164.494 404.65C164.494 404.111 164.056 403.675 163.517 403.675C162.977 403.675 162.539 404.111 162.539 404.65C162.539 405.188 162.977 405.625 163.517 405.625Z" fill="#06B6D4"/>
<path opacity="0.8" d="M179.806 409.979C180.345 409.979 180.783 409.542 180.783 409.004C180.783 408.465 180.345 408.029 179.806 408.029C179.266 408.029 178.828 408.465 178.828 409.004C178.828 409.542 179.266 409.979 179.806 409.979Z" fill="#06B6D4"/>
<path opacity="0.8" d="M191.735 421.875C192.275 421.875 192.713 421.438 192.713 420.9C192.713 420.361 192.275 419.925 191.735 419.925C191.195 419.925 190.758 420.361 190.758 420.9C190.758 421.438 191.195 421.875 191.735 421.875Z" fill="#06B6D4"/>
</g>
<defs>
<filter id="filter0_f_632_15896" x="60.5563" y="383.2" width="10.4109" height="10.4" filterUnits="userSpaceOnUse" color-interpolation-filters="sRGB">
<feFlood flood-opacity="0" result="BackgroundImageFix"/>
<feBlend mode="normal" in="SourceGraphic" in2="BackgroundImageFix" result="shape"/>
<feGaussianBlur stdDeviation="1.3" result="effect1_foregroundBlur_632_15896"/>
</filter>
<filter id="filter1_f_632_15896" x="60.5563" y="415.7" width="10.4109" height="10.4" filterUnits="userSpaceOnUse" color-interpolation-filters="sRGB">
<feFlood flood-opacity="0" result="BackgroundImageFix"/>
<feBlend mode="normal" in="SourceGraphic" in2="BackgroundImageFix" result="shape"/>
<feGaussianBlur stdDeviation="1.3" result="effect1_foregroundBlur_632_15896"/>
</filter>
<filter id="filter2_f_632_15896" x="60.5563" y="448.199" width="10.4109" height="10.4" filterUnits="userSpaceOnUse" color-interpolation-filters="sRGB">
<feFlood flood-opacity="0" result="BackgroundImageFix"/>
<feBlend mode="normal" in="SourceGraphic" in2="BackgroundImageFix" result="shape"/>
<feGaussianBlur stdDeviation="1.3" result="effect1_foregroundBlur_632_15896"/>
</filter>
<filter id="filter3_f_632_15896" x="60.5563" y="480.699" width="10.4109" height="10.4" filterUnits="userSpaceOnUse" color-interpolation-filters="sRGB">
<feFlood flood-opacity="0" result="BackgroundImageFix"/>
<feBlend mode="normal" in="SourceGraphic" in2="BackgroundImageFix" result="shape"/>
<feGaussianBlur stdDeviation="1.3" result="effect1_foregroundBlur_632_15896"/>
</filter>
<filter id="filter4_f_632_15896" x="125.72" y="366.95" width="10.4109" height="10.4" filterUnits="userSpaceOnUse" color-interpolation-filters="sRGB">
<feFlood flood-opacity="0" result="BackgroundImageFix"/>
<feBlend mode="normal" in="SourceGraphic" in2="BackgroundImageFix" result="shape"/>
<feGaussianBlur stdDeviation="1.3" result="effect1_foregroundBlur_632_15896"/>
</filter>
<filter id="filter5_f_632_15896" x="125.72" y="399.45" width="10.4109" height="10.4" filterUnits="userSpaceOnUse" color-interpolation-filters="sRGB">
<feFlood flood-opacity="0" result="BackgroundImageFix"/>
<feBlend mode="normal" in="SourceGraphic" in2="BackgroundImageFix" result="shape"/>
<feGaussianBlur stdDeviation="1.3" result="effect1_foregroundBlur_632_15896"/>
</filter>
<filter id="filter6_f_632_15896" x="125.72" y="431.95" width="10.4109" height="10.4" filterUnits="userSpaceOnUse" color-interpolation-filters="sRGB">
<feFlood flood-opacity="0" result="BackgroundImageFix"/>
<feBlend mode="normal" in="SourceGraphic" in2="BackgroundImageFix" result="shape"/>
<feGaussianBlur stdDeviation="1.3" result="effect1_foregroundBlur_632_15896"/>
</filter>
<filter id="filter7_f_632_15896" x="125.72" y="464.449" width="10.4109" height="10.4" filterUnits="userSpaceOnUse" color-interpolation-filters="sRGB">
<feFlood flood-opacity="0" result="BackgroundImageFix"/>
<feBlend mode="normal" in="SourceGraphic" in2="BackgroundImageFix" result="shape"/>
<feGaussianBlur stdDeviation="1.3" result="effect1_foregroundBlur_632_15896"/>
</filter>
<filter id="filter8_f_632_15896" x="125.72" y="496.949" width="10.4109" height="10.4" filterUnits="userSpaceOnUse" color-interpolation-filters="sRGB">
<feFlood flood-opacity="0" result="BackgroundImageFix"/>
<feBlend mode="normal" in="SourceGraphic" in2="BackgroundImageFix" result="shape"/>
<feGaussianBlur stdDeviation="1.3" result="effect1_foregroundBlur_632_15896"/>
</filter>
<filter id="filter9_f_632_15896" x="190.892" y="383.2" width="10.4109" height="10.4" filterUnits="userSpaceOnUse" color-interpolation-filters="sRGB">
<feFlood flood-opacity="0" result="BackgroundImageFix"/>
<feBlend mode="normal" in="SourceGraphic" in2="BackgroundImageFix" result="shape"/>
<feGaussianBlur stdDeviation="1.3" result="effect1_foregroundBlur_632_15896"/>
</filter>
<filter id="filter10_f_632_15896" x="190.892" y="415.7" width="10.4109" height="10.4" filterUnits="userSpaceOnUse" color-interpolation-filters="sRGB">
<feFlood flood-opacity="0" result="BackgroundImageFix"/>
<feBlend mode="normal" in="SourceGraphic" in2="BackgroundImageFix" result="shape"/>
<feGaussianBlur stdDeviation="1.3" result="effect1_foregroundBlur_632_15896"/>
</filter>
<filter id="filter11_f_632_15896" x="190.892" y="448.199" width="10.4109" height="10.4" filterUnits="userSpaceOnUse" color-interpolation-filters="sRGB">
<feFlood flood-opacity="0" result="BackgroundImageFix"/>
<feBlend mode="normal" in="SourceGraphic" in2="BackgroundImageFix" result="shape"/>
<feGaussianBlur stdDeviation="1.3" result="effect1_foregroundBlur_632_15896"/>
</filter>
<filter id="filter12_f_632_15896" x="190.892" y="480.699" width="10.4109" height="10.4" filterUnits="userSpaceOnUse" color-interpolation-filters="sRGB">
<feFlood flood-opacity="0" result="BackgroundImageFix"/>
<feBlend mode="normal" in="SourceGraphic" in2="BackgroundImageFix" result="shape"/>
<feGaussianBlur stdDeviation="1.3" result="effect1_foregroundBlur_632_15896"/>
</filter>
<filter id="filter13_f_632_15896" x="254.752" y="414.4" width="13.0203" height="13" filterUnits="userSpaceOnUse" color-interpolation-filters="sRGB">
<feFlood flood-opacity="0" result="BackgroundImageFix"/>
<feBlend mode="normal" in="SourceGraphic" in2="BackgroundImageFix" result="shape"/>
<feGaussianBlur stdDeviation="1.3" result="effect1_foregroundBlur_632_15896"/>
</filter>
<filter id="filter14_f_632_15896" x="254.752" y="446.899" width="13.0203" height="13" filterUnits="userSpaceOnUse" color-interpolation-filters="sRGB">
<feFlood flood-opacity="0" result="BackgroundImageFix"/>
<feBlend mode="normal" in="SourceGraphic" in2="BackgroundImageFix" result="shape"/>
<feGaussianBlur stdDeviation="1.3" result="effect1_foregroundBlur_632_15896"/>
</filter>
<linearGradient id="paint0_linear_632_15896" x1="63.1562" y1="385.8" x2="583.156" y2="907.131" gradientUnits="userSpaceOnUse">
<stop stop-color="#6366F1" stop-opacity="0.6"/>
<stop offset="0.33" stop-color="#06B6D4" stop-opacity="0.6"/>
<stop offset="0.66" stop-color="#22C55E" stop-opacity="0.6"/>
<stop offset="1" stop-color="#A855F7" stop-opacity="0.6"/>
</linearGradient>
<linearGradient id="paint1_linear_632_15896" x1="63.1562" y1="418.3" x2="583.156" y2="939.631" gradientUnits="userSpaceOnUse">
<stop stop-color="#6366F1" stop-opacity="0.6"/>
<stop offset="0.33" stop-color="#06B6D4" stop-opacity="0.6"/>
<stop offset="0.66" stop-color="#22C55E" stop-opacity="0.6"/>
<stop offset="1" stop-color="#A855F7" stop-opacity="0.6"/>
</linearGradient>
<linearGradient id="paint2_linear_632_15896" x1="63.1562" y1="450.799" x2="583.156" y2="972.131" gradientUnits="userSpaceOnUse">
<stop stop-color="#6366F1" stop-opacity="0.6"/>
<stop offset="0.33" stop-color="#06B6D4" stop-opacity="0.6"/>
<stop offset="0.66" stop-color="#22C55E" stop-opacity="0.6"/>
<stop offset="1" stop-color="#A855F7" stop-opacity="0.6"/>
</linearGradient>
<linearGradient id="paint3_linear_632_15896" x1="63.1562" y1="483.299" x2="583.153" y2="1004.63" gradientUnits="userSpaceOnUse">
<stop stop-color="#6366F1" stop-opacity="0.6"/>
<stop offset="0.33" stop-color="#06B6D4" stop-opacity="0.6"/>
<stop offset="0.66" stop-color="#22C55E" stop-opacity="0.6"/>
<stop offset="1" stop-color="#A855F7" stop-opacity="0.6"/>
</linearGradient>
<linearGradient id="paint4_linear_632_15896" x1="128.32" y1="369.55" x2="648.32" y2="890.882" gradientUnits="userSpaceOnUse">
<stop stop-color="#6366F1" stop-opacity="0.6"/>
<stop offset="0.33" stop-color="#06B6D4" stop-opacity="0.6"/>
<stop offset="0.66" stop-color="#22C55E" stop-opacity="0.6"/>
<stop offset="1" stop-color="#A855F7" stop-opacity="0.6"/>
</linearGradient>
<linearGradient id="paint5_linear_632_15896" x1="128.32" y1="402.05" x2="648.32" y2="923.382" gradientUnits="userSpaceOnUse">
<stop stop-color="#6366F1" stop-opacity="0.6"/>
<stop offset="0.33" stop-color="#06B6D4" stop-opacity="0.6"/>
<stop offset="0.66" stop-color="#22C55E" stop-opacity="0.6"/>
<stop offset="1" stop-color="#A855F7" stop-opacity="0.6"/>
</linearGradient>
<linearGradient id="paint6_linear_632_15896" x1="128.32" y1="434.55" x2="648.32" y2="955.882" gradientUnits="userSpaceOnUse">
<stop stop-color="#6366F1" stop-opacity="0.6"/>
<stop offset="0.33" stop-color="#06B6D4" stop-opacity="0.6"/>
<stop offset="0.66" stop-color="#22C55E" stop-opacity="0.6"/>
<stop offset="1" stop-color="#A855F7" stop-opacity="0.6"/>
</linearGradient>
<linearGradient id="paint7_linear_632_15896" x1="128.32" y1="467.049" x2="648.32" y2="988.382" gradientUnits="userSpaceOnUse">
<stop stop-color="#6366F1" stop-opacity="0.6"/>
<stop offset="0.33" stop-color="#06B6D4" stop-opacity="0.6"/>
<stop offset="0.66" stop-color="#22C55E" stop-opacity="0.6"/>
<stop offset="1" stop-color="#A855F7" stop-opacity="0.6"/>
</linearGradient>
<linearGradient id="paint8_linear_632_15896" x1="128.32" y1="499.549" x2="648.32" y2="1020.88" gradientUnits="userSpaceOnUse">
<stop stop-color="#6366F1" stop-opacity="0.6"/>
<stop offset="0.33" stop-color="#06B6D4" stop-opacity="0.6"/>
<stop offset="0.66" stop-color="#22C55E" stop-opacity="0.6"/>
<stop offset="1" stop-color="#A855F7" stop-opacity="0.6"/>
</linearGradient>
<linearGradient id="paint9_linear_632_15896" x1="193.492" y1="385.8" x2="713.492" y2="907.131" gradientUnits="userSpaceOnUse">
<stop stop-color="#6366F1" stop-opacity="0.6"/>
<stop offset="0.33" stop-color="#06B6D4" stop-opacity="0.6"/>
<stop offset="0.66" stop-color="#22C55E" stop-opacity="0.6"/>
<stop offset="1" stop-color="#A855F7" stop-opacity="0.6"/>
</linearGradient>
<linearGradient id="paint10_linear_632_15896" x1="193.492" y1="418.3" x2="713.492" y2="939.631" gradientUnits="userSpaceOnUse">
<stop stop-color="#6366F1" stop-opacity="0.6"/>
<stop offset="0.33" stop-color="#06B6D4" stop-opacity="0.6"/>
<stop offset="0.66" stop-color="#22C55E" stop-opacity="0.6"/>
<stop offset="1" stop-color="#A855F7" stop-opacity="0.6"/>
</linearGradient>
<linearGradient id="paint11_linear_632_15896" x1="193.492" y1="450.799" x2="713.492" y2="972.131" gradientUnits="userSpaceOnUse">
<stop stop-color="#6366F1" stop-opacity="0.6"/>
<stop offset="0.33" stop-color="#06B6D4" stop-opacity="0.6"/>
<stop offset="0.66" stop-color="#22C55E" stop-opacity="0.6"/>
<stop offset="1" stop-color="#A855F7" stop-opacity="0.6"/>
</linearGradient>
<linearGradient id="paint12_linear_632_15896" x1="193.492" y1="483.299" x2="713.489" y2="1004.63" gradientUnits="userSpaceOnUse">
<stop stop-color="#6366F1" stop-opacity="0.6"/>
<stop offset="0.33" stop-color="#06B6D4" stop-opacity="0.6"/>
<stop offset="0.66" stop-color="#22C55E" stop-opacity="0.6"/>
<stop offset="1" stop-color="#A855F7" stop-opacity="0.6"/>
</linearGradient>
<linearGradient id="paint13_linear_632_15896" x1="257.352" y1="417" x2="1037.35" y2="1199" gradientUnits="userSpaceOnUse">
<stop stop-color="#6366F1" stop-opacity="0.6"/>
<stop offset="0.33" stop-color="#06B6D4" stop-opacity="0.6"/>
<stop offset="0.66" stop-color="#22C55E" stop-opacity="0.6"/>
<stop offset="1" stop-color="#A855F7" stop-opacity="0.6"/>
</linearGradient>
<linearGradient id="paint14_linear_632_15896" x1="257.352" y1="449.499" x2="1037.35" y2="1231.5" gradientUnits="userSpaceOnUse">
<stop stop-color="#6366F1" stop-opacity="0.6"/>
<stop offset="0.33" stop-color="#06B6D4" stop-opacity="0.6"/>
<stop offset="0.66" stop-color="#22C55E" stop-opacity="0.6"/>
<stop offset="1" stop-color="#A855F7" stop-opacity="0.6"/>
</linearGradient>
<linearGradient id="paint15_linear_632_15896" x1="65.7578" y1="372.15" x2="828.737" y2="3431.89" gradientUnits="userSpaceOnUse">
<stop stop-color="#6366F1" stop-opacity="0.6"/>
<stop offset="0.33" stop-color="#06B6D4" stop-opacity="0.6"/>
<stop offset="0.66" stop-color="#22C55E" stop-opacity="0.6"/>
<stop offset="1" stop-color="#A855F7" stop-opacity="0.6"/>
</linearGradient>
<linearGradient id="paint16_linear_632_15896" x1="65.7578" y1="404.65" x2="828.737" y2="3464.39" gradientUnits="userSpaceOnUse">
<stop stop-color="#6366F1" stop-opacity="0.6"/>
<stop offset="0.33" stop-color="#06B6D4" stop-opacity="0.6"/>
<stop offset="0.66" stop-color="#22C55E" stop-opacity="0.6"/>
<stop offset="1" stop-color="#A855F7" stop-opacity="0.6"/>
</linearGradient>
<linearGradient id="paint17_linear_632_15896" x1="65.7578" y1="437.15" x2="828.737" y2="3496.89" gradientUnits="userSpaceOnUse">
<stop stop-color="#6366F1" stop-opacity="0.6"/>
<stop offset="0.33" stop-color="#06B6D4" stop-opacity="0.6"/>
<stop offset="0.66" stop-color="#22C55E" stop-opacity="0.6"/>
<stop offset="1" stop-color="#A855F7" stop-opacity="0.6"/>
</linearGradient>
<linearGradient id="paint18_linear_632_15896" x1="65.7578" y1="469.649" x2="828.737" y2="3529.39" gradientUnits="userSpaceOnUse">
<stop stop-color="#6366F1" stop-opacity="0.6"/>
<stop offset="0.33" stop-color="#06B6D4" stop-opacity="0.6"/>
<stop offset="0.66" stop-color="#22C55E" stop-opacity="0.6"/>
<stop offset="1" stop-color="#A855F7" stop-opacity="0.6"/>
</linearGradient>
<linearGradient id="paint19_linear_632_15896" x1="130.922" y1="372.15" x2="893.901" y2="3431.89" gradientUnits="userSpaceOnUse">
<stop stop-color="#6366F1" stop-opacity="0.6"/>
<stop offset="0.33" stop-color="#06B6D4" stop-opacity="0.6"/>
<stop offset="0.66" stop-color="#22C55E" stop-opacity="0.6"/>
<stop offset="1" stop-color="#A855F7" stop-opacity="0.6"/>
</linearGradient>
<linearGradient id="paint20_linear_632_15896" x1="130.922" y1="404.65" x2="893.901" y2="3464.39" gradientUnits="userSpaceOnUse">
<stop stop-color="#6366F1" stop-opacity="0.6"/>
<stop offset="0.33" stop-color="#06B6D4" stop-opacity="0.6"/>
<stop offset="0.66" stop-color="#22C55E" stop-opacity="0.6"/>
<stop offset="1" stop-color="#A855F7" stop-opacity="0.6"/>
</linearGradient>
<linearGradient id="paint21_linear_632_15896" x1="130.922" y1="437.15" x2="893.901" y2="3496.89" gradientUnits="userSpaceOnUse">
<stop stop-color="#6366F1" stop-opacity="0.6"/>
<stop offset="0.33" stop-color="#06B6D4" stop-opacity="0.6"/>
<stop offset="0.66" stop-color="#22C55E" stop-opacity="0.6"/>
<stop offset="1" stop-color="#A855F7" stop-opacity="0.6"/>
</linearGradient>
<linearGradient id="paint22_linear_632_15896" x1="130.922" y1="469.649" x2="893.901" y2="3529.39" gradientUnits="userSpaceOnUse">
<stop stop-color="#6366F1" stop-opacity="0.6"/>
<stop offset="0.33" stop-color="#06B6D4" stop-opacity="0.6"/>
<stop offset="0.66" stop-color="#22C55E" stop-opacity="0.6"/>
<stop offset="1" stop-color="#A855F7" stop-opacity="0.6"/>
</linearGradient>
<linearGradient id="paint23_linear_632_15896" x1="196.094" y1="388.4" x2="2792.1" y2="5593.72" gradientUnits="userSpaceOnUse">
<stop stop-color="#6366F1" stop-opacity="0.6"/>
<stop offset="0.33" stop-color="#06B6D4" stop-opacity="0.6"/>
<stop offset="0.66" stop-color="#22C55E" stop-opacity="0.6"/>
<stop offset="1" stop-color="#A855F7" stop-opacity="0.6"/>
</linearGradient>
<linearGradient id="paint24_linear_632_15896" x1="196.094" y1="420.9" x2="2792.1" y2="5626.22" gradientUnits="userSpaceOnUse">
<stop stop-color="#6366F1" stop-opacity="0.6"/>
<stop offset="0.33" stop-color="#06B6D4" stop-opacity="0.6"/>
<stop offset="0.66" stop-color="#22C55E" stop-opacity="0.6"/>
<stop offset="1" stop-color="#A855F7" stop-opacity="0.6"/>
</linearGradient>
<linearGradient id="paint25_linear_632_15896" x1="196.094" y1="420.9" x2="2792.1" y2="5626.22" gradientUnits="userSpaceOnUse">
<stop stop-color="#6366F1" stop-opacity="0.6"/>
<stop offset="0.33" stop-color="#06B6D4" stop-opacity="0.6"/>
<stop offset="0.66" stop-color="#22C55E" stop-opacity="0.6"/>
<stop offset="1" stop-color="#A855F7" stop-opacity="0.6"/>
</linearGradient>
<linearGradient id="paint26_linear_632_15896" x1="196.094" y1="453.399" x2="2792.1" y2="5658.72" gradientUnits="userSpaceOnUse">
<stop stop-color="#6366F1" stop-opacity="0.6"/>
<stop offset="0.33" stop-color="#06B6D4" stop-opacity="0.6"/>
<stop offset="0.66" stop-color="#22C55E" stop-opacity="0.6"/>
<stop offset="1" stop-color="#A855F7" stop-opacity="0.6"/>
</linearGradient>
</defs>
</svg>
