<svg width="310" height="272" viewBox="0 0 310 272" fill="none" xmlns="http://www.w3.org/2000/svg">
<path opacity="0.6" d="M222.62 222.033L213.906 220.223" stroke="url(#paint0_linear_632_16016)" stroke-width="0.731668"/>
<path opacity="0.6" d="M222.623 222.033L211.609 229.964" stroke="url(#paint1_linear_632_16016)" stroke-width="0.731668"/>
<path opacity="0.6" d="M197.484 93.9094L247.723 69.1626" stroke="url(#paint2_linear_632_16016)" stroke-width="0.731668"/>
<path opacity="0.6" d="M213.909 220.223L211.609 229.964" stroke="url(#paint3_linear_632_16016)" stroke-width="0.731668"/>
<path opacity="0.6" d="M19.5938 220.803L20.8211 216.559" stroke="url(#paint4_linear_632_16016)" stroke-width="0.731668"/>
<path opacity="0.6" d="M11.1953 136.584L40.8831 100.259" stroke="url(#paint5_linear_632_16016)" stroke-width="0.731668"/>
<g opacity="0.8" filter="url(#filter0_f_632_16016)">
<path d="M299.325 38.714C302.62 38.714 305.291 36.043 305.291 32.7481C305.291 29.4532 302.62 26.7822 299.325 26.7822C296.03 26.7822 293.359 29.4532 293.359 32.7481C293.359 36.043 296.03 38.714 299.325 38.714Z" fill="#6366F1"/>
</g>
<g opacity="0.8" filter="url(#filter1_f_632_16016)">
<path d="M222.618 227.987C225.907 227.987 228.573 225.321 228.573 222.033C228.573 218.744 225.907 216.079 222.618 216.079C219.33 216.079 216.664 218.744 216.664 222.033C216.664 225.321 219.33 227.987 222.618 227.987Z" fill="#06B6D4"/>
</g>
<g opacity="0.8" filter="url(#filter2_f_632_16016)">
<path d="M197.487 99.8731C200.781 99.8731 203.451 97.2031 203.451 93.9094C203.451 90.6158 200.781 87.9458 197.487 87.9458C194.193 87.9458 191.523 90.6158 191.523 93.9094C191.523 97.2031 194.193 99.8731 197.487 99.8731Z" fill="#06B6D4"/>
</g>
<g opacity="0.8" filter="url(#filter3_f_632_16016)">
<path d="M267.438 165.421C270.394 165.421 272.791 163.024 272.791 160.068C272.791 157.112 270.394 154.716 267.438 154.716C264.482 154.716 262.086 157.112 262.086 160.068C262.086 163.024 264.482 165.421 267.438 165.421Z" fill="#6366F1"/>
</g>
<g opacity="0.8" filter="url(#filter4_f_632_16016)">
<path d="M213.909 225.202C216.659 225.202 218.889 222.973 218.889 220.223C218.889 217.473 216.659 215.243 213.909 215.243C211.159 215.243 208.93 217.473 208.93 220.223C208.93 222.973 211.159 225.202 213.909 225.202Z" fill="#F59E0B"/>
</g>
<g opacity="0.8" filter="url(#filter5_f_632_16016)">
<path d="M247.728 75.2109C251.069 75.2109 253.777 72.5029 253.777 69.1623C253.777 65.8218 251.069 63.1138 247.728 63.1138C244.388 63.1138 241.68 65.8218 241.68 69.1623C241.68 72.5029 244.388 75.2109 247.728 75.2109Z" fill="#A855F7"/>
</g>
<g opacity="0.8" filter="url(#filter6_f_632_16016)">
<path d="M211.606 233.601C213.615 233.601 215.243 231.973 215.243 229.964C215.243 227.955 213.615 226.327 211.606 226.327C209.597 226.327 207.969 227.955 207.969 229.964C207.969 231.973 209.597 233.601 211.606 233.601Z" fill="#A855F7"/>
</g>
<g opacity="0.8" filter="url(#filter7_f_632_16016)">
<path d="M19.5888 228.462C23.8189 228.462 27.248 225.033 27.248 220.803C27.248 216.573 23.8189 213.144 19.5888 213.144C15.3588 213.144 11.9297 216.573 11.9297 220.803C11.9297 225.033 15.3588 228.462 19.5888 228.462Z" fill="#6366F1"/>
</g>
<g opacity="0.8" filter="url(#filter8_f_632_16016)">
<path d="M123.994 223.136C128.137 223.136 131.496 219.778 131.496 215.634C131.496 211.491 128.137 208.132 123.994 208.132C119.851 208.132 116.492 211.491 116.492 215.634C116.492 219.778 119.851 223.136 123.994 223.136Z" fill="#06B6D4"/>
</g>
<g opacity="0.8" filter="url(#filter9_f_632_16016)">
<path d="M20.8146 223.959C24.9018 223.959 28.2151 220.646 28.2151 216.559C28.2151 212.472 24.9018 209.158 20.8146 209.158C16.7274 209.158 13.4141 212.472 13.4141 216.559C13.4141 220.646 16.7274 223.959 20.8146 223.959Z" fill="#F59E0B"/>
</g>
<g opacity="0.8" filter="url(#filter10_f_632_16016)">
<path d="M11.1926 142.574C14.5004 142.574 17.182 139.892 17.182 136.584C17.182 133.276 14.5004 130.595 11.1926 130.595C7.88468 130.595 5.20312 133.276 5.20312 136.584C5.20312 139.892 7.88468 142.574 11.1926 142.574Z" fill="#22C55E"/>
</g>
<g opacity="0.8" filter="url(#filter11_f_632_16016)">
<path d="M40.8826 103.922C42.9061 103.922 44.5465 102.282 44.5465 100.259C44.5465 98.2351 42.9061 96.5947 40.8826 96.5947C38.8591 96.5947 37.2188 98.2351 37.2188 100.259C37.2188 102.282 38.8591 103.922 40.8826 103.922Z" fill="#22C55E"/>
</g>
<g filter="url(#filter12_f_632_16016)">
<path d="M155.007 145.015C159.856 145.015 163.787 141.084 163.787 136.235C163.787 131.386 159.856 127.455 155.007 127.455C150.158 127.455 146.227 131.386 146.227 136.235C146.227 141.084 150.158 145.015 155.007 145.015Z" fill="url(#paint6_linear_632_16016)"/>
</g>
<path opacity="0.6" d="M133.057 115.748C133.865 115.748 134.52 115.093 134.52 114.285C134.52 113.476 133.865 112.821 133.057 112.821C132.249 112.821 131.594 113.476 131.594 114.285C131.594 115.093 132.249 115.748 133.057 115.748Z" fill="#6366F1"/>
<path opacity="0.6" d="M176.956 159.648C177.764 159.648 178.419 158.993 178.419 158.185C178.419 157.377 177.764 156.722 176.956 156.722C176.147 156.722 175.492 157.377 175.492 158.185C175.492 158.993 176.147 159.648 176.956 159.648Z" fill="#06B6D4"/>
<path opacity="0.6" d="M140.377 159.648C141.186 159.648 141.841 158.993 141.841 158.185C141.841 157.377 141.186 156.722 140.377 156.722C139.569 156.722 138.914 157.377 138.914 158.185C138.914 158.993 139.569 159.648 140.377 159.648Z" fill="#22C55E"/>
<path opacity="0.6" d="M169.643 115.748C170.451 115.748 171.106 115.093 171.106 114.285C171.106 113.476 170.451 112.821 169.643 112.821C168.835 112.821 168.18 113.476 168.18 114.285C168.18 115.093 168.835 115.748 169.643 115.748Z" fill="#A855F7"/>
<defs>
<filter id="filter0_f_632_16016" x="288.969" y="22.3922" width="20.7097" height="20.7117" filterUnits="userSpaceOnUse" color-interpolation-filters="sRGB">
<feFlood flood-opacity="0" result="BackgroundImageFix"/>
<feBlend mode="normal" in="SourceGraphic" in2="BackgroundImageFix" result="shape"/>
<feGaussianBlur stdDeviation="2.195" result="effect1_foregroundBlur_632_16016"/>
</filter>
<filter id="filter1_f_632_16016" x="212.274" y="211.689" width="20.6863" height="20.6887" filterUnits="userSpaceOnUse" color-interpolation-filters="sRGB">
<feFlood flood-opacity="0" result="BackgroundImageFix"/>
<feBlend mode="normal" in="SourceGraphic" in2="BackgroundImageFix" result="shape"/>
<feGaussianBlur stdDeviation="2.195" result="effect1_foregroundBlur_632_16016"/>
</filter>
<filter id="filter2_f_632_16016" x="187.133" y="83.5558" width="20.7097" height="20.7073" filterUnits="userSpaceOnUse" color-interpolation-filters="sRGB">
<feFlood flood-opacity="0" result="BackgroundImageFix"/>
<feBlend mode="normal" in="SourceGraphic" in2="BackgroundImageFix" result="shape"/>
<feGaussianBlur stdDeviation="2.195" result="effect1_foregroundBlur_632_16016"/>
</filter>
<filter id="filter3_f_632_16016" x="257.696" y="150.326" width="19.4831" height="19.4846" filterUnits="userSpaceOnUse" color-interpolation-filters="sRGB">
<feFlood flood-opacity="0" result="BackgroundImageFix"/>
<feBlend mode="normal" in="SourceGraphic" in2="BackgroundImageFix" result="shape"/>
<feGaussianBlur stdDeviation="2.195" result="effect1_foregroundBlur_632_16016"/>
</filter>
<filter id="filter4_f_632_16016" x="204.54" y="210.853" width="18.7409" height="18.739" filterUnits="userSpaceOnUse" color-interpolation-filters="sRGB">
<feFlood flood-opacity="0" result="BackgroundImageFix"/>
<feBlend mode="normal" in="SourceGraphic" in2="BackgroundImageFix" result="shape"/>
<feGaussianBlur stdDeviation="2.195" result="effect1_foregroundBlur_632_16016"/>
</filter>
<filter id="filter5_f_632_16016" x="237.29" y="58.7238" width="20.8738" height="20.8772" filterUnits="userSpaceOnUse" color-interpolation-filters="sRGB">
<feFlood flood-opacity="0" result="BackgroundImageFix"/>
<feBlend mode="normal" in="SourceGraphic" in2="BackgroundImageFix" result="shape"/>
<feGaussianBlur stdDeviation="2.195" result="effect1_foregroundBlur_632_16016"/>
</filter>
<filter id="filter6_f_632_16016" x="203.579" y="221.937" width="16.0534" height="16.0544" filterUnits="userSpaceOnUse" color-interpolation-filters="sRGB">
<feFlood flood-opacity="0" result="BackgroundImageFix"/>
<feBlend mode="normal" in="SourceGraphic" in2="BackgroundImageFix" result="shape"/>
<feGaussianBlur stdDeviation="2.195" result="effect1_foregroundBlur_632_16016"/>
</filter>
<filter id="filter7_f_632_16016" x="7.53968" y="208.754" width="24.1003" height="24.0984" filterUnits="userSpaceOnUse" color-interpolation-filters="sRGB">
<feFlood flood-opacity="0" result="BackgroundImageFix"/>
<feBlend mode="normal" in="SourceGraphic" in2="BackgroundImageFix" result="shape"/>
<feGaussianBlur stdDeviation="2.195" result="effect1_foregroundBlur_632_16016"/>
</filter>
<filter id="filter8_f_632_16016" x="112.102" y="203.742" width="23.7878" height="23.7839" filterUnits="userSpaceOnUse" color-interpolation-filters="sRGB">
<feFlood flood-opacity="0" result="BackgroundImageFix"/>
<feBlend mode="normal" in="SourceGraphic" in2="BackgroundImageFix" result="shape"/>
<feGaussianBlur stdDeviation="2.195" result="effect1_foregroundBlur_632_16016"/>
</filter>
<filter id="filter9_f_632_16016" x="9.02406" y="204.768" width="23.5847" height="23.5808" filterUnits="userSpaceOnUse" color-interpolation-filters="sRGB">
<feFlood flood-opacity="0" result="BackgroundImageFix"/>
<feBlend mode="normal" in="SourceGraphic" in2="BackgroundImageFix" result="shape"/>
<feGaussianBlur stdDeviation="2.195" result="effect1_foregroundBlur_632_16016"/>
</filter>
<filter id="filter10_f_632_16016" x="0.81312" y="126.205" width="20.7566" height="20.759" filterUnits="userSpaceOnUse" color-interpolation-filters="sRGB">
<feFlood flood-opacity="0" result="BackgroundImageFix"/>
<feBlend mode="normal" in="SourceGraphic" in2="BackgroundImageFix" result="shape"/>
<feGaussianBlur stdDeviation="2.195" result="effect1_foregroundBlur_632_16016"/>
</filter>
<filter id="filter11_f_632_16016" x="32.8287" y="92.2047" width="16.1081" height="16.1076" filterUnits="userSpaceOnUse" color-interpolation-filters="sRGB">
<feFlood flood-opacity="0" result="BackgroundImageFix"/>
<feBlend mode="normal" in="SourceGraphic" in2="BackgroundImageFix" result="shape"/>
<feGaussianBlur stdDeviation="2.195" result="effect1_foregroundBlur_632_16016"/>
</filter>
<filter id="filter12_f_632_16016" x="141.837" y="123.065" width="26.3425" height="26.3401" filterUnits="userSpaceOnUse" color-interpolation-filters="sRGB">
<feFlood flood-opacity="0" result="BackgroundImageFix"/>
<feBlend mode="normal" in="SourceGraphic" in2="BackgroundImageFix" result="shape"/>
<feGaussianBlur stdDeviation="2.195" result="effect1_foregroundBlur_632_16016"/>
</filter>
<linearGradient id="paint0_linear_632_16016" x1="213.906" y1="220.223" x2="286.018" y2="567.314" gradientUnits="userSpaceOnUse">
<stop stop-color="#6366F1" stop-opacity="0.3"/>
<stop offset="0.5" stop-color="#06B6D4" stop-opacity="0.3"/>
<stop offset="1" stop-color="#22C55E" stop-opacity="0.3"/>
</linearGradient>
<linearGradient id="paint1_linear_632_16016" x1="211.609" y1="222.033" x2="963.765" y2="1266.56" gradientUnits="userSpaceOnUse">
<stop stop-color="#6366F1" stop-opacity="0.3"/>
<stop offset="0.5" stop-color="#06B6D4" stop-opacity="0.3"/>
<stop offset="1" stop-color="#22C55E" stop-opacity="0.3"/>
</linearGradient>
<linearGradient id="paint2_linear_632_16016" x1="197.484" y1="69.1626" x2="2159.44" y2="4052.09" gradientUnits="userSpaceOnUse">
<stop stop-color="#6366F1" stop-opacity="0.3"/>
<stop offset="0.5" stop-color="#06B6D4" stop-opacity="0.3"/>
<stop offset="1" stop-color="#22C55E" stop-opacity="0.3"/>
</linearGradient>
<linearGradient id="paint3_linear_632_16016" x1="211.609" y1="220.223" x2="647.272" y2="323.076" gradientUnits="userSpaceOnUse">
<stop stop-color="#6366F1" stop-opacity="0.3"/>
<stop offset="0.5" stop-color="#06B6D4" stop-opacity="0.3"/>
<stop offset="1" stop-color="#22C55E" stop-opacity="0.3"/>
</linearGradient>
<linearGradient id="paint4_linear_632_16016" x1="19.5938" y1="216.559" x2="246.114" y2="282.061" gradientUnits="userSpaceOnUse">
<stop stop-color="#6366F1" stop-opacity="0.3"/>
<stop offset="0.5" stop-color="#06B6D4" stop-opacity="0.3"/>
<stop offset="1" stop-color="#22C55E" stop-opacity="0.3"/>
</linearGradient>
<linearGradient id="paint5_linear_632_16016" x1="11.1953" y1="100.259" x2="3571" y2="3009.61" gradientUnits="userSpaceOnUse">
<stop stop-color="#6366F1" stop-opacity="0.3"/>
<stop offset="0.5" stop-color="#06B6D4" stop-opacity="0.3"/>
<stop offset="1" stop-color="#22C55E" stop-opacity="0.3"/>
</linearGradient>
<linearGradient id="paint6_linear_632_16016" x1="146.227" y1="127.455" x2="1902.23" y2="1883.46" gradientUnits="userSpaceOnUse">
<stop stop-color="#6366F1" stop-opacity="0.3"/>
<stop offset="0.5" stop-color="#06B6D4" stop-opacity="0.3"/>
<stop offset="1" stop-color="#22C55E" stop-opacity="0.3"/>
</linearGradient>
</defs>
</svg>
