<svg width="17" height="17" viewBox="0 0 17 17" fill="none" xmlns="http://www.w3.org/2000/svg">
<path d="M3.44271 11.401C2.44271 12.241 2.10938 14.7344 2.10938 14.7344C2.10938 14.7344 4.60271 14.401 5.44271 13.401C5.91604 12.841 5.90938 11.981 5.38271 11.461C5.12358 11.2137 4.78224 11.0708 4.42419 11.0597C4.06615 11.0486 3.71663 11.1702 3.44271 11.401Z" stroke="#67E8F9" stroke-width="1.33333" stroke-linecap="round" stroke-linejoin="round"/>
<path d="M8.44531 10.401L6.44531 8.40102C6.80008 7.48064 7.24678 6.5984 7.77865 5.76769C8.55543 4.52568 9.63706 3.50306 10.9206 2.79708C12.2042 2.09111 13.6471 1.72527 15.112 1.73436C15.112 3.54769 14.592 6.73436 11.112 9.06769C10.2699 9.60017 9.37654 10.0469 8.44531 10.401Z" stroke="#67E8F9" stroke-width="1.33333" stroke-linecap="round" stroke-linejoin="round"/>
<path d="M6.44271 8.40103H3.10938C3.10938 8.40103 3.47604 6.38103 4.44271 5.73437C5.52271 5.01437 7.77604 5.73437 7.77604 5.73437" stroke="#67E8F9" stroke-width="1.33333" stroke-linecap="round" stroke-linejoin="round"/>
<path d="M8.44531 10.401V13.7344C8.44531 13.7344 10.4653 13.3677 11.112 12.401C11.832 11.321 11.112 9.06769 11.112 9.06769" stroke="#67E8F9" stroke-width="1.33333" stroke-linecap="round" stroke-linejoin="round"/>
</svg>
