<svg width="31" height="30" viewBox="0 0 31 30" fill="none" xmlns="http://www.w3.org/2000/svg">
<g clip-path="url(#clip0_5_576)">
<rect x="0.923218" y="0.723389" width="29.1892" height="29.1892" rx="14.5946" transform="rotate(-0.173721 0.923218 0.723389)" fill="#FF78B9"/>
<path d="M24.7227 34.9592C25.7083 32.8764 23.0382 29.5464 18.7587 27.521C14.4793 25.4957 10.211 25.5423 9.22536 27.6251C8.23971 29.7077 10.9098 33.0379 15.1894 35.0633C19.4687 37.0884 23.737 37.0418 24.7227 34.9592Z" fill="black"/>
<path d="M25.2418 23.4416C23.9732 22.6567 23.911 22.6776 23.2015 21.4136C22.4919 20.1496 21.5975 19.5296 20.5592 19.3875L21.8744 28.7033C24.5751 29.4839 26.2315 28.1089 26.601 26.7586C26.9706 25.4083 26.5311 24.2264 25.2418 23.4416Z" fill="#3442D9"/>
<path d="M23.9793 24.67C23.6218 23.1558 22.6824 21.3943 21.5783 20.0692C21.1826 19.5905 20.9013 19.0278 20.7557 18.424C20.61 17.8202 20.6037 17.1912 20.7374 16.5847L21.1878 14.5076C21.5045 13.066 21.3287 11.5599 20.6889 10.2298C20.0489 8.8998 18.9816 7.82262 17.6576 7.17039C16.8978 6.79917 16.0715 6.58294 15.2271 6.5343C13.6383 6.42275 12.0685 6.9347 10.8509 7.96146C9.63335 8.98823 8.86375 10.449 8.70541 12.0339C8.67177 12.3024 8.65868 12.573 8.66635 12.8435L8.66906 13.7361L8.7219 17.4721C8.77203 19.1506 8.42131 20.8165 7.69879 22.3323C7.39881 22.9337 7.17096 23.5685 7.01955 24.2232L17.2023 34.9859C22.0361 34.1618 25.0524 29.4823 23.9793 24.67Z" fill="#3442D9"/>
<path d="M17.2231 34.9859C22.0362 34.1618 25.0525 29.4823 23.9793 24.67C23.6428 23.2388 22.7868 21.5808 21.7658 20.297" stroke="black" stroke-miterlimit="10" stroke-linecap="round"/>
<path d="M20.7422 24.9912C21.6922 23.4108 22.0665 23.6173 23.7699 24.0687C25.1409 24.4175 26.7269 27.2148 24.6348 28.6326C22.5426 30.0504 18.2642 29.2124 20.7422 24.9912Z" fill="#3442D9"/>
<path d="M15.9962 20.3534C16.1871 20.2065 16.217 19.9255 16.0632 19.7255C15.9094 19.5256 15.6301 19.4827 15.4394 19.6294C15.2487 19.7763 15.2186 20.0572 15.3724 20.2571C15.5262 20.4571 15.8055 20.5001 15.9962 20.3534Z" fill="black"/>
<path d="M18.6112 20.5077C18.8019 20.361 18.832 20.0798 18.6782 19.88C18.5244 19.6802 18.2451 19.637 18.0541 19.7839C17.8634 19.9306 17.8333 20.2118 17.9871 20.4116C18.1409 20.6114 18.4202 20.6546 18.6112 20.5077Z" fill="black"/>
<path d="M18.3406 20.1829C20.5671 22.0027 19.6577 23.3132 21.451 26.0061" stroke="white" stroke-miterlimit="10" stroke-linecap="round"/>
<path d="M15.8414 24.2796C17.2085 23.3206 17.6228 23.0495 18.1418 23.0687L19.4913 23.1891L19.1551 28.67L15.7299 28.5766L15.8414 24.2796Z" fill="#FFC619"/>
<path d="M22.4794 22.8687C22.5051 22.7961 22.5134 22.7185 22.504 22.6421C22.4946 22.5658 22.4676 22.4926 22.4253 22.4284C22.3828 22.3641 22.3262 22.3106 22.2596 22.2719C22.1929 22.2333 22.1183 22.2107 22.0415 22.2058L19.7572 21.8806C19.5915 21.8634 19.4248 21.9038 19.2853 21.9949C19.1457 22.0861 19.0417 22.2223 18.9907 22.3811L17.7183 27.159C17.6928 27.2317 17.6843 27.3092 17.6937 27.3855C17.703 27.4619 17.73 27.5351 17.7724 27.5993C17.8149 27.6635 17.8715 27.7171 17.9383 27.7557C18.0048 27.7943 18.0794 27.8169 18.1562 27.8219L20.4404 28.1471C20.6063 28.1642 20.7729 28.1239 20.9125 28.0327C21.0519 27.9416 21.1559 27.8053 21.2069 27.6466L22.4794 22.8687Z" fill="black"/>
<path d="M22.3741 22.3916L22.6241 22.6815L21.9393 22.7458L22.3741 22.3916Z" fill="black"/>
<path d="M23.5046 25.5431C23.2125 25.0666 22.9409 24.4655 22.1518 24.3433L22.051 25.3399L23.5046 25.5431Z" fill="#FFC619"/>
<path d="M22.7085 23.1379C22.7301 23.0654 22.7354 22.989 22.7242 22.9141C22.713 22.8392 22.6856 22.7677 22.6439 22.7045C22.6022 22.6413 22.5472 22.5881 22.4827 22.5485C22.4183 22.5088 22.3457 22.4837 22.2706 22.475L19.9656 22.1499C19.8005 22.1365 19.6354 22.1785 19.4968 22.269C19.3581 22.3597 19.2532 22.4937 19.1991 22.6504L17.9267 27.4283C17.9051 27.5008 17.8997 27.5772 17.9109 27.6521C17.9222 27.727 17.9496 27.7986 17.9913 27.8617C18.033 27.9249 18.088 27.9783 18.1524 28.0178C18.2171 28.0574 18.2894 28.0825 18.3646 28.0912L20.6695 28.3956C20.8311 28.4217 20.9966 28.3869 21.1342 28.2985C21.2717 28.2098 21.372 28.0738 21.4153 27.9159L22.7085 23.1379Z" fill="white"/>
<path d="M22.0085 25.0289L22.9429 25.1713C23.1323 25.1917 23.3059 25.2856 23.4267 25.4326C23.5476 25.5798 23.6057 25.7686 23.5888 25.9581C23.5843 26.0567 23.5593 26.1533 23.5153 26.2417C23.4712 26.3298 23.4092 26.408 23.3332 26.4708C23.257 26.5337 23.1687 26.5798 23.0735 26.6063C22.9785 26.6329 22.8789 26.6392 22.7813 26.6248L22.096 26.5231C21.8832 26.4932 21.6861 26.3938 21.5353 26.2404C21.3848 26.0869 21.2891 25.8881 21.2632 25.6746C21.2577 25.5795 21.2742 25.4844 21.3113 25.3967C21.3484 25.309 21.4052 25.231 21.4771 25.1685C21.5491 25.1062 21.6345 25.0611 21.7266 25.037C21.8187 25.0128 21.9152 25.01 22.0085 25.0289Z" fill="#FFC619"/>
<path d="M21.7014 26.4204L22.3451 26.5222C22.4529 26.5356 22.5564 26.572 22.6485 26.6292C22.7406 26.6864 22.8191 26.7632 22.8786 26.8537C22.9382 26.9445 22.9773 27.0471 22.9932 27.1543C23.0091 27.2616 23.0013 27.371 22.9707 27.4751C22.927 27.6425 22.8216 27.7873 22.6755 27.8801C22.5295 27.9729 22.3538 28.0071 22.1835 27.9757L21.7889 27.9146C21.5736 27.8856 21.3736 27.7869 21.2195 27.6338C21.0655 27.4807 20.9657 27.2813 20.9353 27.0661C20.929 26.9688 20.9457 26.8716 20.9839 26.7818C21.0222 26.6923 21.0809 26.6128 21.1554 26.5499C21.23 26.4872 21.3181 26.4427 21.413 26.4202C21.5078 26.3977 21.6066 26.3978 21.7014 26.4204Z" fill="#FFC619"/>
<path d="M19.6951 28.7928L17.4525 28.4882L17.5535 27.5746L19.7962 27.8999L19.6951 28.7928Z" fill="#FFC619"/>
<path d="M20.2237 25.1588L18.8116 24.9555C18.7444 24.9466 18.6812 24.9183 18.6294 24.8745C18.5777 24.8304 18.5398 24.7724 18.5203 24.7073L18.3946 24.3341L18.2885 23.5664L17.5287 26.2671L19.8129 26.5923C20.0256 26.6201 20.2413 26.5754 20.4255 26.4657C20.6097 26.3559 20.7516 26.1876 20.8282 25.9872C20.8526 25.8923 20.8556 25.7931 20.8373 25.6968C20.8187 25.6006 20.7792 25.5096 20.7215 25.4305C20.6637 25.3511 20.589 25.2858 20.5031 25.2389C20.4171 25.1918 20.3217 25.1645 20.2237 25.1588Z" fill="#FFC619"/>
<path d="M19.7713 26.5716L17.5287 26.2671L17.637 27.7613L19.3606 28.0051C19.5709 28.0358 19.7852 27.992 19.9667 27.8816C20.1482 27.7713 20.2855 27.6009 20.3551 27.4001C20.3832 27.3067 20.3898 27.208 20.3743 27.1116C20.3587 27.0151 20.3212 26.9237 20.2651 26.8437C20.2089 26.764 20.1352 26.698 20.0495 26.6507C19.9641 26.6036 19.8689 26.5765 19.7713 26.5716Z" fill="#FFC619"/>
<path d="M35.6988 35.6771C35.7542 33.4352 33.9058 33.0879 32.6373 32.303C31.3687 31.5181 29.8692 29.8621 28.3091 28.7459C26.7489 27.6298 25.3998 27.6547 22.7662 28.4722L25.7936 34.3164C27.4983 35.183 27.8748 36.1367 28.792 37.4208C29.7092 38.705 30.9354 39.1994 32.1593 38.9674C32.806 40.024 32.9313 40.2727 33.8643 39.9378C34.7974 39.6029 36.3312 38.8925 36.7426 37.6666C37.1541 36.4407 36.5515 36.2349 35.6988 35.6771Z" fill="#66BCFF"/>
<path d="M25.6586 30.8712C25.3823 31.7631 25.2043 32.6823 25.1272 33.6127" stroke="black" stroke-width="2" stroke-miterlimit="10" stroke-linecap="round"/>
<path d="M26.916 41.6609C25.0323 43.3687 23.4326 42.8961 22.6851 42.8154C21.9376 42.7346 22.019 42.1947 21.9553 41.7382C21.8917 41.2818 21.8481 40.5969 21.8481 40.5969C19.9588 40.4781 19.7266 39.1919 19.6816 38.0504C19.6367 36.9089 19.3456 36.7437 19.1978 35.9347C16.9191 35.5325 14.7639 34.6112 12.8987 33.2417C11.0334 31.8724 9.50885 30.0917 8.44257 28.0382L10.4101 26.6L14.8192 29.4511C17.7841 28.342 19.4222 27.7766 21.0201 27.6679C22.6181 27.5593 24.1974 28.1565 24.723 30.3758C25.2487 32.5952 25.313 33.28 25.7936 34.3372C25.919 34.6066 26.1277 34.9796 26.3365 35.3734C26.9212 36.5547 27.5282 38.2134 26.3506 40.0228C26.4965 40.5826 26.6856 41.1305 26.916 41.6609Z" fill="#8CD9FF"/>
<path d="M11.6726 32.2211C11.6059 30.7476 12.1632 29.7081 13.1798 29.5389L10.6005 27.7617L8.73488 28.5768C9.21631 29.9038 10.4454 31.3531 11.6726 32.2211Z" fill="black"/>
<path d="M15.882 23.9888C15.2785 23.4717 14.822 23.5146 14.0964 23.8282C13.3263 23.1248 12.3297 23.024 11.2929 23.38C10.2562 23.736 8.65934 24.2183 7.72604 24.4702C7.674 24.4899 7.61735 24.494 7.56293 24.4823C7.50851 24.4705 7.45861 24.4434 7.41906 24.4043C7.37971 24.365 7.35237 24.3152 7.34037 24.2609C7.32817 24.2066 7.33214 24.1499 7.35129 24.0977L8.02871 21.6048C5.81278 23.2721 5.09706 26.8237 5.80864 28.7519C6.52022 30.6802 9.59214 30.6501 10.5661 30.1075C11.54 29.5648 11.8716 29.3978 12.9931 29.6019C14.1146 29.8061 14.9868 29.9488 16.4571 28.8234L17.328 28.5302C17.6544 26.6403 17.3597 25.2713 15.882 23.9888Z" fill="#3442D9"/>
<path d="M15.8821 23.9887C15.2786 23.4717 14.8221 23.5146 14.0966 23.8281C13.3264 23.1247 12.3298 23.0239 11.293 23.38C10.2563 23.736 8.65945 24.2182 7.72616 24.4701" stroke="black" stroke-miterlimit="10" stroke-linecap="round"/>
<path d="M14.0964 23.8282C14.7179 24.3065 15.2359 24.9056 15.6197 25.5892C16.0035 26.273 16.2449 27.0274 16.3295 27.8068" stroke="black" stroke-miterlimit="10" stroke-linecap="round"/>
<path d="M20.3839 23.1865C20.3932 23.1578 20.3962 23.1275 20.3926 23.0974C20.389 23.0676 20.3789 23.0387 20.3629 23.0132C20.347 22.9876 20.3258 22.9656 20.3006 22.9491C20.2754 22.9326 20.247 22.9216 20.2171 22.9172L20.0095 22.9178C19.9518 22.9053 19.8914 22.9159 19.8412 22.947C19.7909 22.978 19.7547 23.0273 19.7402 23.0847L19.5554 23.7702C19.546 23.8005 19.5436 23.8325 19.5485 23.8638C19.5533 23.8952 19.5652 23.9248 19.5832 23.9509C19.6013 23.9768 19.6252 23.9983 19.6529 24.0138C19.6805 24.0291 19.7115 24.0379 19.7431 24.0395L19.9506 24.0388C20.0052 24.0457 20.0604 24.0325 20.1062 24.0018C20.1518 23.9712 20.1848 23.9252 20.1992 23.872L20.3839 23.1865Z" fill="#29CC7A"/>
<path d="M17.0507 19.2112C17.2101 18.8859 17.4461 18.6042 17.7381 18.39C18.0304 18.1758 18.3701 18.0357 18.7282 17.9815C18.7698 17.9814 18.7904 17.9398 18.7696 17.9191C18.4967 16.9236 18.6196 16.3628 18.9702 15.6352C18.9737 15.63 18.976 15.624 18.9768 15.6177C18.9776 15.6114 18.977 15.605 18.9751 15.599C18.973 15.593 18.9697 15.5875 18.9651 15.583C18.9607 15.5785 18.9553 15.5751 18.9493 15.573C17.7854 15.0784 17.347 14.2495 17.2206 13.6271C17.1997 13.5857 17.1373 13.5651 17.1167 13.6067C16.6009 14.6461 15.8953 14.6898 15.2931 14.6086C15.2516 14.6087 15.231 14.6503 15.2518 14.6709C15.8573 15.8315 15.4239 16.6631 14.8237 17.2461C14.8206 17.2542 14.819 17.263 14.8195 17.2717C14.8199 17.2805 14.8222 17.289 14.8262 17.2969C14.8301 17.3047 14.8356 17.3116 14.8424 17.3172C14.8491 17.3227 14.857 17.3267 14.8655 17.329C16.0285 17.533 16.6535 18.2991 16.9468 19.1908C16.9677 19.2322 17.03 19.2528 17.0507 19.2112Z" fill="#FFC619"/>
<path d="M19.7714 26.5716L18.5878 26.4092" stroke="black" stroke-miterlimit="10" stroke-linecap="round"/>
<path d="M21.9299 26.5028L22.5945 26.6046" stroke="black" stroke-miterlimit="10" stroke-linecap="round"/>
<path d="M17.1789 13.5858C17.6943 12.4218 17.6503 11.6124 17.5036 11.1562" stroke="black" stroke-miterlimit="10" stroke-linecap="round"/>
<path d="M18.8456 15.6149C19.1695 15.6635 19.5003 15.6419 19.8151 15.5514C20.1302 15.4609 20.4219 15.3037 20.6706 15.0904" stroke="black" stroke-miterlimit="10" stroke-linecap="round"/>
<path d="M17.0507 19.2112C17.0528 19.3657 17.0323 19.5197 16.9898 19.6681" stroke="black" stroke-miterlimit="10" stroke-linecap="round"/>
<path d="M14.9276 17.2666C14.1613 17.8086 12.9986 17.7291 12.1884 17.4825" stroke="black" stroke-miterlimit="10" stroke-linecap="round"/>
<path d="M15.2931 14.6085C15.0007 14.0074 14.4589 13.3241 13.9601 13.0973" stroke="black" stroke-miterlimit="10" stroke-linecap="round"/>
<path d="M18.7697 17.9189C19.0378 18.061 19.3246 18.165 19.6216 18.2277" stroke="black" stroke-miterlimit="10" stroke-linecap="round"/>
<path d="M16.5419 15.705C16.8989 17.0738 17.3553 16.9894 17.5616 16.5737C17.7679 16.1579 17.9117 15.6385 18.2439 15.679C18.5761 15.7196 18.4949 16.301 18.103 17.1325C17.7111 17.9639 17.0682 18.1527 16.4641 17.428C15.86 16.7034 15.8371 15.9977 15.8148 15.4996C15.7925 15.0015 16.3111 14.8754 16.5419 15.705Z" fill="#C40655"/>
<path d="M15.7247 20.0248C15.9825 22.8884 14.5337 24.2628 14.0857 27.1078" stroke="white" stroke-miterlimit="10" stroke-linecap="round"/>
<path d="M19.0318 35.9559C18.6545 34.7324 18.4817 32.4912 19.4928 30.5162" stroke="black" stroke-width="2" stroke-miterlimit="10" stroke-linecap="round"/>
<path d="M8.53489 24.2395L7.00041 24.7423" stroke="black" stroke-miterlimit="10" stroke-linecap="round"/>
<path d="M23.7905 24.0063L24.8292 24.2938" stroke="black" stroke-miterlimit="10" stroke-linecap="round"/>
</g>
<defs>
<clipPath id="clip0_5_576">
<rect x="0.923218" y="0.723389" width="29.1892" height="29.1892" rx="14.5946" transform="rotate(-0.173721 0.923218 0.723389)" fill="white"/>
</clipPath>
</defs>
</svg>
