<svg width="30" height="30" viewBox="0 0 30 30" fill="none" xmlns="http://www.w3.org/2000/svg">
<g clip-path="url(#clip0_5_574)">
<rect x="0.24292" y="0.135742" width="29.1892" height="29.1892" rx="14.5946" transform="rotate(-0.173721 0.24292 0.135742)" fill="#3442D9"/>
<path d="M6.7533 11.5869C5.89372 8.76659 5.43298 7.41879 6.96646 6.58386C8.49993 5.74894 13.1719 6.29521 15.3529 6.80752C17.5339 7.31983 17.8469 7.85856 16.4212 10.0008L6.7533 11.5869Z" fill="#FFF4B3"/>
<path d="M5.83399 36.9754C5.47646 28.5907 5.66288 21.6159 5.92145 17.8996C4.52799 16.9905 3.88239 16.2868 3.61136 15.8932C3.55508 15.8174 3.52616 15.7247 3.52981 15.6303C3.53326 15.536 3.56869 15.4456 3.63054 15.3742C5.82238 12.6069 7.70393 10.1934 9.67242 9.06657C11.6409 7.93974 14.3384 7.64096 18.648 11.9038C18.6892 11.9584 18.7098 12.0259 18.7063 12.0942C18.7027 12.1627 18.6751 12.2275 18.6284 12.2775C18.2881 12.6173 17.9288 12.9372 17.5519 13.2356C18.4284 14.7897 19.7017 17.1521 19.7017 17.1521L20.6981 17.1491C21.3365 17.1471 21.9498 17.3989 22.4027 17.8492C22.8557 18.2993 23.1112 18.9109 23.1131 19.5495C23.1397 21.4799 22.6901 23.806 21.8067 26.7976C25.8018 30.0236 24.847 36.897 24.847 36.897L5.83399 36.9754Z" fill="#29CC7A"/>
<path d="M21.8067 26.7975C21.9299 26.3613 22.0532 25.9665 22.1558 25.5511L19.0268 27.3041C19.0268 27.3041 14.0558 23.9773 5.72611 21.9269C5.59252 25.7881 5.58762 31.0188 5.834 36.9753L24.8471 36.9177C24.8471 36.9177 25.8018 30.0235 21.8067 26.7975Z" fill="#8CD9FF"/>
<path d="M22.5977 27.5632C22.3549 27.2873 22.0903 27.0313 21.8067 26.7976C21.9299 26.3613 22.0532 25.9666 22.1557 25.5511L19.0268 27.3042C19.0268 27.3042 14.0558 23.9774 5.72608 21.927C5.70678 22.4045 5.68759 22.9234 5.68916 23.4424C12.0695 26.0591 15.508 30.5737 15.9217 36.9448L20.6335 36.9305C21.4527 33.2748 22.1072 30.0763 22.5977 27.5632Z" fill="#BAE8FF"/>
<path d="M8.23022 19.4908L8.31325 19.4906C8.35464 19.4489 8.39609 19.428 8.41666 19.3657L10.2048 13.5276C10.2168 13.5031 10.2235 13.4763 10.2241 13.4489C10.2246 13.4217 10.2193 13.3945 10.2083 13.3696C10.1974 13.3445 10.1809 13.3222 10.1605 13.3042C10.1399 13.2862 10.1158 13.273 10.0894 13.2654C10.0633 13.2578 10.0356 13.256 10.0087 13.26C9.9817 13.2642 9.95599 13.2743 9.9332 13.2895C9.91062 13.3047 9.89159 13.3247 9.87734 13.3482C9.86329 13.3715 9.85445 13.3977 9.85162 13.4249L8.12518 19.076C7.37095 18.757 6.64723 18.37 5.96297 17.9202L5.92145 17.9203C5.92183 18.0448 5.90151 18.1902 5.90189 18.3147C6.62043 18.774 7.37884 19.1677 8.16795 19.491L8.23022 19.4908Z" fill="black"/>
<path d="M15.9233 10.0854L8.49407 10.6476C16.8015 12.1999 17.1551 12.4272 15.9233 10.0854Z" fill="black"/>
<path d="M14.0826 15.49C14.3691 15.3733 14.4191 14.831 14.1941 14.2789C13.9691 13.7271 13.5545 13.3742 13.2678 13.4909C12.9811 13.6078 12.9313 14.1499 13.1563 14.702C13.3811 15.2541 13.7959 15.6069 14.0826 15.49Z" fill="black"/>
<path d="M16.2258 16.6311C16.5938 15.9309 16.5467 15.1817 16.1205 14.9578C15.6943 14.7337 15.0506 15.1199 14.6824 15.8199C14.3144 16.5201 14.3617 17.2692 14.7877 17.4934C15.2139 17.7173 15.8579 17.3313 16.2258 16.6311Z" stroke="white" stroke-miterlimit="10"/>
<path d="M19.2823 16.626C19.6503 15.926 19.6032 15.1769 19.177 14.9527C18.7508 14.7288 18.1071 15.1148 17.7391 15.815C17.3711 16.5152 17.4182 17.2644 17.8444 17.4883C18.2706 17.7122 18.9144 17.3263 19.2823 16.626Z" stroke="white" stroke-miterlimit="10"/>
<path d="M17.1792 15.3804C17.3703 15.3026 17.3499 14.8092 17.1335 14.2783C16.9173 13.7476 16.587 13.3804 16.3958 13.4584C16.2049 13.5362 16.2253 14.0295 16.4415 14.5604C16.6579 15.0911 16.9883 15.4584 17.1792 15.3804Z" fill="black"/>
<path d="M19.1732 20.8068C17.5706 20.8169 16.0138 20.2716 14.768 19.2634C13.4779 18.2088 13.9964 18.0826 14.8059 18.0594C15.6153 18.0362 19.4973 18.1697 20.6186 18.3324C21.74 18.4951 21.9543 20.7154 19.1732 20.8068Z" fill="#912869"/>
<path d="M19.1732 20.8068C17.5706 20.8169 16.0138 20.2716 14.768 19.2634C13.4779 18.2088 13.9964 18.0826 14.8059 18.0594C15.6153 18.0362 19.4973 18.1697 20.6186 18.3324C21.74 18.4951 21.9543 20.7154 19.1732 20.8068Z" fill="#611B46"/>
<path d="M19.0972 23.1319L19.0118 22.3641C19.5981 22.3156 20.169 22.1516 20.6917 21.8816" stroke="black" stroke-linecap="round" stroke-linejoin="round"/>
<path d="M19.9408 20.7007C18.8167 19.6248 17.299 18.8199 14.4974 19.0152C16.9119 21.2288 19.4223 20.8476 19.9408 20.7007Z" fill="#EB459F"/>
<path d="M16.3561 15.896L17.6222 15.8922" stroke="white" stroke-miterlimit="10"/>
<path d="M14.4472 16.1508L9.08533 13.9876C8.9729 13.9443 8.85164 13.9291 8.73212 13.9428C8.61239 13.9566 8.49795 13.9991 8.3981 14.0667C8.29847 14.1342 8.21655 14.225 8.15958 14.331C8.1024 14.437 8.07184 14.5552 8.07033 14.6756C8.06827 14.8174 8.10896 14.9563 8.18716 15.0746C8.26514 15.1927 8.3771 15.2847 8.50823 15.3385L8.8616 15.5035" stroke="white" stroke-miterlimit="10" stroke-linecap="round"/>
<path d="M13.3181 13.4351C13.7393 13.4446 14.1597 13.3873 14.563 13.2653" stroke="black" stroke-miterlimit="10" stroke-linecap="round"/>
<path d="M16.4317 13.4257C16.6972 13.4317 16.9604 13.3741 17.1991 13.2573" stroke="black" stroke-miterlimit="10" stroke-linecap="round"/>
<path d="M7.45689 10.8583C14.8667 10.732 17.3757 9.89413 19.4906 9.11972C21.6054 8.3453 21.3961 7.74399 19.7772 7.81116C18.1584 7.87834 12.6228 10.0123 7.45689 10.8583Z" fill="#FFF4B3"/>
<path d="M7.45684 10.8583L9.98853 10.643L16.0666 9.42068L14.5468 7.93079L7.30273 7.95276L7.45684 10.8583Z" fill="#FFF4B3"/>
<path d="M19.7473 18.4802L18.2941 18.4016C18.4628 19.2729 18.8793 19.7283 19.2317 19.5819C19.5841 19.4355 19.7063 18.6672 19.7473 18.4802Z" fill="white"/>
<path d="M15.2633 18.307C15.4531 19.3028 15.8283 19.8205 16.1807 19.6534C16.5331 19.4863 16.6136 18.6558 16.6748 18.3235L15.2633 18.307Z" fill="white"/>
<path d="M16.9147 8.44259C13.7181 9.3094 10.4775 10.0052 7.20679 10.527" stroke="#FFC619" stroke-width="2" stroke-miterlimit="10" stroke-linecap="round"/>
</g>
<defs>
<clipPath id="clip0_5_574">
<rect x="0.24292" y="0.135742" width="29.1892" height="29.1892" rx="14.5946" transform="rotate(-0.173721 0.24292 0.135742)" fill="white"/>
</clipPath>
</defs>
</svg>
