<svg width="31" height="30" viewBox="0 0 31 30" fill="none" xmlns="http://www.w3.org/2000/svg">
<g clip-path="url(#clip0_5_575)">
<rect x="0.840576" y="0.173584" width="29.1892" height="29.1892" rx="14.5946" transform="rotate(-0.173721 0.840576 0.173584)" fill="#7196FF"/>
<path d="M11.8166 25.0908L11.1773 25.7285L15.8476 30.3314L16.4869 29.6935L11.8166 25.0908Z" fill="#2E3338"/>
<path d="M14.7278 25.0889L14.0885 25.7266L18.7587 30.3293L19.3981 29.6916L14.7278 25.0889Z" fill="#2E3338"/>
<path d="M19.971 24.274C21.1731 23.0691 21.9145 21.4868 22.0677 19.799C22.221 18.111 21.7763 16.423 20.8105 15.0249L17.7807 10.6356L14.2122 10.6464L14.2292 16.2568C14.2307 16.7442 14.0368 17.2122 13.6904 17.5579C13.3438 17.9035 12.873 18.0985 12.3814 18.1L6.64429 18.1174L6.64814 19.3881C6.6538 21.2564 7.4064 23.046 8.74088 24.3649C10.0754 25.6838 11.883 26.4242 13.7672 26.4236L14.812 26.4204C16.7479 26.3984 18.5989 25.6284 19.971 24.274Z" fill="#FFD836"/>
<path d="M17.7744 8.5833C18.7208 8.58043 19.6296 8.95046 20.3008 9.61198C20.972 10.2735 21.3507 11.1723 21.3536 12.1108L21.3564 13.0295L14.2193 13.0512L14.2165 12.1129C14.2189 11.1778 14.5945 10.2817 15.2612 9.62035C15.9278 8.95898 16.8314 8.58614 17.7744 8.5833Z" fill="#FFD836"/>
<path d="M22.3973 11.7165C22.5696 11.8844 22.7058 12.0851 22.7979 12.3066C22.8901 12.528 22.9363 12.7656 22.9335 13.0051L19.5227 13.0155C19.396 13.0133 19.2725 12.9745 19.1678 12.9038C19.0629 12.8331 18.9812 12.7335 18.9327 12.6174C18.8842 12.5012 18.8709 12.3735 18.8946 12.25C18.9183 12.1265 18.9778 12.0125 19.0659 11.9221L19.754 11.2358L19.751 10.2584C19.7505 10.1321 19.7993 10.0105 19.8872 9.91913C19.9752 9.82777 20.0954 9.77368 20.2226 9.76825C20.3526 9.77484 20.4771 9.8224 20.5779 9.904L22.3973 11.7165Z" fill="#FF9A15"/>
<path d="M17.7744 8.58306L16.7294 8.58623C15.4433 8.58853 14.2085 8.08628 13.2947 7.18913L12.7803 6.62378L12.7813 6.97566C12.7848 8.11627 13.2451 9.20877 14.061 10.0128C14.8768 10.8169 15.9814 11.2667 17.1318 11.2632L17.7627 11.2613L17.7744 8.58306Z" fill="#FFD836"/>
<path d="M12.7123 10.2014L15.571 10.1927L15.5796 13.0273L12.7123 10.2014Z" fill="#FFD836"/>
<path d="M8.30844 20.8493C8.845 21.9769 9.79904 22.8561 10.9724 23.3043C12.1458 23.7525 13.4482 23.7353 14.6091 23.2561C15.7699 22.7771 16.7002 21.8729 17.2063 20.7315C17.7124 19.5901 17.7556 18.2993 17.3269 17.1273L8.30844 20.8493Z" fill="#FF9A15"/>
<path d="M3.4801 14.9993L5.71499 17.2992C6.00832 17.5846 6.24181 17.9248 6.40196 18.3001C6.56225 18.6754 6.64593 19.0784 6.64825 19.4858L8.24521 19.481L8.24183 18.3669C8.23806 17.7441 8.02623 17.1403 7.63946 16.6498C7.25268 16.1593 6.71284 15.8098 6.10431 15.656L3.4801 14.9993Z" fill="#FFD836"/>
<path d="M7.69107 18.8181L7.51417 18.9945C7.4416 19.064 7.34999 19.1107 7.25077 19.1287C7.15154 19.1468 7.04913 19.1355 6.95645 19.0961C6.86365 19.0567 6.78475 18.9911 6.72947 18.9074C6.6742 18.8238 6.64498 18.7258 6.64562 18.6257L6.63003 13.4845L7.67803 14.5175C8.24815 15.0896 8.56892 15.8607 8.57136 16.665C8.57379 17.4694 8.25771 18.2425 7.69107 18.8181Z" fill="#FFD836"/>
<path d="M17.9993 11.2606C18.2498 11.2599 18.4522 11.058 18.4514 10.8097C18.4507 10.5613 18.2471 10.3607 17.9966 10.3614C17.7461 10.3622 17.5437 10.5641 17.5445 10.8124C17.5452 11.0607 17.7488 11.2614 17.9993 11.2606Z" fill="#202225"/>
</g>
<defs>
<clipPath id="clip0_5_575">
<rect x="0.840576" y="0.173584" width="29.1892" height="29.1892" rx="14.5946" transform="rotate(-0.173721 0.840576 0.173584)" fill="white"/>
</clipPath>
</defs>
</svg>
