<svg width="31" height="30" viewBox="0 0 31 30" fill="none" xmlns="http://www.w3.org/2000/svg">
<g clip-path="url(#clip0_5_573)">
<rect x="0.810425" y="0.088501" width="29.1892" height="29.1892" rx="14.5946" transform="rotate(-0.173721 0.810425 0.088501)" fill="#FFE75C"/>
<path d="M23.3047 29.6926C23.41 30.114 23.4179 30.5541 23.3279 30.979C23.2381 31.4042 23.0525 31.8031 22.7855 32.146C22.5186 32.4886 22.1772 32.7664 21.7871 32.9577C21.397 33.149 20.9687 33.2491 20.5341 33.2504L14.5977 33.2684L11.821 34.8336L11.8207 34.7506C10.5546 34.7544 9.82704 34.3415 10.3734 29.6903C10.1203 28.3834 8.94235 23.2392 8.28725 19.4012C7.69543 15.8951 8.9992 14.6042 12.6047 12.5591C14.1268 7.98799 18.1127 8.24575 18.889 10.9833C19.6653 13.7208 22.233 25.3577 23.3047 29.6926Z" fill="#66BCFF"/>
<path d="M23.3048 29.6925C22.7583 27.4524 21.7909 23.304 20.8866 19.4252L16.2361 19.0864L12.653 21.6296L10.5858 24.4173L9.53156 25.8527C9.91059 27.6367 10.2261 29.0887 10.3526 29.711C9.80624 34.3622 10.534 34.7751 11.8001 34.7713L15.4696 33.2034L23.978 32.5757C23.7676 31.6422 23.5361 30.6674 23.3048 29.6925Z" fill="#EB459F"/>
<path d="M13.7849 27.3847C14.0419 25.8355 13.9022 24.5216 13.4723 24.4502C13.0426 24.3789 12.4858 25.577 12.2286 27.1265C11.9713 28.6757 12.1113 29.9894 12.541 30.0607C12.9706 30.1321 13.5276 28.934 13.7849 27.3847Z" fill="black"/>
<path d="M11.0604 23.5441C11.2668 23.1698 11.4942 22.7955 11.7215 22.4627C14.0568 19.0723 16.254 18.1523 18.3712 18.1459L21.0073 18.1379C21.0467 18.1388 21.0852 18.1491 21.1199 18.1677C21.1544 18.1862 21.1842 18.2129 21.2065 18.2452C21.2288 18.2775 21.2432 18.3147 21.2485 18.3537C21.2538 18.3927 21.2498 18.4323 21.2368 18.4693L20.8866 19.4252C16.8391 19.4375 15.4065 19.3173 12.0546 22.8561L10.5858 24.4173L11.0604 23.5441Z" fill="#D11583"/>
<path d="M12.055 22.9807C10.665 23.234 9.56714 23.9638 8.94835 25.2526C8.77258 25.6102 8.51822 25.9231 8.20387 26.1682L4.47592 28.8986C4.05692 29.198 3.7656 29.6437 3.6594 30.1476C3.5534 30.6514 3.64031 31.1767 3.90298 31.6195C4.08617 31.9303 4.34786 32.1873 4.66162 32.3649C4.97559 32.5424 5.3306 32.6344 5.69113 32.6312L7.24788 32.6265C10.4804 30.8108 11.9712 29.5816 12.7371 28.8736C13.5029 28.1655 14.3501 26.8968 14.2004 25.4443C14.0507 23.9917 13.6316 22.6853 12.055 22.9807Z" fill="white"/>
<path d="M13.1848 12.2461C12.6841 11.4173 12.0165 10.3192 11.7659 9.80106C11.5152 9.2829 10.9137 9.40926 11.7717 11.7314C9.69368 10.949 9.25867 11.2409 9.15577 11.5318C9.05287 11.8227 9.50996 11.9666 10.3832 12.4621C11.2565 12.9576 12.1924 13.5568 12.1924 13.5568L13.1848 12.2461Z" fill="#66BCFF"/>
<path d="M15.3437 12.3018C15.6952 11.8648 15.8185 11.387 15.6104 11.2216C15.4024 11.0562 15.1741 11.1399 14.864 11.556C14.7302 11.7251 14.5852 11.8852 14.4296 12.0347C14.0777 12.3679 14.1615 12.6167 14.328 12.7615C14.4945 12.9063 14.9921 12.7387 15.3437 12.3018Z" fill="black"/>
<path d="M18.8684 11.0041C18.8684 11.0041 16.395 9.89072 15.3343 9.20896C14.2736 8.5272 13.7309 7.51176 14.2075 7.24048C14.6841 6.9692 15.5995 7.60988 16.2455 8.4382C16.2203 6.96454 16.4684 6.65245 16.8627 6.6305C17.257 6.60855 17.3001 7.18959 17.3234 8.01979C17.3466 8.85 17.4932 9.18166 18.1176 9.7402C18.4914 10.0747 18.7534 10.5158 18.8684 11.0041Z" fill="#3442D9"/>
<path d="M9.8189 17.9228C9.23771 17.9245 8.73804 17.4279 9.19205 16.5547C9.64605 15.6815 11.1377 14.8052 11.8632 14.4709C12.5886 14.1366 12.922 14.4677 12.9435 14.7167C12.965 14.9657 12.8621 15.3397 12.3452 16.0055C11.8283 16.6713 10.8775 17.9195 9.8189 17.9228Z" fill="white"/>
<path d="M10.2751 17.8592L9.9226 17.9225L9.41928 16.222L9.70893 15.9098L10.2751 17.8592Z" fill="#8CD9FF"/>
<path d="M11.5593 16.9419L11.2698 17.2334L10.682 15.1387L10.9927 14.9302L11.5593 16.9419Z" fill="#8CD9FF"/>
<path d="M12.7174 15.4855L12.4485 15.8599L12.029 14.4082L12.3817 14.3449L12.7174 15.4855Z" fill="#8CD9FF"/>
<path d="M12.2566 14.1584C12.6414 14.3408 13.037 14.4992 13.4414 14.6323" stroke="black" stroke-linecap="round" stroke-linejoin="round"/>
<path d="M21.5383 22.1632C21.1401 21.8493 20.6528 21.6691 20.1462 21.6485C19.0669 21.6517 18.4681 22.7122 18.2637 23.7299C18.2307 23.8931 18.143 24.0399 18.0148 24.1462C17.8866 24.2524 17.726 24.3112 17.5597 24.3132L17.4144 24.3136C17.3207 24.2967 17.2314 24.261 17.1519 24.2086C17.0723 24.1563 17.0042 24.0884 16.9516 24.0091C16.8991 23.9297 16.8629 23.8406 16.8458 23.747C16.8285 23.6533 16.8305 23.5572 16.8514 23.4643C17.2398 21.4912 18.5229 20.2212 20.1419 20.2163C20.4097 20.2188 20.6688 20.3122 20.8769 20.4814C21.0847 20.6503 21.2291 20.8851 21.2863 21.1468L21.5383 22.1632Z" fill="white"/>
<path d="M23.3047 29.6925C23.3512 29.878 23.3592 30.071 23.3287 30.2595C23.2981 30.4483 23.2297 30.6289 23.1273 30.7903C23.0248 30.9517 22.8907 31.0905 22.7331 31.1985C22.5755 31.3067 22.3974 31.3816 22.2101 31.4187L21.6913 31.4618C20.5082 31.4653 19.2812 30.7633 18.3226 29.5416C18.2653 29.4654 18.2233 29.3787 18.1994 29.2864C18.1755 29.1939 18.17 29.0978 18.1832 29.0034C18.1964 28.9089 18.2281 28.8179 18.2764 28.7357C18.3247 28.6534 18.3889 28.5816 18.4651 28.5241C18.54 28.4638 18.6267 28.4196 18.7194 28.394C18.8121 28.3686 18.9092 28.3623 19.0045 28.3755C19.0998 28.3889 19.1912 28.4214 19.2736 28.4716C19.3557 28.5216 19.4269 28.5878 19.4824 28.6663C20.1492 29.5153 20.9605 30.0317 21.6869 30.0295C22.4134 30.0273 22.8481 29.6109 23.1578 29.0703C23.2 29.2985 23.2627 29.5058 23.3047 29.6925Z" fill="#2331B5"/>
<path d="M21.896 23.7604C21.7495 23.7617 21.607 23.8084 21.4881 23.8943C21.3695 23.9802 21.2804 24.1011 21.2332 24.2398L20.3686 26.588C20.2931 26.8085 20.2955 27.0482 20.3754 27.2671C20.4556 27.4861 20.6083 27.6708 20.8081 27.7906C20.8986 27.8457 21.0004 27.8801 21.1057 27.8905C21.2111 27.9012 21.3176 27.8878 21.4173 27.8516C21.5168 27.8154 21.6069 27.7572 21.681 27.6814C21.7551 27.6057 21.8111 27.5142 21.8448 27.4138L22.4009 25.8969C22.2535 25.2123 22.0851 24.5071 21.896 23.7604Z" fill="#5865F2"/>
<path d="M20.8082 27.7905C20.6083 27.6707 20.4556 27.486 20.3754 27.267C20.2955 27.0481 20.2931 26.8084 20.3686 26.5879L20.6157 25.9437C20.6571 25.8313 20.7224 25.7291 20.8068 25.6442C20.8915 25.5595 20.9934 25.494 21.1056 25.4521C21.2179 25.4105 21.3379 25.3935 21.4574 25.4025C21.5768 25.4115 21.693 25.4462 21.7975 25.5042C21.9687 25.6035 22.0999 25.759 22.1686 25.9446C22.2372 26.1299 22.2393 26.3333 22.1743 26.5201L21.8449 27.4137C21.8111 27.5141 21.7551 27.6055 21.6811 27.6813C21.607 27.7571 21.5169 27.8153 21.4173 27.8515C21.3176 27.8877 21.2112 27.9011 21.1057 27.8904C21.0004 27.88 20.8986 27.8458 20.8082 27.7905Z" fill="#FFE75C"/>
</g>
<defs>
<clipPath id="clip0_5_573">
<rect x="0.810425" y="0.088501" width="29.1892" height="29.1892" rx="14.5946" transform="rotate(-0.173721 0.810425 0.088501)" fill="white"/>
</clipPath>
</defs>
</svg>
