<svg width="30" height="30" viewBox="0 0 30 30" fill="none" xmlns="http://www.w3.org/2000/svg">
<g clip-path="url(#clip0_5_577)">
<rect x="0.00439453" y="0.786865" width="29.1892" height="29.1892" rx="14.5946" transform="rotate(-0.173721 0.00439453 0.786865)" fill="url(#paint0_linear_5_577)"/>
<path d="M26.5187 12.372C28.0294 6.5544 28.7608 5.5212 32.2967 13.0094L26.5187 12.372Z" fill="#D4E1FF"/>
<path d="M12.0857 24.8351L11.947 24.9552C14.0568 26.9329 17.2689 32.021 22.1305 31.7491C22.1305 31.7491 26.0825 38.9187 30.3085 38.1128C34.5344 37.306 37.6519 31.3445 37.6519 31.3445C38.7907 29.2867 39.5947 27.0608 40.0338 24.7504C39.9727 24.2154 39.7729 23.7989 39.3953 23.5421C36.3718 21.548 14.2842 23.2221 12.0857 24.8351Z" fill="#1C1B29"/>
<path d="M18.4528 10.095L22.8825 11.2717C24.1978 10.7047 25.6165 10.4169 27.0488 10.4266C33.7972 10.4061 37.4066 15.8707 37.427 22.5958C37.4473 29.3216 33.8712 34.808 27.1228 34.8285C20.3737 34.849 16.7844 29.3843 16.764 22.6584C16.757 21.6681 16.8335 20.6789 16.9929 19.7014C17.4423 17.1205 17.3129 14.4707 16.6118 11.9456C16.5436 11.6904 16.5435 11.4217 16.6117 11.1664C16.6798 10.9111 16.8137 10.6782 17.0001 10.4908C17.1864 10.3035 17.4187 10.1684 17.6736 10.0989C17.9285 10.0295 18.1972 10.0281 18.4528 10.095Z" fill="#B3CAFF"/>
<path d="M37.1978 25.5135C33.9269 26.9714 30.5481 25.4533 27.2872 23.5989C23.7276 21.5662 21.429 16.3949 20.4516 14.7513C19.4743 13.107 18.0832 12.7946 17.1237 10.3972C16.897 10.5776 16.728 10.8201 16.6372 11.0952C16.5463 11.3702 16.5378 11.6658 16.6125 11.9456C17.3131 14.4709 17.443 17.1205 16.9928 19.7022C16.8335 20.6794 16.7569 21.6683 16.7639 22.6584C16.7843 29.3843 20.3936 34.8489 27.1227 34.8285C32.8594 34.8111 36.3011 30.8326 37.1978 25.5127L37.1978 25.5135Z" fill="#8DAEF7"/>
<path d="M36.5964 23.5104C36.6122 28.7481 33.5089 33.0036 29.6775 33.0152C25.8469 33.0268 22.737 28.7902 22.7212 23.5525C22.6949 14.9029 28.0955 21.9692 31.9269 21.9576C35.7575 21.946 36.6727 16.0908 36.5964 23.5104Z" fill="#FCFDFF"/>
<path d="M29.779 28.5815C30.151 28.5491 30.4081 28.0276 30.3557 27.4162C30.3024 26.8049 29.9578 26.3358 29.5867 26.3675C29.2155 26.4007 28.9575 26.9222 29.0108 27.5328C29.0641 28.1442 29.4079 28.614 29.779 28.5815ZM34.3362 27.5544C34.4452 26.9506 34.2363 26.4072 33.8688 26.3416C33.5022 26.2752 33.1162 26.7112 33.0071 27.315C32.8989 27.918 33.1079 28.4614 33.4745 28.5278C33.8411 28.5941 34.2271 28.1582 34.3362 27.5544Z" fill="#1C1B29"/>
<path d="M49.855 88.5831C47.0378 89.1871 38.5776 81.1778 38.5776 81.1778C40.9221 88.4711 41.3257 90.6524 41.7283 92.5356C42.131 94.4195 41.8935 94.7971 41.7392 96.1267C41.5841 97.4563 41.584 97.4169 42.383 99.0811C43.182 100.745 43.7022 101.914 43.8631 102.767C43.9241 103.262 43.9055 103.764 43.8081 104.254L8.33706 104.362C8.33706 104.362 8.15546 103.569 8.90333 101.364C9.65121 99.1603 11.3725 97.3301 12.3206 95.9379C13.2694 94.5464 13.2103 94.6856 12.9506 94.1111C11.7512 91.2974 13.6784 91.9071 14.4796 87.6786C15.28 83.4502 15.4777 63.2927 17.2583 55.0547C19.0398 46.8159 21.7933 44.8629 21.9712 38.0577C18.6068 34.9339 10.2651 26.8045 11.947 24.9544C13.8577 26.7342 19.5769 27.5903 24.2415 27.5368C24.6507 27.5297 25.0517 27.6518 25.3874 27.8858C25.7231 28.1198 25.9765 28.4538 26.1114 28.8401C26.9126 31.238 28.9319 35.9738 32.0864 35.3487C35.241 34.7244 37.5655 29.0826 38.215 27.0372C38.3519 26.5907 38.6377 26.2047 39.0249 25.9435C39.4473 25.6277 39.7923 25.22 40.0338 24.7511C40.4828 28.6576 34.0229 39.0328 34.0229 39.0328C34.0229 39.0328 35.6735 53.0743 38.9034 57.6867C42.1325 62.2999 51.1646 62.2725 51.3957 66.6762C51.6276 71.079 52.652 87.9791 49.855 88.5831Z" fill="#BD4070"/>
<path d="M22.4008 29.2082C20.058 29.0763 16.9012 28.6889 11.8319 26.1851C12.6541 29.1381 19.1249 35.388 21.9713 38.0577C21.9348 40.1684 21.5591 42.2596 20.8586 44.251C23.4298 47.8737 26.5196 45.5035 27.1065 55.6991C27.3576 60.0432 30.5709 65.8064 33.9246 72.0456C37.2784 78.2848 37.7 66.7965 37.5438 61.143C37.4549 58.068 36.8287 54.2609 36.1619 50.6324C34.7366 45.1411 34.023 39.0328 34.023 39.0328C34.023 39.0328 38.5468 31.758 39.763 27.1121C39.4534 27.3059 39.2116 27.5911 39.0711 27.9274C37.8481 30.7072 36.4782 33.42 34.967 36.0543C33.4065 38.698 30.4927 40.0159 27.122 34.8286C23.7522 29.6405 24.9221 29.3597 22.4008 29.2082Z" fill="#A12C66"/>
<path d="M23.8403 19.483C27.3393 21.1583 28.5568 23.2977 31.3554 23.2097C34.154 23.1216 35.2411 21.7691 36.3671 19.9609C35.9076 18.9699 34.6663 21.9493 31.9269 21.9576C29.1876 21.9659 25.6038 18.3068 23.8403 19.483Z" fill="#8DAEF7"/>
</g>
<defs>
<linearGradient id="paint0_linear_5_577" x1="14.599" y1="30.1084" x2="14.599" y2="9.20013" gradientUnits="userSpaceOnUse">
<stop stop-color="#7196FF"/>
<stop offset="1" stop-color="#2A5EE8"/>
</linearGradient>
<clipPath id="clip0_5_577">
<rect x="0.00439453" y="0.786865" width="29.1892" height="29.1892" rx="14.5946" transform="rotate(-0.173721 0.00439453 0.786865)" fill="white"/>
</clipPath>
</defs>
</svg>
