<svg width="36" height="37" viewBox="0 0 36 37" fill="none" xmlns="http://www.w3.org/2000/svg">
<path d="M30.0466 14.7958L18.7966 26.0458C18.6921 26.1504 18.568 26.2334 18.4314 26.29C18.2949 26.3466 18.1485 26.3758 18.0006 26.3758C17.8528 26.3758 17.7064 26.3466 17.5698 26.29C17.4332 26.2334 17.3092 26.1504 17.2047 26.0458L5.95469 14.7958C5.74359 14.5847 5.625 14.2984 5.625 13.9999C5.625 13.7014 5.74359 13.4151 5.95469 13.204C6.16578 12.9929 6.45209 12.8743 6.75063 12.8743C7.04916 12.8743 7.33547 12.9929 7.54656 13.204L18.0006 23.6594L28.4547 13.204C28.5592 13.0994 28.6833 13.0165 28.8199 12.96C28.9564 12.9034 29.1028 12.8743 29.2506 12.8743C29.3984 12.8743 29.5448 12.9034 29.6814 12.96C29.818 13.0165 29.942 13.0994 30.0466 13.204C30.1511 13.3085 30.234 13.4326 30.2906 13.5691C30.3471 13.7057 30.3763 13.8521 30.3763 13.9999C30.3763 14.1477 30.3471 14.2941 30.2906 14.4307C30.234 14.5672 30.1511 14.6913 30.0466 14.7958Z" fill="white"/>
</svg>
