<svg width="864" height="508" viewBox="0 0 864 508" fill="none" xmlns="http://www.w3.org/2000/svg">
<path d="M378.7 376.966V400.688C378.7 404.747 376.602 408.507 373.172 410.643L372.836 410.845L213.29 502.958C209.775 504.988 205.469 505.052 201.904 503.149L201.562 502.958L42.165 410.931C38.5362 408.836 36.3008 404.964 36.3008 400.774V376.656L207.231 277.968L378.7 376.966Z" fill="#DCE8E6" stroke="#2C3242" stroke-width="0.601467"/>
<mask id="path-2-inside-1_450_10732" fill="white">
<path fill-rule="evenodd" clip-rule="evenodd" d="M207.241 269.009L371.418 363.797L378.966 376.87L207.417 475.913L35.9883 376.939L43.8315 363.354L207.241 269.009Z"/>
</mask>
<path fill-rule="evenodd" clip-rule="evenodd" d="M207.241 269.009L371.418 363.797L378.966 376.87L207.417 475.913L35.9883 376.939L43.8315 363.354L207.241 269.009Z" fill="#D3DEDC"/>
<path d="M371.418 363.797L371.939 363.496L371.858 363.356L371.719 363.276L371.418 363.797ZM207.241 269.009L207.542 268.488L207.241 268.315L206.941 268.488L207.241 269.009ZM378.966 376.87L379.266 377.391L379.787 377.09L379.486 376.569L378.966 376.87ZM207.417 475.913L207.116 476.434L207.417 476.608L207.718 476.434L207.417 475.913ZM35.9883 376.939L35.4674 376.638L35.1667 377.159L35.6875 377.46L35.9883 376.939ZM43.8315 363.354L43.5308 362.833L43.3912 362.914L43.3106 363.053L43.8315 363.354ZM371.418 363.797L371.719 363.276L207.542 268.488L207.241 269.009L206.941 269.53L371.117 364.317L371.418 363.797ZM378.966 376.87L379.486 376.569L371.939 363.496L371.418 363.797L370.897 364.097L378.445 377.17L378.966 376.87ZM207.417 475.913L207.718 476.434L379.266 377.391L378.966 376.87L378.665 376.349L207.116 475.392L207.417 475.913ZM35.9883 376.939L35.6875 377.46L207.116 476.434L207.417 475.913L207.718 475.392L36.289 376.418L35.9883 376.939ZM35.9883 376.939L36.5092 377.24L44.3524 363.655L43.8315 363.354L43.3106 363.053L35.4674 376.638L35.9883 376.939ZM207.241 269.009L206.941 268.488L43.5308 362.833L43.8315 363.354L44.1323 363.875L207.542 269.53L207.241 269.009Z" fill="#2C3242" mask="url(#path-2-inside-1_450_10732)"/>
<rect x="-1.79251e-08" y="0.300733" width="188.674" height="188.489" transform="matrix(0.866025 0.5 -0.866025 0.5 207.499 269.159)" fill="#F8FAFA" stroke="#2C3242" stroke-width="0.601467"/>
<rect x="-1.79251e-08" y="0.300733" width="142.573" height="142.433" transform="matrix(0.866025 0.5 -0.866025 0.5 207.518 286.552)" fill="#2C3242" stroke="#2C3242" stroke-width="0.601467"/>
<rect x="0.260443" y="0.4511" width="135.849" height="201.435" transform="matrix(0.866025 0.5 -2.20305e-08 1 89.2536 155.118)" fill="#DCE8E6" stroke="#2C3242" stroke-width="0.601467"/>
<rect x="0.260443" y="0.150367" width="135.849" height="201.435" transform="matrix(0.866025 -0.5 2.20305e-08 1 207.211 223.603)" fill="#DCE8E6" stroke="#2C3242" stroke-width="0.601467"/>
<path d="M201.717 18.3296L328.216 91.3638L207.386 161.125L74.8966 84.6323L189.736 18.3296C193.045 16.4196 198.409 16.4196 201.717 18.3296Z" fill="#F8FAFA" stroke="#2C3242" stroke-width="0.601467"/>
<rect x="0.260443" y="0.150367" width="139.396" height="226.255" transform="matrix(0.866025 -0.5 2.20305e-08 1 207.199 161.047)" fill="#DCE8E6" stroke="#2C3242" stroke-width="0.601467"/>
<rect x="0.260443" y="0.150367" width="139.396" height="196.35" transform="matrix(0.866025 -0.5 2.20305e-08 1 207.199 190.952)" fill="#DEBF1A" stroke="#2C3242" stroke-width="0.601467"/>
<rect x="0.260443" y="0.150367" width="139.407" height="16.331" transform="matrix(0.866025 -0.5 2.20305e-08 1 207.199 174.541)" stroke="#2C3242" stroke-width="0.601467"/>
<mask id="mask0_450_10732" style="mask-type:alpha" maskUnits="userSpaceOnUse" x="141" y="46" width="132" height="77">
<rect width="106.251" height="44.7953" transform="matrix(0.866025 0.5 -0.866025 0.5 180.73 46.5854)" fill="#DCE8E6"/>
</mask>
<g mask="url(#mask0_450_10732)">
<rect width="106.251" height="44.7953" transform="matrix(0.866025 0.5 -0.866025 0.5 180.73 46.5854)" fill="#2C3242"/>
<rect x="0.260443" y="0.150367" width="44.1027" height="19.7748" transform="matrix(0.866025 -0.5 2.20305e-08 1 141.996 68.9644)" fill="#2C3242" stroke="#2C3242" stroke-width="0.601467"/>
<rect width="106.663" height="20.3763" transform="matrix(0.866025 0.5 -2.20305e-08 1 180.68 46.4214)" fill="#2C3242"/>
<path opacity="0.7" d="M262.246 31.2617V115.467" stroke="#DCE8E6" stroke-width="2.40587"/>
<path opacity="0.2" d="M168.418 31.2617V115.467" stroke="#DCE8E6" stroke-width="6.01467"/>
<path opacity="0.3" d="M247.812 43.291V127.496" stroke="#DCE8E6" stroke-width="13.2323"/>
<path opacity="0.3" d="M147.969 31.2617V115.467" stroke="#DCE8E6" stroke-width="21.6528"/>
</g>
<rect x="0.260443" y="0.4511" width="152.937" height="226.255" transform="matrix(0.866025 0.5 -2.20305e-08 1 74.7497 84.1789)" fill="#DCE8E6" stroke="#2C3242" stroke-width="0.601467"/>
<mask id="mask1_450_10732" style="mask-type:alpha" maskUnits="userSpaceOnUse" x="87" y="146" width="108" height="136">
<rect x="0.260443" y="0.4511" width="122.253" height="72.2284" transform="matrix(0.866025 0.5 -2.20305e-08 1 87.8982 146.769)" fill="#DCE8E6" stroke="#2C3242" stroke-width="0.601467"/>
</mask>
<g mask="url(#mask1_450_10732)">
<rect x="0.260443" y="0.4511" width="122.253" height="72.2284" transform="matrix(0.866025 0.5 -2.20305e-08 1 87.8982 146.769)" fill="#DCE8E6" stroke="#2C3242" stroke-width="0.601467"/>
<path d="M105.249 157.321L105.249 209.392L88.1238 219.279L88.1238 147.434L105.249 157.321Z" fill="#DCE8E6" stroke="#2C3242" stroke-width="0.601467"/>
<path d="M105.197 209.51L194.08 261.018L194.08 280.767L88.0718 219.397L105.197 209.51Z" fill="#F8FAFA" stroke="#2C3242" stroke-width="0.601467"/>
<rect width="16.5071" height="18.7346" rx="3.6088" transform="matrix(0.866025 0.5 0.0797455 0.996815 138.645 199.779)" fill="black"/>
<rect opacity="0.5" x="0.260443" y="0.4511" width="122.253" height="72.2284" transform="matrix(0.866025 0.5 -2.20305e-08 1 87.8982 146.769)" fill="#DEBF1A" stroke="#2C3242" stroke-width="0.601467"/>
<path opacity="0.2" d="M68.5703 237.981L164.299 184.025" stroke="#DCE8E6" stroke-width="13.2323"/>
<path opacity="0.2" d="M80.5977 251.213L176.327 197.257" stroke="#DCE8E6" stroke-width="4.81173"/>
</g>
<mask id="mask2_450_10732" style="mask-type:alpha" maskUnits="userSpaceOnUse" x="87" y="215" width="108" height="136">
<rect x="0.260443" y="0.4511" width="122.253" height="72.2284" transform="matrix(0.866025 0.5 -2.20305e-08 1 87.8982 215.775)" fill="#DCE8E6" stroke="#2C3242" stroke-width="0.601467"/>
</mask>
<g mask="url(#mask2_450_10732)">
<rect x="0.260443" y="0.4511" width="122.253" height="36.5731" transform="matrix(0.866025 0.5 -2.20305e-08 1 87.8982 251.43)" fill="#DCE8E6" stroke="#2C3242" stroke-width="0.601467"/>
<path d="M105.249 262.018L105.249 278.397L88.1238 288.284L88.1238 252.131L105.249 262.018Z" fill="#DCE8E6" stroke="#2C3242" stroke-width="0.601467"/>
<path d="M105.197 278.516L194.08 330.023L194.08 349.773L88.0718 288.403L105.197 278.516Z" fill="#F8FAFA" stroke="#2C3242" stroke-width="0.601467"/>
</g>
<rect x="0.260443" y="0.4511" width="152.612" height="16.331" transform="matrix(0.866025 0.5 -2.20305e-08 1 74.7497 97.2929)" stroke="#2C3242" stroke-width="0.601467"/>
<mask id="path-34-inside-2_450_10732" fill="white">
<path d="M108.611 355.631L105.644 353.918L105.644 343.33L108.611 345.043L108.611 355.631ZM113.736 358.59L110.769 356.877L110.769 346.289L113.736 348.002L113.736 358.59ZM118.861 361.548L115.895 359.835L115.895 349.247L118.861 350.96L118.861 361.548ZM123.986 364.506L121.02 362.793L121.02 352.205L123.986 353.918L123.986 364.506ZM103.49 352.671L100.523 350.958L100.523 340.371L103.49 342.084L103.49 352.671Z"/>
</mask>
<path d="M108.611 355.631L105.644 353.918L105.644 343.33L108.611 345.043L108.611 355.631ZM113.736 358.59L110.769 356.877L110.769 346.289L113.736 348.002L113.736 358.59ZM118.861 361.548L115.895 359.835L115.895 349.247L118.861 350.96L118.861 361.548ZM123.986 364.506L121.02 362.793L121.02 352.205L123.986 353.918L123.986 364.506ZM103.49 352.671L100.523 350.958L100.523 340.371L103.49 342.084L103.49 352.671Z" fill="#DEBF1A"/>
<path d="M108.611 355.631L108.611 355.97L108.905 356.14L108.905 355.8L108.611 355.631ZM105.644 353.918L105.35 353.748L105.35 354.088L105.644 354.257L105.644 353.918ZM105.644 343.33L105.644 342.99L105.35 342.82L105.35 343.16L105.644 343.33ZM108.611 345.043L108.905 345.213L108.905 344.873L108.611 344.703L108.611 345.043ZM113.736 358.59L113.736 358.929L114.03 359.099L114.03 358.759L113.736 358.59ZM110.769 356.877L110.475 356.707L110.475 357.047L110.769 357.216L110.769 356.877ZM110.769 346.289L110.769 345.949L110.475 345.779L110.475 346.119L110.769 346.289ZM113.736 348.002L114.03 348.172L114.03 347.832L113.736 347.662L113.736 348.002ZM118.861 361.548L118.861 361.887L119.155 362.057L119.155 361.717L118.861 361.548ZM115.895 359.835L115.6 359.665L115.6 360.005L115.895 360.174L115.895 359.835ZM115.895 349.247L115.895 348.907L115.6 348.737L115.6 349.077L115.895 349.247ZM118.861 350.96L119.155 351.13L119.155 350.79L118.861 350.62L118.861 350.96ZM123.986 364.506L123.986 364.845L124.281 365.015L124.281 364.675L123.986 364.506ZM121.02 362.793L120.726 362.623L120.726 362.963L121.02 363.132L121.02 362.793ZM121.02 352.205L121.02 351.865L120.726 351.695L120.726 352.035L121.02 352.205ZM123.986 353.918L124.281 354.088L124.281 353.748L123.986 353.578L123.986 353.918ZM103.49 352.671L103.49 353.011L103.784 353.181L103.784 352.841L103.49 352.671ZM100.523 350.958L100.229 350.788L100.229 351.128L100.523 351.298L100.523 350.958ZM100.523 340.371L100.523 340.032L100.229 339.862L100.229 340.202L100.523 340.371ZM103.49 342.084L103.784 342.254L103.784 341.914L103.49 341.745L103.49 342.084ZM108.611 355.631L108.611 355.291L105.644 353.578L105.644 353.918L105.644 354.257L108.611 355.97L108.611 355.631ZM105.644 353.918L105.938 354.088L105.938 343.5L105.644 343.33L105.35 343.16L105.35 353.748L105.644 353.918ZM105.644 343.33L105.644 343.669L108.611 345.382L108.611 345.043L108.611 344.703L105.644 342.99L105.644 343.33ZM108.611 345.043L108.317 344.873L108.317 355.461L108.611 355.631L108.905 355.8L108.905 345.213L108.611 345.043ZM113.736 358.59L113.736 358.25L110.769 356.537L110.769 356.877L110.769 357.216L113.736 358.929L113.736 358.59ZM110.769 356.877L111.064 357.047L111.064 346.459L110.769 346.289L110.475 346.119L110.475 356.707L110.769 356.877ZM110.769 346.289L110.769 346.628L113.736 348.341L113.736 348.002L113.736 347.662L110.769 345.949L110.769 346.289ZM113.736 348.002L113.442 347.832L113.442 358.42L113.736 358.59L114.03 358.759L114.03 348.172L113.736 348.002ZM118.861 361.548L118.861 361.208L115.895 359.495L115.895 359.835L115.895 360.174L118.861 361.887L118.861 361.548ZM115.895 359.835L116.189 360.005L116.189 349.417L115.895 349.247L115.6 349.077L115.6 359.665L115.895 359.835ZM115.895 349.247L115.895 349.586L118.861 351.299L118.861 350.96L118.861 350.62L115.895 348.907L115.895 349.247ZM118.861 350.96L118.567 350.79L118.567 361.378L118.861 361.548L119.155 361.717L119.155 351.13L118.861 350.96ZM123.986 364.506L123.986 364.166L121.02 362.453L121.02 362.793L121.02 363.132L123.986 364.845L123.986 364.506ZM121.02 362.793L121.314 362.963L121.314 352.375L121.02 352.205L120.726 352.035L120.726 362.623L121.02 362.793ZM121.02 352.205L121.02 352.544L123.986 354.257L123.986 353.918L123.986 353.578L121.02 351.865L121.02 352.205ZM123.986 353.918L123.692 353.748L123.692 364.336L123.986 364.506L124.281 364.675L124.281 354.088L123.986 353.918ZM103.49 352.671L103.49 352.332L100.523 350.619L100.523 350.958L100.523 351.298L103.49 353.011L103.49 352.671ZM100.523 350.958L100.818 351.128L100.818 340.541L100.523 340.371L100.229 340.202L100.229 350.788L100.523 350.958ZM100.523 340.371L100.523 340.711L103.49 342.424L103.49 342.084L103.49 341.745L100.523 340.032L100.523 340.371ZM103.49 342.084L103.196 341.914L103.196 352.501L103.49 352.671L103.784 352.841L103.784 342.254L103.49 342.084Z" fill="#2C3242" mask="url(#path-34-inside-2_450_10732)"/>
<mask id="path-36-inside-3_450_10732" fill="white">
<path d="M216.923 406.944L213.957 408.656L213.957 398.068L216.923 396.356L216.923 406.944ZM222.048 403.984L219.081 405.697L219.081 395.109L222.048 393.396L222.048 403.984ZM227.169 401.026L224.203 402.739L224.203 392.151L227.169 390.438L227.169 401.026ZM232.294 398.067L229.327 399.78L229.327 389.192L232.294 387.479L232.294 398.067ZM237.419 395.108L234.452 396.821L234.452 386.234L237.419 384.521L237.419 395.108Z"/>
</mask>
<path d="M216.923 406.944L213.957 408.656L213.957 398.068L216.923 396.356L216.923 406.944ZM222.048 403.984L219.081 405.697L219.081 395.109L222.048 393.396L222.048 403.984ZM227.169 401.026L224.203 402.739L224.203 392.151L227.169 390.438L227.169 401.026ZM232.294 398.067L229.327 399.78L229.327 389.192L232.294 387.479L232.294 398.067ZM237.419 395.108L234.452 396.821L234.452 386.234L237.419 384.521L237.419 395.108Z" fill="#DEBF1A"/>
<path d="M216.923 406.944L216.923 407.283L217.217 407.113L217.217 406.774L216.923 406.944ZM213.957 408.656L213.663 408.826L213.663 409.165L213.957 408.996L213.957 408.656ZM213.957 398.068L213.957 397.729L213.663 397.898L213.663 398.238L213.957 398.068ZM216.923 396.356L217.217 396.186L217.217 395.846L216.923 396.016L216.923 396.356ZM222.048 403.984L222.048 404.323L222.342 404.153L222.342 403.814L222.048 403.984ZM219.081 405.697L218.787 405.866L218.787 406.206L219.081 406.036L219.081 405.697ZM219.081 395.109L219.081 394.769L218.787 394.939L218.787 395.278L219.081 395.109ZM222.048 393.396L222.342 393.226L222.342 392.886L222.048 393.056L222.048 393.396ZM227.169 401.026L227.169 401.366L227.463 401.196L227.463 400.856L227.169 401.026ZM224.203 402.739L223.909 402.908L223.909 403.248L224.203 403.078L224.203 402.739ZM224.203 392.151L224.203 391.811L223.909 391.981L223.909 392.32L224.203 392.151ZM227.169 390.438L227.463 390.268L227.463 389.929L227.169 390.099L227.169 390.438ZM232.294 398.067L232.294 398.407L232.588 398.237L232.588 397.897L232.294 398.067ZM229.327 399.78L229.033 399.95L229.033 400.289L229.327 400.12L229.327 399.78ZM229.327 389.192L229.327 388.853L229.033 389.022L229.033 389.362L229.327 389.192ZM232.294 387.479L232.588 387.309L232.588 386.97L232.294 387.14L232.294 387.479ZM237.419 395.108L237.419 395.448L237.713 395.278L237.713 394.938L237.419 395.108ZM234.452 396.821L234.158 396.991L234.158 397.33L234.452 397.161L234.452 396.821ZM234.452 386.234L234.452 385.895L234.158 386.064L234.158 386.404L234.452 386.234ZM237.419 384.521L237.713 384.351L237.713 384.012L237.419 384.182L237.419 384.521ZM216.923 406.944L216.923 406.604L213.957 408.316L213.957 408.656L213.957 408.996L216.923 407.283L216.923 406.944ZM213.957 408.656L214.251 408.486L214.251 397.898L213.957 398.068L213.663 398.238L213.663 408.826L213.957 408.656ZM213.957 398.068L213.957 398.408L216.923 396.695L216.923 396.356L216.923 396.016L213.957 397.729L213.957 398.068ZM216.923 396.356L216.629 396.526L216.629 407.113L216.923 406.944L217.217 406.774L217.217 396.186L216.923 396.356ZM222.048 403.984L222.048 403.644L219.081 405.357L219.081 405.697L219.081 406.036L222.048 404.323L222.048 403.984ZM219.081 405.697L219.375 405.527L219.375 394.939L219.081 395.109L218.787 395.278L218.787 405.866L219.081 405.697ZM219.081 395.109L219.081 395.448L222.048 393.735L222.048 393.396L222.048 393.056L219.081 394.769L219.081 395.109ZM222.048 393.396L221.754 393.566L221.754 404.153L222.048 403.984L222.342 403.814L222.342 393.226L222.048 393.396ZM227.169 401.026L227.169 400.687L224.203 402.399L224.203 402.739L224.203 403.078L227.169 401.366L227.169 401.026ZM224.203 402.739L224.497 402.569L224.497 391.981L224.203 392.151L223.909 392.32L223.909 402.908L224.203 402.739ZM224.203 392.151L224.203 392.49L227.169 390.778L227.169 390.438L227.169 390.099L224.203 391.811L224.203 392.151ZM227.169 390.438L226.875 390.608L226.875 401.196L227.169 401.026L227.463 400.856L227.463 390.268L227.169 390.438ZM232.294 398.067L232.294 397.728L229.327 399.44L229.327 399.78L229.327 400.12L232.294 398.407L232.294 398.067ZM229.327 399.78L229.621 399.61L229.621 389.022L229.327 389.192L229.033 389.362L229.033 399.95L229.327 399.78ZM229.327 389.192L229.327 389.532L232.294 387.819L232.294 387.479L232.294 387.14L229.327 388.853L229.327 389.192ZM232.294 387.479L232 387.649L232 398.237L232.294 398.067L232.588 397.897L232.588 387.309L232.294 387.479ZM237.419 395.108L237.419 394.769L234.452 396.481L234.452 396.821L234.452 397.161L237.419 395.448L237.419 395.108ZM234.452 396.821L234.747 396.651L234.747 386.064L234.452 386.234L234.158 386.404L234.158 396.991L234.452 396.821ZM234.452 386.234L234.452 386.574L237.419 384.861L237.419 384.521L237.419 384.182L234.452 385.895L234.452 386.234ZM237.419 384.521L237.125 384.691L237.125 395.278L237.419 395.108L237.713 394.938L237.713 384.351L237.419 384.521Z" fill="#2C3242" mask="url(#path-36-inside-3_450_10732)"/>
<mask id="path-38-inside-4_450_10732" fill="white">
<path d="M37.3535 454.78C57.9822 442.87 91.428 442.87 112.057 454.78C114.276 456.061 116.256 457.429 117.998 458.864H127.516V475.704C127.806 483.721 122.653 491.792 112.057 497.91C91.4281 509.82 57.9822 509.82 37.3535 497.91C26.9156 491.883 21.7597 483.962 21.8848 476.064H21.8789V458.864H31.4121C33.154 457.429 35.134 456.061 37.3535 454.78Z"/>
</mask>
<path d="M37.3535 454.78C57.9822 442.87 91.428 442.87 112.057 454.78C114.276 456.061 116.256 457.429 117.998 458.864H127.516V475.704C127.806 483.721 122.653 491.792 112.057 497.91C91.4281 509.82 57.9822 509.82 37.3535 497.91C26.9156 491.883 21.7597 483.962 21.8848 476.064H21.8789V458.864H31.4121C33.154 457.429 35.134 456.061 37.3535 454.78Z" fill="#E6F9F4"/>
<path d="M37.3535 454.78L37.0528 454.259L37.0528 454.259L37.3535 454.78ZM112.057 454.78L112.357 454.259V454.259L112.057 454.78ZM117.998 458.864L117.616 459.328L117.782 459.465H117.998V458.864ZM127.516 458.864H128.117V458.262H127.516V458.864ZM127.516 475.704H126.914V475.715L126.915 475.725L127.516 475.704ZM112.057 497.91L112.357 498.431V498.431L112.057 497.91ZM37.3535 497.91L37.0528 498.431H37.0528L37.3535 497.91ZM21.8848 476.064L22.4862 476.074L22.4958 475.463H21.8848V476.064ZM21.8789 476.064H21.2774V476.666H21.8789V476.064ZM21.8789 458.864V458.262H21.2774V458.864H21.8789ZM31.4121 458.864V459.465H31.6279L31.7944 459.328L31.4121 458.864ZM37.3535 454.78L37.6542 455.301C47.8556 449.411 61.2641 446.449 74.7051 446.449C88.1461 446.449 101.555 449.411 111.756 455.301L112.057 454.78L112.357 454.259C101.93 448.239 88.3013 445.246 74.7051 445.246C61.1089 445.246 47.4801 448.239 37.0528 454.259L37.3535 454.78ZM112.057 454.78L111.756 455.301C113.949 456.567 115.901 457.917 117.616 459.328L117.998 458.864L118.38 458.4C116.611 456.942 114.603 455.556 112.357 454.259L112.057 454.78ZM117.998 458.864V459.465H127.516V458.864V458.262H117.998V458.864ZM127.516 458.864H126.914V475.704H127.516H128.117V458.864H127.516ZM127.516 475.704L126.915 475.725C127.194 483.441 122.24 491.336 111.756 497.389L112.057 497.91L112.357 498.431C123.066 492.248 128.418 484.001 128.117 475.682L127.516 475.704ZM112.057 497.91L111.756 497.389C101.555 503.279 88.1462 506.241 74.7051 506.241C61.2641 506.241 47.8557 503.279 37.6542 497.389L37.3535 497.91L37.0528 498.431C47.4801 504.451 61.1089 507.444 74.7051 507.444C88.3014 507.444 101.93 504.451 112.357 498.431L112.057 497.91ZM37.3535 497.91L37.6542 497.389C27.3272 491.427 22.3658 483.676 22.4862 476.074L21.8848 476.064L21.2834 476.055C21.1537 484.248 26.504 492.34 37.0528 498.431L37.3535 497.91ZM21.8848 476.064V475.463H21.8789V476.064V476.666H21.8848V476.064ZM21.8789 476.064H22.4804V458.864H21.8789H21.2774V476.064H21.8789ZM21.8789 458.864V459.465H31.4121V458.864V458.262H21.8789V458.864ZM31.4121 458.864L31.7944 459.328C33.5087 457.917 35.461 456.567 37.6542 455.301L37.3535 454.78L37.0528 454.259C34.807 455.556 32.7994 456.942 31.0298 458.4L31.4121 458.864Z" fill="#299E9B" mask="url(#path-38-inside-4_450_10732)"/>
<mask id="mask3_450_10732" style="mask-type:alpha" maskUnits="userSpaceOnUse" x="21" y="445" width="107" height="62">
<path d="M37.3535 454.78C57.9822 442.87 91.428 442.87 112.057 454.78C112.572 455.077 113.073 455.382 113.562 455.689H127.516V475.704C127.806 483.721 122.653 491.792 112.057 497.91C91.4281 509.82 57.9822 509.82 37.3535 497.91C26.9165 491.884 21.7606 483.964 21.8848 476.066H21.8789V455.689H35.8467C36.3365 455.382 36.8379 455.078 37.3535 454.78Z" fill="#F8FAFA"/>
</mask>
<g mask="url(#mask3_450_10732)">
<line x1="127.441" y1="459.025" x2="127.441" y2="507.589" stroke="#299E9B" stroke-width="0.601467"/>
<line x1="117.871" y1="451.553" x2="117.871" y2="507.248" stroke="#299E9B" stroke-width="0.601467"/>
<line x1="123.578" y1="451.553" x2="123.578" y2="507.248" stroke="#299E9B" stroke-width="0.601467"/>
<line x1="26.0234" y1="451.553" x2="26.0234" y2="507.248" stroke="#299E9B" stroke-width="0.601467"/>
<line x1="108.301" y1="451.553" x2="108.301" y2="507.248" stroke="#299E9B" stroke-width="0.601467"/>
<line x1="98.7304" y1="451.553" x2="98.7304" y2="507.248" stroke="#299E9B" stroke-width="0.601467"/>
<line x1="89.164" y1="451.553" x2="89.164" y2="507.248" stroke="#299E9B" stroke-width="0.601467"/>
<line x1="79.5898" y1="451.553" x2="79.5898" y2="507.248" stroke="#299E9B" stroke-width="0.601467"/>
<line x1="70.0312" y1="451.553" x2="70.0312" y2="507.248" stroke="#299E9B" stroke-width="0.601467"/>
<line x1="60.457" y1="451.553" x2="60.457" y2="507.248" stroke="#299E9B" stroke-width="0.601467"/>
<line x1="50.8906" y1="451.553" x2="50.8906" y2="507.248" stroke="#299E9B" stroke-width="0.601467"/>
<line x1="41.3203" y1="451.553" x2="41.3203" y2="507.248" stroke="#299E9B" stroke-width="0.601467"/>
<line x1="31.75" y1="451.553" x2="31.75" y2="507.248" stroke="#299E9B" stroke-width="0.601467"/>
<line x1="22.1796" y1="459.025" x2="22.1796" y2="507.589" stroke="#299E9B" stroke-width="0.601467"/>
</g>
<circle cx="43.1298" cy="43.1298" r="42.96" transform="matrix(0.866025 0.5 -0.866025 0.5 74.7031 415.556)" fill="#E6F9F4" stroke="#299E9B" stroke-width="0.339605"/>
<mask id="path-56-inside-5_450_10732" fill="white">
<path d="M46.9785 436.73C67.6072 424.82 101.053 424.82 121.682 436.73C123.903 438.012 125.883 439.381 127.626 440.816H137.141V457.653C137.431 465.671 132.278 473.741 121.682 479.859C101.053 491.769 67.6072 491.769 46.9785 479.859C36.5417 473.834 31.3858 465.914 31.5098 458.017H31.5039V440.816H41.0342C42.7768 439.381 44.7577 438.012 46.9785 436.73Z"/>
</mask>
<path d="M46.9785 436.73C67.6072 424.82 101.053 424.82 121.682 436.73C123.903 438.012 125.883 439.381 127.626 440.816H137.141V457.653C137.431 465.671 132.278 473.741 121.682 479.859C101.053 491.769 67.6072 491.769 46.9785 479.859C36.5417 473.834 31.3858 465.914 31.5098 458.017H31.5039V440.816H41.0342C42.7768 439.381 44.7577 438.012 46.9785 436.73Z" fill="#DAEFFF"/>
<path d="M46.9785 436.73L46.8087 436.435L46.8087 436.435L46.9785 436.73ZM121.682 436.73L121.851 436.435L121.851 436.435L121.682 436.73ZM127.626 440.816L127.41 441.079L127.504 441.156H127.626V440.816ZM137.141 440.816H137.48V440.477H137.141V440.816ZM137.141 457.653H136.801L136.801 457.666L137.141 457.653ZM121.682 479.859L121.851 480.153H121.851L121.682 479.859ZM46.9785 479.859L46.8087 480.153H46.8087L46.9785 479.859ZM31.5098 458.017L31.8493 458.022L31.8547 457.677H31.5098V458.017ZM31.5039 458.017H31.1643V458.356H31.5039V458.017ZM31.5039 440.816V440.477H31.1643V440.816H31.5039ZM41.0342 440.816V441.156H41.156L41.2501 441.079L41.0342 440.816ZM46.9785 436.73L47.1483 437.024C57.3989 431.106 70.8553 428.137 84.3301 428.137C97.8049 428.137 111.261 431.105 121.512 437.024L121.682 436.73L121.851 436.435C111.473 430.444 97.8926 427.457 84.3301 427.458C70.7677 427.458 57.1868 430.444 46.8087 436.435L46.9785 436.73ZM121.682 436.73L121.512 437.024C123.718 438.297 125.683 439.656 127.41 441.079L127.626 440.816L127.842 440.554C126.084 439.106 124.087 437.726 121.851 436.435L121.682 436.73ZM127.626 440.816V441.156H137.141V440.816V440.477H127.626V440.816ZM137.141 440.816H136.801V457.653H137.141H137.48V440.816H137.141ZM137.141 457.653L136.801 457.666C137.085 465.512 132.045 473.484 121.512 479.565L121.682 479.859L121.851 480.153C132.512 473.999 137.776 465.829 137.48 457.641L137.141 457.653ZM121.682 479.859L121.512 479.565C111.261 485.483 97.8049 488.452 84.3301 488.452C70.8553 488.452 57.3989 485.483 47.1483 479.565L46.9785 479.859L46.8087 480.153C57.1868 486.145 70.7677 489.131 84.3301 489.131C97.8925 489.131 111.473 486.145 121.851 480.153L121.682 479.859ZM46.9785 479.859L47.1483 479.565C36.7741 473.576 31.728 465.752 31.8493 458.022L31.5098 458.017L31.1702 458.011C31.0436 466.076 36.3093 474.092 46.8087 480.153L46.9785 479.859ZM31.5098 458.017V457.677H31.5039V458.017V458.356H31.5098V458.017ZM31.5039 458.017H31.8435V440.816H31.5039H31.1643V458.017H31.5039ZM31.5039 440.816V441.156H41.0342V440.816V440.477H31.5039V440.816ZM41.0342 440.816L41.2501 441.079C42.9771 439.656 44.9424 438.297 47.1483 437.024L46.9785 436.73L46.8087 436.435C44.573 437.726 42.5765 439.106 40.8183 440.554L41.0342 440.816Z" fill="#55A5DF" mask="url(#path-56-inside-5_450_10732)"/>
<mask id="mask4_450_10732" style="mask-type:alpha" maskUnits="userSpaceOnUse" x="31" y="427" width="107" height="62">
<path d="M46.9785 436.73C67.6072 424.82 101.053 424.82 121.682 436.73C122.198 437.028 122.701 437.333 123.191 437.641H137.141V457.653C137.431 465.671 132.278 473.741 121.682 479.859C101.053 491.769 67.6072 491.769 46.9785 479.859C36.5417 473.834 31.3858 465.914 31.5098 458.017H31.5039V437.641H45.4678C45.9587 437.333 46.4617 437.028 46.9785 436.73Z" fill="#F8FAFA"/>
</mask>
<g mask="url(#mask4_450_10732)">
<line x1="137.07" y1="440.975" x2="137.07" y2="489.538" stroke="#55A5DF" stroke-width="0.601467"/>
<line x1="127.5" y1="433.504" x2="127.5" y2="489.199" stroke="#55A5DF" stroke-width="0.601467"/>
<line x1="133.207" y1="433.504" x2="133.207" y2="489.199" stroke="#55A5DF" stroke-width="0.601467"/>
<line x1="35.6523" y1="433.504" x2="35.6523" y2="489.199" stroke="#55A5DF" stroke-width="0.601467"/>
<line x1="117.93" y1="433.504" x2="117.93" y2="489.199" stroke="#55A5DF" stroke-width="0.601467"/>
<line x1="108.359" y1="433.504" x2="108.359" y2="489.199" stroke="#55A5DF" stroke-width="0.601467"/>
<line x1="98.789" y1="433.504" x2="98.789" y2="489.199" stroke="#55A5DF" stroke-width="0.601467"/>
<line x1="89.2226" y1="433.504" x2="89.2226" y2="489.199" stroke="#55A5DF" stroke-width="0.601467"/>
<line x1="79.6562" y1="433.504" x2="79.6562" y2="489.199" stroke="#55A5DF" stroke-width="0.601467"/>
<line x1="70.0859" y1="433.504" x2="70.0859" y2="489.199" stroke="#55A5DF" stroke-width="0.601467"/>
<line x1="60.5195" y1="433.504" x2="60.5195" y2="489.199" stroke="#55A5DF" stroke-width="0.601467"/>
<line x1="50.9453" y1="433.504" x2="50.9453" y2="489.199" stroke="#55A5DF" stroke-width="0.601467"/>
<line x1="41.3789" y1="433.504" x2="41.3789" y2="489.199" stroke="#55A5DF" stroke-width="0.601467"/>
<line x1="31.8085" y1="440.975" x2="31.8085" y2="489.538" stroke="#55A5DF" stroke-width="0.601467"/>
</g>
<circle cx="43.1298" cy="43.1298" r="42.8291" transform="matrix(0.866025 0.5 -0.866025 0.5 84.332 397.505)" fill="#DAEFFF" stroke="#55A5DF" stroke-width="0.601467"/>
<mask id="mask5_450_10732" style="mask-type:alpha" maskUnits="userSpaceOnUse" x="142" y="3" width="133" height="120">
<path d="M142.919 34.5137L196.078 3.64697L274.359 48.9215L274.359 100.471L235.565 122.868L142.919 69.3806L142.919 34.5137Z" fill="#DCE8E6"/>
</mask>
<g mask="url(#mask5_450_10732)">
<path d="M209.294 27.4934C229.855 39.3644 247.857 67.5432 247.858 91.2542C247.858 100.933 245.397 109.927 240.735 114.406C237.006 117.035 233.113 119.373 230.151 121.054C228.67 121.895 227.422 122.572 226.544 123.038C226.106 123.271 225.76 123.451 225.524 123.573C225.405 123.635 225.314 123.681 225.253 123.712C225.243 123.717 225.234 123.721 225.226 123.725C225.208 123.707 225.187 123.686 225.163 123.662C225.065 123.564 224.919 123.416 224.729 123.223C224.349 122.838 223.792 122.269 223.082 121.537C221.662 120.072 219.634 117.953 217.2 115.335C212.332 110.1 205.842 102.872 199.353 94.9016C192.863 86.9297 186.38 78.2224 181.522 70.0276C176.66 61.826 173.448 54.178 173.448 48.2937C173.448 45.5049 173.163 41.9438 172.879 39.0842C172.736 37.6537 172.594 36.397 172.487 35.4978C172.434 35.0484 172.39 34.6881 172.359 34.4402C172.343 34.3162 172.331 34.2195 172.322 34.1545C172.322 34.1505 172.321 34.1466 172.321 34.1428L182.844 26.823C182.845 26.8224 182.847 26.8228 182.849 26.822C182.856 26.8189 182.866 26.8149 182.879 26.8088C182.905 26.7966 182.944 26.778 182.996 26.7546C183.1 26.7078 183.254 26.6401 183.455 26.5564C183.856 26.3889 184.444 26.1568 185.19 25.9021C186.682 25.3927 188.804 24.7904 191.321 24.4167C196.363 23.6688 202.972 23.8434 209.294 27.4934Z" fill="#FFECD6" stroke="#F08201" stroke-width="0.339605"/>
<mask id="mask6_450_10732" style="mask-type:alpha" maskUnits="userSpaceOnUse" x="171" y="23" width="78" height="101">
<path d="M209.297 27.4922C229.858 39.3632 247.859 67.5415 247.859 91.2524C247.859 100.929 245.138 110.21 240.474 114.691C236.745 117.319 232.919 119.586 230.023 121.196C228.575 122.001 227.359 122.641 226.506 123.081C226.08 123.3 225.744 123.469 225.515 123.583C225.401 123.641 225.312 123.684 225.253 123.713C225.245 123.717 225.237 123.721 225.229 123.724C225.211 123.706 225.189 123.685 225.165 123.661C225.067 123.562 224.921 123.414 224.731 123.222C224.351 122.836 223.794 122.268 223.085 121.536C221.665 120.071 219.637 117.952 217.203 115.334C212.334 110.098 205.844 102.87 199.355 94.8999C192.865 86.928 186.382 78.2206 181.524 70.0259C176.662 61.8245 173.451 54.1767 173.451 48.2925C173.45 45.8037 172.9 42.3909 172.353 39.6118C172.079 38.2201 171.805 36.983 171.599 36.0938C171.497 35.6491 171.411 35.2908 171.351 35.0439C171.322 34.9279 171.3 34.8364 171.284 34.772L182.726 26.8262L182.728 26.8247L182.766 26.8076C182.793 26.7956 182.833 26.7773 182.885 26.7544C182.991 26.7084 183.149 26.6423 183.354 26.5601C183.764 26.3954 184.364 26.1677 185.123 25.9175C186.641 25.417 188.796 24.8249 191.341 24.4585C196.437 23.7248 203.074 23.8997 209.297 27.4922Z" fill="#DCE8E6" stroke="#2C3242" stroke-width="0.339605"/>
</mask>
<g mask="url(#mask6_450_10732)">
<line x1="205.04" y1="50.3705" x2="228.332" y2="36.9228" stroke="#F08201" stroke-width="0.339605"/>
<line x1="198.767" y1="45.4086" x2="223.795" y2="30.9585" stroke="#F08201" stroke-width="0.339605"/>
<line x1="192.817" y1="40.8625" x2="216.109" y2="27.4148" stroke="#F08201" stroke-width="0.339605"/>
<line x1="186.7" y1="36.1078" x2="209.992" y2="22.6602" stroke="#F08201" stroke-width="0.339605"/>
<line x1="179.189" y1="34.1476" x2="202.481" y2="20.6999" stroke="#F08201" stroke-width="0.339605"/>
<line x1="209.794" y1="57.1637" x2="233.086" y2="43.7161" stroke="#F08201" stroke-width="0.339605"/>
<line x1="214.548" y1="63.955" x2="237.84" y2="50.5073" stroke="#F08201" stroke-width="0.339605"/>
<line x1="219.302" y1="70.7475" x2="242.594" y2="57.2998" stroke="#F08201" stroke-width="0.339605"/>
<line x1="224.056" y1="77.5397" x2="247.348" y2="64.092" stroke="#F08201" stroke-width="0.339605"/>
<line x1="228.814" y1="84.332" x2="252.106" y2="70.8843" stroke="#F08201" stroke-width="0.339605"/>
<line x1="232.888" y1="91.8022" x2="256.18" y2="78.3545" stroke="#F08201" stroke-width="0.339605"/>
<line x1="217.923" y1="112.211" x2="263.675" y2="85.7955" stroke="#F08201" stroke-width="0.339605"/>
<path d="M216.379 120.522L248.63 105.498" stroke="#F08201" stroke-width="0.339605"/>
</g>
<g clip-path="url(#clip0_450_10732)">
<path d="M163.685 47.7922C168.497 28.0914 187.825 25.4343 207.134 41.5857L208.053 42.3694C227.67 59.3871 239.607 89.4084 234.716 109.42L234.7 109.491C229.856 129.123 210.552 131.751 191.26 115.616L190.34 114.833C171.038 98.0859 159.168 68.7353 163.468 48.7375L163.685 47.7922Z" fill="#FFECD6" stroke="#F08201" stroke-width="0.339605"/>
<path d="M217.094 85.7653C218.638 80.7842 215.125 74.8411 210.029 68.8079L212.819 62.5857L208.722 58.2431L206.005 64.3014C204.929 63.1609 203.819 62.0138 202.717 60.8747L205.452 54.7772L201.358 50.4373L198.567 56.656C197.673 55.7326 196.795 54.8247 195.945 53.925L195.953 53.9051L190.304 47.9145L188.491 51.9606C188.491 51.9606 191.54 55.1138 191.467 55.112C193.126 56.8712 193.268 58.3352 193.079 59.2693L189.9 66.3579C190.014 66.4798 190.162 66.6425 190.321 66.8432L189.89 66.386L185.434 76.3139C185.144 76.7195 184.492 77.1639 183.332 75.9369C183.365 76.0354 180.355 72.7798 180.355 72.7798L177.512 76.4414L182.844 82.0928C183.836 83.1454 184.805 84.1956 185.76 85.2161L182.939 91.5121L187.031 95.8502L189.824 89.6246C190.937 90.8361 192.02 91.9969 193.082 93.1211L190.301 99.3169L194.398 103.659L197.216 97.3783C204.267 104.313 209.808 107.819 213.085 102.474C215.728 98.1713 214.243 93.4273 210.723 88.4142C213.6 89.8109 215.968 89.4148 217.093 85.7644L217.094 85.7653ZM205.327 93.1452C203.219 97.8494 194.751 88.0849 191.972 85.1423L195.713 76.8057C198.489 79.75 207.525 88.2387 205.328 93.1461L205.327 93.1452ZM208.697 79.3615C206.776 83.6386 199.737 75.4401 197.423 72.9882L200.815 65.4265C203.128 67.8784 210.699 74.8993 208.697 79.3615Z" fill="#F08201"/>
</g>
</g>
<g clip-path="url(#clip1_450_10732)">
<g clip-path="url(#clip2_450_10732)">
<path d="M56.505 425.506L57.3886 426.441L93.7158 447.423L94.4518 447.422L101.347 431.926L56.505 425.506Z" fill="#55A5DF"/>
<path d="M56.8314 425.317L67.948 451.216L94.7782 447.233L77.1461 437.05L56.8314 425.317Z" fill="#55A5DF"/>
<path d="M97.9356 448.81L97.9811 449.076L110.922 456.55L111.735 456.78L104.846 433.31L97.9356 448.81Z" fill="#55A5DF"/>
<path d="M111.52 456.904L97.7197 448.934L70.8945 452.919L111.52 456.904Z" fill="#55A5DF"/>
<path opacity="0.6" d="M94.8545 447.27L101.75 431.774L77.2227 437.086L94.8545 447.27Z" fill="#55A5DF"/>
<path opacity="0.7" d="M68.0161 451.256L94.8459 447.274L77.214 437.09L68.0161 451.256Z" fill="#55A5DF"/>
</g>
</g>
<mask id="path-100-inside-6_450_10732" fill="white">
<path d="M78.252 391.661C98.8807 379.751 132.327 379.751 152.955 391.661C155.175 392.943 157.155 394.311 158.897 395.746H168.414V412.594C168.7 420.608 163.548 428.675 152.955 434.791C132.326 446.701 98.8807 446.701 78.252 434.791C67.8147 428.765 62.6589 420.845 62.7832 412.947H62.7773V395.746H72.3086C74.0508 394.311 76.0318 392.943 78.252 391.661Z"/>
</mask>
<path d="M78.252 391.661C98.8807 379.751 132.327 379.751 152.955 391.661C155.175 392.943 157.155 394.311 158.897 395.746H168.414V412.594C168.7 420.608 163.548 428.675 152.955 434.791C132.326 446.701 98.8807 446.701 78.252 434.791C67.8147 428.765 62.6589 420.845 62.7832 412.947H62.7773V395.746H72.3086C74.0508 394.311 76.0318 392.943 78.252 391.661Z" fill="#FFECD6"/>
<path d="M78.252 391.661L77.9512 391.14L77.9512 391.14L78.252 391.661ZM152.955 391.661L153.256 391.14V391.14L152.955 391.661ZM158.897 395.746L158.515 396.21L158.682 396.347H158.897V395.746ZM168.414 395.746H169.016V395.144H168.414V395.746ZM168.414 412.594H167.813V412.604L167.813 412.615L168.414 412.594ZM152.955 434.791L153.256 435.312V435.312L152.955 434.791ZM78.252 434.791L77.9512 435.312L77.9512 435.312L78.252 434.791ZM62.7832 412.947L63.3846 412.956L63.3942 412.346H62.7832V412.947ZM62.7773 412.947H62.1759V413.548H62.7773V412.947ZM62.7773 395.746V395.144H62.1759V395.746H62.7773ZM72.3086 395.746V396.347H72.5244L72.6909 396.21L72.3086 395.746ZM78.252 391.661L78.5527 392.182C88.7541 386.292 102.163 383.33 115.604 383.33C129.045 383.33 142.453 386.292 152.654 392.182L152.955 391.661L153.256 391.14C142.829 385.12 129.2 382.127 115.604 382.127C102.007 382.127 88.3785 385.12 77.9512 391.14L78.252 391.661ZM152.955 391.661L152.654 392.182C154.848 393.448 156.801 394.798 158.515 396.21L158.897 395.746L159.28 395.282C157.51 393.824 155.502 392.437 153.256 391.14L152.955 391.661ZM158.897 395.746V396.347H168.414V395.746V395.144H158.897V395.746ZM168.414 395.746H167.813V412.594H168.414H169.016V395.746H168.414ZM168.414 412.594L167.813 412.615C168.088 420.327 163.135 428.219 152.654 434.27L152.955 434.791L153.256 435.312C163.961 429.131 169.312 420.888 169.015 412.572L168.414 412.594ZM152.955 434.791L152.654 434.27C142.453 440.16 129.045 443.122 115.604 443.122C102.163 443.122 88.7541 440.16 78.5527 434.27L78.252 434.791L77.9512 435.312C88.3785 441.332 102.007 444.325 115.604 444.325C129.2 444.325 142.829 441.332 153.256 435.312L152.955 434.791ZM78.252 434.791L78.5527 434.27C68.2263 428.308 63.2649 420.559 63.3846 412.956L62.7832 412.947L62.1818 412.938C62.0528 421.131 67.4032 429.222 77.9512 435.312L78.252 434.791ZM62.7832 412.947V412.346H62.7773V412.947V413.548H62.7832V412.947ZM62.7773 412.947H63.3788V395.746H62.7773H62.1759V412.947H62.7773ZM62.7773 395.746V396.347H72.3086V395.746V395.144H62.7773V395.746ZM72.3086 395.746L72.6909 396.21C74.4055 394.798 76.3588 393.448 78.5527 392.182L78.252 391.661L77.9512 391.14C75.7049 392.437 73.6962 393.824 71.9262 395.282L72.3086 395.746Z" fill="#F08201" mask="url(#path-100-inside-6_450_10732)"/>
<mask id="mask7_450_10732" style="mask-type:alpha" maskUnits="userSpaceOnUse" x="62" y="382" width="107" height="62">
<path d="M78.252 391.661C98.8807 379.751 132.327 379.751 152.955 391.661C153.47 391.958 153.971 392.263 154.461 392.57H168.414V412.594C168.7 420.608 163.548 428.675 152.955 434.791C132.326 446.701 98.8807 446.701 78.252 434.791C67.8143 428.765 62.6584 420.844 62.7832 412.946H62.7773V392.57H76.7451C77.2349 392.263 77.7364 391.959 78.252 391.661Z" fill="#F8FAFA"/>
</mask>
<g mask="url(#mask7_450_10732)">
<line x1="168.344" y1="395.907" x2="168.344" y2="444.471" stroke="#F08201" stroke-width="0.601467"/>
<line x1="158.773" y1="388.436" x2="158.773" y2="444.131" stroke="#F08201" stroke-width="0.601467"/>
<line x1="164.48" y1="388.436" x2="164.48" y2="444.131" stroke="#F08201" stroke-width="0.601467"/>
<line x1="66.9257" y1="388.436" x2="66.9257" y2="444.131" stroke="#F08201" stroke-width="0.601467"/>
<line x1="149.203" y1="388.436" x2="149.203" y2="444.131" stroke="#F08201" stroke-width="0.601467"/>
<line x1="139.637" y1="388.436" x2="139.637" y2="444.131" stroke="#F08201" stroke-width="0.601467"/>
<line x1="130.066" y1="388.436" x2="130.066" y2="444.131" stroke="#F08201" stroke-width="0.601467"/>
<line x1="120.5" y1="388.436" x2="120.5" y2="444.131" stroke="#F08201" stroke-width="0.601467"/>
<line x1="110.93" y1="388.436" x2="110.93" y2="444.131" stroke="#F08201" stroke-width="0.601467"/>
<line x1="101.359" y1="388.436" x2="101.359" y2="444.131" stroke="#F08201" stroke-width="0.601467"/>
<line x1="91.7929" y1="388.436" x2="91.7929" y2="444.131" stroke="#F08201" stroke-width="0.601467"/>
<line x1="82.2187" y1="388.436" x2="82.2187" y2="444.131" stroke="#F08201" stroke-width="0.601467"/>
<line x1="72.6523" y1="388.436" x2="72.6523" y2="444.131" stroke="#F08201" stroke-width="0.601467"/>
<line x1="63.0781" y1="395.907" x2="63.0781" y2="444.471" stroke="#F08201" stroke-width="0.601467"/>
</g>
<circle cx="43.1298" cy="43.1298" r="42.8291" transform="matrix(0.866025 0.5 -0.866025 0.5 115.609 352.439)" fill="#F8FAFA" stroke="#F08201" stroke-width="0.601467"/>
<path d="M207.164 457.875L207.164 504.373" stroke="#2C3242" stroke-width="0.601467"/>
<g clip-path="url(#clip3_450_10732)">
<path d="M160.084 380.113C174.969 394.36 167.131 412.789 142.578 421.274C118.035 429.754 86.0631 425.081 71.1802 410.833C56.2905 396.586 64.125 378.156 88.6718 369.674C113.223 361.19 145.196 365.865 160.082 380.113L160.084 380.113Z" fill="#FFECD6"/>
<path d="M130.719 383.598C127.191 379.783 120.314 379.855 112.571 381.246L108.593 375.738L102.805 377.11L106.679 382.474C105.159 382.834 103.616 383.22 102.085 383.604L98.1867 378.205L92.4033 379.576L96.378 385.083C95.1359 385.395 93.9153 385.7 92.716 385.985L92.7029 385.968L84.7209 387.859L87.3085 391.44C87.3085 391.44 91.5474 390.379 91.5093 390.442C93.8534 389.887 95.187 390.494 95.8989 391.122L100.431 397.398C100.593 397.36 100.807 397.314 101.06 397.276L100.45 397.421L106.796 406.213C107.002 406.665 107.06 407.449 105.424 407.839C105.525 407.86 101.217 408.836 101.217 408.836L102.96 413.113L110.491 411.327C111.893 410.996 113.282 410.683 114.638 410.368L118.665 415.939L124.445 414.57L120.466 409.057C122.065 408.7 123.606 408.343 125.105 407.987L129.065 413.474L134.851 412.102L130.837 406.54C140.332 403.911 146.116 400.876 143.137 395.383C140.742 390.959 135.909 389.877 129.831 390.417C132.469 388.63 133.307 386.388 130.718 383.599L130.719 383.598ZM131.225 397.431C134.234 401.594 121.591 404.038 117.669 404.969L112.34 397.587C116.263 396.658 128.087 393.089 131.227 397.43L131.225 397.431ZM121.012 387.655C123.746 391.443 113.166 393.434 109.898 394.209L105.064 387.514C108.332 386.739 118.16 383.703 121.012 387.655Z" fill="#F08201"/>
</g>
<rect x="0.260443" y="0.4511" width="24.2912" height="64.0733" transform="matrix(0.866025 0.5 -2.20305e-08 1 364.179 353.306)" fill="#DCE8E6" stroke="#2C3242" stroke-width="0.601467"/>
<rect x="0.520885" width="24.1897" height="24.1897" transform="matrix(0.866025 -0.5 0.866025 0.5 363.878 354.097)" fill="#F8FAFA" stroke="#2C3242" stroke-width="0.601467"/>
<rect x="0.260443" y="0.150367" width="24.1897" height="63.9765" transform="matrix(0.866025 -0.5 2.20305e-08 1 385.234 365.888)" fill="#DEBF1A" stroke="#2C3242" stroke-width="0.601467"/>
<rect x="0.260443" y="0.4511" width="24.0288" height="51.7639" transform="matrix(0.866025 0.5 -2.20305e-08 1 340.148 378.689)" fill="#DCE8E6" stroke="#2C3242" stroke-width="0.601467"/>
<rect x="0.520885" width="24.1897" height="24.1897" transform="matrix(0.866025 -0.5 0.866025 0.5 339.843 379.486)" fill="#F8FAFA" stroke="#2C3242" stroke-width="0.601467"/>
<rect x="0.147053" y="0.0849013" width="24.4516" height="51.62" transform="matrix(0.866025 -0.5 2.20305e-08 1 361.192 391.523)" fill="#DEBF1A" stroke="#2C3242" stroke-width="0.339605"/>
<rect x="0.260443" y="0.4511" width="24.3171" height="40.0082" transform="matrix(0.866025 0.5 -2.20305e-08 1 316.117 403.519)" fill="#DCE8E6" stroke="#2C3242" stroke-width="0.601467"/>
<rect x="0.520885" width="24.1897" height="24.1897" transform="matrix(0.866025 -0.5 0.866025 0.5 315.812 404.303)" fill="#F8FAFA" stroke="#2C3242" stroke-width="0.601467"/>
<rect x="0.260443" y="0.150367" width="24.1897" height="39.8969" transform="matrix(0.866025 -0.5 2.20305e-08 1 337.172 416.117)" fill="#DEBF1A" stroke="#2C3242" stroke-width="0.601467"/>
<rect x="0.260443" y="0.4511" width="21.0635" height="106.12" transform="matrix(0.866025 0.5 -2.20305e-08 1 231.519 219.731)" fill="#DCE8E6" stroke="#2C3242" stroke-width="0.601467"/>
<rect x="0.520885" width="77.2116" height="21.0824" transform="matrix(0.866025 -0.5 0.866025 0.5 231.394 220.646)" fill="#F8FAFA" stroke="#2C3242" stroke-width="0.601467"/>
<rect x="0.260443" y="0.150367" width="77.2116" height="105.945" transform="matrix(0.866025 -0.5 2.20305e-08 1 249.902 230.974)" fill="#DCE8E6" stroke="#2C3242" stroke-width="0.601467"/>
<rect x="-0.147053" y="-0.0849013" width="46.6469" height="52.8862" transform="matrix(0.866025 -0.5 2.20305e-08 1 263.492 247.137)" fill="#DCE8E6" stroke="#2C3242" stroke-width="0.339605"/>
<mask id="mask8_450_10732" style="mask-type:alpha" maskUnits="userSpaceOnUse" x="263" y="224" width="41" height="76">
<rect x="0.147053" y="0.0849013" width="45.9677" height="52.207" transform="matrix(0.866025 -0.5 2.20305e-08 1 263.531 247.284)" fill="#DCE8E6" stroke="#2C3242" stroke-width="0.339605"/>
</mask>
<g mask="url(#mask8_450_10732)">
<rect x="-1.0121e-08" y="0.169803" width="9.84855" height="46.3744" transform="matrix(0.866025 0.5 -0.866025 0.5 295.596 271.935)" fill="#F8FAFA" stroke="#2C3242" stroke-width="0.339605"/>
<rect x="0.147053" y="0.254704" width="9.84855" height="53.1666" transform="matrix(0.866025 0.5 -2.20305e-08 1 295.469 218.799)" fill="#2C3242" stroke="#2C3242" stroke-width="0.339605"/>
<rect opacity="0.3" x="-0.147053" y="-0.0849013" width="46.6469" height="52.8862" transform="matrix(0.866025 -0.5 2.20305e-08 1 263.492 247.137)" fill="#2C3242" stroke="#DCE8E6" stroke-width="0.339605"/>
<rect x="-0.124144" y="-0.0716746" width="11.1691" height="12.9639" transform="matrix(0.866025 -0.5 2.20305e-08 1 291.097 264.449)" fill="#DEBF1A" stroke="#DCE8E6" stroke-width="0.286698"/>
<g clip-path="url(#clip4_450_10732)">
<g clip-path="url(#clip5_450_10732)">
<path d="M295.55 264.009L295.504 264.218L295.504 269.492L295.55 269.519L297.67 266.848L295.55 264.009Z" fill="white"/>
<path d="M295.592 263.986L293.473 269.272L295.592 269.495L295.592 266.935L295.592 263.986Z" fill="white"/>
<path d="M295.62 269.907L295.594 269.959L295.594 271.838L295.62 271.911L297.741 267.236L295.62 269.907Z" fill="white"/>
<path d="M295.592 271.926L295.592 269.922L293.473 269.7L295.592 271.926Z" fill="white"/>
<path opacity="0.6" d="M295.594 269.505L297.713 266.833L295.594 266.945L295.594 269.505Z" fill="white"/>
<path opacity="0.7" d="M293.473 269.282L295.592 269.505L295.592 266.945L293.473 269.282Z" fill="white"/>
</g>
</g>
<rect x="-0.248288" width="11.4586" height="11.3371" transform="matrix(0.866025 -0.5 0.866025 0.5 281.115 258.769)" fill="#2C3242" stroke="#DCE8E6" stroke-width="0.286698"/>
<rect x="-0.124144" y="-0.215024" width="11.4586" height="12.9639" transform="matrix(0.866025 0.5 -2.20305e-08 1 281.132 258.955)" fill="#2C3242" stroke="#DCE8E6" stroke-width="0.286698"/>
<rect x="-0.124144" y="-0.0716746" width="11.1691" height="12.9639" transform="matrix(0.866025 -0.5 2.20305e-08 1 291.097 245.203)" fill="#DEBF1A" stroke="#DCE8E6" stroke-width="0.286698"/>
<rect x="-0.248288" width="11.4586" height="11.3371" transform="matrix(0.866025 -0.5 0.866025 0.5 281.115 239.522)" fill="#2C3242" stroke="#DCE8E6" stroke-width="0.286698"/>
<rect x="-0.124144" y="-0.215024" width="11.4586" height="12.9639" transform="matrix(0.866025 0.5 -2.20305e-08 1 281.132 239.708)" fill="#2C3242" stroke="#DCE8E6" stroke-width="0.286698"/>
<rect x="-0.124144" y="-0.0716746" width="11.1691" height="12.9639" transform="matrix(0.866025 -0.5 2.20305e-08 1 275.46 272.87)" fill="#DEBF1A" stroke="#DCE8E6" stroke-width="0.286698"/>
<rect x="-0.248288" width="11.4586" height="11.3371" transform="matrix(0.866025 -0.5 0.866025 0.5 265.478 267.189)" fill="#2C3242" stroke="#DCE8E6" stroke-width="0.286698"/>
<rect x="-0.124144" y="-0.215024" width="11.4586" height="12.9639" transform="matrix(0.866025 0.5 -2.20305e-08 1 265.495 267.375)" fill="#2C3242" stroke="#DCE8E6" stroke-width="0.286698"/>
<rect x="-0.248288" width="11.4586" height="4.11951" transform="matrix(0.866025 -0.5 0.866025 0.5 265.478 247.943)" fill="#2C3242" stroke="#DCE8E6" stroke-width="0.286698"/>
<rect x="-0.124144" y="-0.215024" width="4.24101" height="12.9639" transform="matrix(0.866025 0.5 -2.20305e-08 1 265.495 248.129)" fill="#2C3242" stroke="#DCE8E6" stroke-width="0.286698"/>
<rect x="-0.124144" y="-0.0716746" width="11.1691" height="12.9639" transform="matrix(0.866025 -0.5 2.20305e-08 1 269.194 250.091)" fill="#FFECD6" stroke="#FFECD6" stroke-width="0.286698"/>
<path d="M276.11 251.68C276.323 250.752 275.838 250.496 275.135 250.479L275.52 249.183L274.954 249.239L274.579 250.5C274.431 250.515 274.278 250.534 274.126 250.553L274.503 249.284L273.938 249.339L273.553 250.634C273.429 250.65 273.308 250.665 273.191 250.677L273.192 250.673L272.412 250.749L272.162 251.591C272.162 251.591 272.583 251.539 272.573 251.55C272.802 251.528 272.821 251.706 272.795 251.864L272.357 253.34C272.372 253.338 272.393 253.337 272.415 253.339L272.355 253.345L271.74 255.413C271.7 255.514 271.61 255.678 271.45 255.695C271.455 255.703 271.039 255.735 271.039 255.735L270.647 256.688L271.383 256.615C271.52 256.602 271.653 256.592 271.785 256.58L271.396 257.891L271.961 257.835L272.346 256.539C272.5 256.528 272.649 256.515 272.796 256.5L272.412 257.791L272.977 257.735L273.366 256.427C274.339 256.257 275.104 255.857 275.557 254.605C275.921 253.596 275.716 253.182 275.231 253.054C275.628 252.789 275.954 252.358 276.11 251.68L276.11 251.68ZM274.486 254.559C274.195 255.538 273.026 255.545 272.643 255.584L273.159 253.848C273.542 253.81 274.789 253.538 274.486 254.559L274.486 254.559ZM274.951 252.136C274.686 253.027 273.714 253.022 273.395 253.053L273.863 251.479C274.182 251.447 275.227 251.207 274.951 252.136Z" fill="#F08201"/>
</g>
<mask id="mask9_450_10732" style="mask-type:alpha" maskUnits="userSpaceOnUse" x="65" y="252" width="130" height="109">
<path d="M87.8644 252.172L194.26 313.599L194.26 350.163L102.071 360.183L65.957 316.206L87.8644 288.736L87.8644 252.172Z" fill="#DCE8E6"/>
</mask>
<g mask="url(#mask9_450_10732)">
<mask id="path-160-inside-7_450_10732" fill="white">
<path d="M101.235 293.232C121.864 281.322 155.31 281.322 175.938 293.232C178.158 294.514 180.139 295.882 181.881 297.317H191.397V314.156C191.688 322.173 186.535 330.244 175.938 336.362C155.31 348.272 121.864 348.271 101.235 336.362C90.7982 330.336 85.6424 322.415 85.7666 314.518H85.7617V297.317H95.293C97.0351 295.882 99.0154 294.513 101.235 293.232Z"/>
</mask>
<path d="M101.235 293.232C121.864 281.322 155.31 281.322 175.938 293.232C178.158 294.514 180.139 295.882 181.881 297.317H191.397V314.156C191.688 322.173 186.535 330.244 175.938 336.362C155.31 348.272 121.864 348.271 101.235 336.362C90.7982 330.336 85.6424 322.415 85.7666 314.518H85.7617V297.317H95.293C97.0351 295.882 99.0154 294.513 101.235 293.232Z" fill="#FFECD6"/>
<path d="M101.235 293.232L100.935 292.711L100.935 292.711L101.235 293.232ZM175.938 293.232L176.239 292.711V292.711L175.938 293.232ZM181.881 297.317L181.499 297.781L181.665 297.918H181.881V297.317ZM191.397 297.317H191.999V296.715H191.397V297.317ZM191.397 314.156H190.796V314.166L190.796 314.177L191.397 314.156ZM175.938 336.362L176.239 336.883L175.938 336.362ZM101.235 336.362L100.935 336.883H100.935L101.235 336.362ZM85.7666 314.518L86.368 314.527L86.3776 313.916H85.7666V314.518ZM85.7617 314.518H85.1603V315.119H85.7617V314.518ZM85.7617 297.317V296.715H85.1603V297.317H85.7617ZM95.293 297.317V297.918H95.5087L95.6753 297.781L95.293 297.317ZM101.235 293.232L101.536 293.753C111.737 287.863 125.146 284.901 138.587 284.901C152.028 284.901 165.436 287.863 175.638 293.753L175.938 293.232L176.239 292.711C165.812 286.691 152.183 283.698 138.587 283.698C124.991 283.698 111.362 286.691 100.935 292.711L101.235 293.232ZM175.938 293.232L175.638 293.753C177.831 295.019 179.784 296.369 181.499 297.781L181.881 297.317L182.263 296.852C180.493 295.395 178.486 294.008 176.239 292.711L175.938 293.232ZM181.881 297.317V297.918H191.397V297.317V296.715H181.881V297.317ZM191.397 297.317H190.796V314.156H191.397H191.999V297.317H191.397ZM191.397 314.156L190.796 314.177C191.076 321.893 186.122 329.788 175.638 335.841L175.938 336.362L176.239 336.883C186.948 330.7 192.3 322.453 191.999 314.134L191.397 314.156ZM175.938 336.362L175.638 335.841C165.436 341.731 152.028 344.693 138.587 344.693C125.146 344.693 111.737 341.73 101.536 335.841L101.235 336.362L100.935 336.883C111.362 342.903 124.991 345.896 138.587 345.896C152.183 345.896 165.812 342.903 176.239 336.883L175.938 336.362ZM101.235 336.362L101.536 335.841C91.2098 329.879 86.2484 322.129 86.368 314.527L85.7666 314.518L85.1652 314.508C85.0363 322.702 90.3867 330.793 100.935 336.883L101.235 336.362ZM85.7666 314.518V313.916H85.7617V314.518V315.119H85.7666V314.518ZM85.7617 314.518H86.3632V297.317H85.7617H85.1603V314.518H85.7617ZM85.7617 297.317V297.918H95.293V297.317V296.715H85.7617V297.317ZM95.293 297.317L95.6753 297.781C97.3898 296.369 99.3424 295.019 101.536 293.753L101.235 293.232L100.935 292.711C98.6883 294.008 96.6804 295.395 94.9106 296.852L95.293 297.317Z" fill="#F08201" mask="url(#path-160-inside-7_450_10732)"/>
<mask id="mask10_450_10732" style="mask-type:alpha" maskUnits="userSpaceOnUse" x="85" y="284" width="107" height="62">
<path d="M101.235 293.232C121.864 281.322 155.31 281.322 175.938 293.232C176.454 293.529 176.955 293.834 177.444 294.141H191.397V314.156C191.688 322.173 186.535 330.244 175.938 336.362C155.31 348.272 121.864 348.271 101.235 336.362C90.7982 330.336 85.6424 322.415 85.7666 314.518H85.7617V294.141H99.7285C100.218 293.834 100.72 293.529 101.235 293.232Z" fill="#F8FAFA"/>
</mask>
<g mask="url(#mask10_450_10732)">
<line x1="191.324" y1="297.477" x2="191.324" y2="346.041" stroke="#F08201" stroke-width="0.601467"/>
<line x1="181.758" y1="290.006" x2="181.758" y2="345.701" stroke="#F08201" stroke-width="0.601467"/>
<line x1="187.465" y1="290.006" x2="187.465" y2="345.701" stroke="#F08201" stroke-width="0.601467"/>
<line x1="89.9101" y1="290.006" x2="89.9101" y2="345.701" stroke="#F08201" stroke-width="0.601467"/>
<line x1="172.187" y1="290.006" x2="172.187" y2="345.701" stroke="#F08201" stroke-width="0.601467"/>
<line x1="162.621" y1="290.006" x2="162.621" y2="345.701" stroke="#F08201" stroke-width="0.601467"/>
<line x1="153.051" y1="290.006" x2="153.051" y2="345.701" stroke="#F08201" stroke-width="0.601467"/>
<line x1="143.484" y1="290.006" x2="143.484" y2="345.701" stroke="#F08201" stroke-width="0.601467"/>
<line x1="133.914" y1="290.006" x2="133.914" y2="345.701" stroke="#F08201" stroke-width="0.601467"/>
<line x1="124.344" y1="290.006" x2="124.344" y2="345.701" stroke="#F08201" stroke-width="0.601467"/>
<line x1="114.773" y1="290.006" x2="114.773" y2="345.701" stroke="#F08201" stroke-width="0.601467"/>
<line x1="105.203" y1="290.006" x2="105.203" y2="345.701" stroke="#F08201" stroke-width="0.601467"/>
<line x1="95.6367" y1="290.006" x2="95.6367" y2="345.701" stroke="#F08201" stroke-width="0.601467"/>
<line x1="86.0625" y1="297.477" x2="86.0625" y2="346.041" stroke="#F08201" stroke-width="0.601467"/>
</g>
<circle cx="43.1298" cy="43.1298" r="42.8291" transform="matrix(0.866025 0.5 -0.866025 0.5 138.59 254.007)" fill="#F8FAFA" stroke="#F08201" stroke-width="0.601467"/>
<g clip-path="url(#clip6_450_10732)">
<path d="M183.052 281.678C197.938 295.925 190.1 314.354 165.547 322.839C141.004 331.319 109.032 326.646 94.149 312.398C79.2592 298.151 87.0937 279.722 111.641 271.24C136.192 262.755 168.165 267.43 183.051 281.678L183.052 281.678Z" fill="#FFECD6"/>
<path d="M153.688 285.163C150.16 281.349 143.283 281.42 135.54 282.811L131.561 277.303L125.774 278.676L129.647 284.039C128.128 284.399 126.585 284.785 125.053 285.169L121.155 279.77L115.372 281.141L119.347 286.649C118.105 286.96 116.884 287.266 115.685 287.55L115.672 287.534L107.69 289.424L110.277 293.005C110.277 293.005 114.516 291.945 114.478 292.007C116.822 291.452 118.156 292.059 118.868 292.687L123.4 298.963C123.562 298.925 123.776 298.879 124.028 298.841L123.419 298.986L129.764 307.778C129.97 308.23 130.029 309.014 128.392 309.404C128.494 309.425 124.186 310.401 124.186 310.401L125.929 314.679L133.46 312.893C134.862 312.561 136.251 312.248 137.607 311.933L141.634 317.505L147.414 316.135L143.435 310.622C145.034 310.265 146.575 309.908 148.074 309.552L152.034 315.04L157.82 313.668L153.806 308.106C163.3 305.476 169.085 302.441 166.106 296.949C163.711 292.524 158.878 291.442 152.8 291.982C155.438 290.195 156.276 287.954 153.687 285.164L153.688 285.163ZM154.194 298.996C157.202 303.159 144.56 305.603 140.638 306.534L135.309 299.152C139.232 298.223 151.056 294.654 154.195 298.995L154.194 298.996ZM143.981 289.22C146.714 293.008 136.135 294.999 132.867 295.774L128.033 289.079C131.301 288.304 141.128 285.269 143.981 289.22Z" fill="#F08201"/>
</g>
</g>
<mask id="path-181-inside-8_450_10732" fill="white">
<path d="M815.272 417.847H815.279C815.28 440.794 800.117 463.74 769.794 481.248C709.147 516.262 610.819 516.262 550.172 481.248C519.878 463.757 504.717 440.839 504.688 417.915H504.684V376.167H815.272V417.847Z"/>
</mask>
<path d="M815.272 417.847H815.279C815.28 440.794 800.117 463.74 769.794 481.248C709.147 516.262 610.819 516.262 550.172 481.248C519.878 463.757 504.717 440.839 504.688 417.915H504.684V376.167H815.272V417.847Z" fill="#DCE8E6"/>
<path d="M815.272 417.847H814.671V418.449H815.272V417.847ZM815.279 417.847L815.881 417.847V417.246H815.279V417.847ZM769.794 481.248L770.095 481.769V481.769L769.794 481.248ZM550.172 481.248L549.871 481.769L549.871 481.769L550.172 481.248ZM504.688 417.915L505.289 417.914L505.288 417.313H504.688V417.915ZM504.684 417.915H504.082V418.516H504.684V417.915ZM504.684 376.167V375.565H504.082V376.167H504.684ZM815.272 376.167H815.874V375.565H815.272V376.167ZM815.272 417.847V418.449H815.279V417.847V417.246H815.272V417.847ZM815.279 417.847L814.678 417.847C814.678 440.503 799.707 463.283 769.493 480.727L769.794 481.248L770.095 481.769C800.528 464.198 815.881 441.084 815.881 417.847L815.279 417.847ZM769.794 481.248L769.493 480.727C739.283 498.169 699.649 506.907 659.983 506.907C620.317 506.907 580.683 498.169 550.473 480.727L550.172 481.248L549.871 481.769C580.308 499.341 620.162 508.11 659.983 508.11C699.804 508.11 739.658 499.341 770.095 481.769L769.794 481.248ZM550.172 481.248L550.473 480.727C520.288 463.3 505.318 440.548 505.289 417.914L504.688 417.915L504.086 417.916C504.116 441.13 519.467 464.215 549.871 481.769L550.172 481.248ZM504.688 417.915V417.313H504.684V417.915V418.516H504.688V417.915ZM504.684 417.915H505.285V376.167H504.684H504.082V417.915H504.684ZM504.684 376.167V376.768H815.272V376.167V375.565H504.684V376.167ZM815.272 376.167H814.671V417.847H815.272H815.874V376.167H815.272Z" fill="#2C3242" mask="url(#path-181-inside-8_450_10732)"/>
<mask id="mask11_450_10732" style="mask-type:alpha" maskUnits="userSpaceOnUse" x="540" y="412" width="260" height="109">
<path d="M799.246 464.395V412.884C710.835 465.149 651.891 472.865 558.944 441.394L540.008 491.169C564.715 503.793 631.117 527.093 699.071 519.302C767.024 511.512 790.77 480.626 799.246 464.395Z" fill="black"/>
</mask>
<g mask="url(#mask11_450_10732)">
<mask id="path-184-inside-9_450_10732" fill="white">
<path d="M814.928 395.365C817.811 420.273 802.768 445.742 769.793 464.78C709.146 499.795 610.818 499.795 550.171 464.78C517.196 445.742 502.152 420.273 505.035 395.365C507.454 416.268 522.498 436.774 550.171 452.751C610.818 487.765 709.146 487.765 769.793 452.751C797.466 436.774 812.509 416.268 814.928 395.365Z"/>
</mask>
<path d="M814.928 395.365C817.811 420.273 802.768 445.742 769.793 464.78C709.146 499.795 610.818 499.795 550.171 464.78C517.196 445.742 502.152 420.273 505.035 395.365C507.454 416.268 522.498 436.774 550.171 452.751C610.818 487.765 709.146 487.765 769.793 452.751C797.466 436.774 812.509 416.268 814.928 395.365Z" fill="#DEBF1A"/>
<path d="M814.928 395.365L815.525 395.296L814.33 395.296L814.928 395.365ZM769.793 464.78L770.094 465.301V465.301L769.793 464.78ZM550.171 464.78L549.87 465.301V465.301L550.171 464.78ZM505.035 395.365L505.633 395.296L504.438 395.296L505.035 395.365ZM550.171 452.751L549.87 453.272L550.171 452.751ZM769.793 452.751L770.094 453.272L769.793 452.751ZM814.928 395.365L814.33 395.434C817.176 420.016 802.348 445.29 769.492 464.259L769.793 464.78L770.094 465.301C803.188 446.194 818.447 420.529 815.525 395.296L814.928 395.365ZM769.793 464.78L769.492 464.259C739.282 481.701 699.648 490.44 659.982 490.44C620.316 490.44 580.682 481.701 550.472 464.259L550.171 464.78L549.87 465.301C580.307 482.874 620.161 491.643 659.982 491.643C699.803 491.643 739.657 482.874 770.094 465.301L769.793 464.78ZM550.171 464.78L550.472 464.259C517.616 445.29 502.787 420.016 505.633 395.434L505.035 395.365L504.438 395.296C501.517 420.529 516.776 446.194 549.87 465.301L550.171 464.78ZM505.035 395.365L504.438 395.434C506.886 416.589 522.097 437.237 549.87 453.272L550.171 452.751L550.472 452.23C522.9 436.311 508.023 415.946 505.633 395.296L505.035 395.365ZM550.171 452.751L549.87 453.272C580.307 470.844 620.161 479.613 659.982 479.613C699.803 479.613 739.657 470.844 770.094 453.272L769.793 452.751L769.492 452.23C739.282 469.672 699.648 478.41 659.982 478.41C620.316 478.41 580.682 469.672 550.472 452.23L550.171 452.751ZM769.793 452.751L770.094 453.272C797.867 437.237 813.077 416.589 815.525 395.434L814.928 395.365L814.33 395.296C811.94 415.946 797.064 436.311 769.492 452.23L769.793 452.751Z" fill="#2C3242" mask="url(#path-184-inside-9_450_10732)"/>
<mask id="path-186-inside-10_450_10732" fill="white">
<path d="M815.217 402.583C816.314 426.324 801.173 450.268 769.79 468.387C709.143 503.402 610.815 503.402 550.168 468.387C518.785 450.268 503.642 426.324 504.739 402.583C505.762 424.72 520.904 446.681 550.168 463.576C610.815 498.59 709.143 498.591 769.79 463.576C799.053 446.681 814.194 424.72 815.217 402.583Z"/>
</mask>
<path d="M815.217 402.583C816.314 426.324 801.173 450.268 769.79 468.387C709.143 503.402 610.815 503.402 550.168 468.387C518.785 450.268 503.642 426.324 504.739 402.583C505.762 424.72 520.904 446.681 550.168 463.576C610.815 498.59 709.143 498.591 769.79 463.576C799.053 446.681 814.194 424.72 815.217 402.583Z" fill="#F8FAFA"/>
<path d="M815.217 402.583L815.818 402.555L814.616 402.555L815.217 402.583ZM769.79 468.387L770.091 468.908L769.79 468.387ZM550.168 468.387L549.867 468.908V468.908L550.168 468.387ZM504.739 402.583L505.34 402.555L504.138 402.555L504.739 402.583ZM550.168 463.576L549.867 464.097L550.168 463.576ZM769.79 463.576L770.091 464.097L769.79 463.576ZM815.217 402.583L814.616 402.611C815.699 426.047 800.759 449.813 769.489 467.867L769.79 468.387L770.091 468.908C801.587 450.724 816.928 426.601 815.818 402.555L815.217 402.583ZM769.79 468.387L769.489 467.867C739.279 485.309 699.645 494.047 659.979 494.047C620.313 494.047 580.679 485.309 550.469 467.867L550.168 468.387L549.867 468.908C580.304 486.481 620.158 495.25 659.979 495.25C699.8 495.25 739.654 486.481 770.091 468.908L769.79 468.387ZM550.168 468.387L550.469 467.867C519.199 449.813 504.257 426.047 505.34 402.611L504.739 402.583L504.138 402.555C503.027 426.601 518.371 450.724 549.867 468.908L550.168 468.387ZM504.739 402.583L504.138 402.611C505.174 425.024 520.498 447.14 549.867 464.097L550.168 463.576L550.469 463.055C521.311 446.221 506.35 424.417 505.34 402.555L504.739 402.583ZM550.168 463.576L549.867 464.097C580.304 481.669 620.158 490.438 659.979 490.438C699.8 490.438 739.654 481.669 770.091 464.097L769.79 463.576L769.489 463.055C739.279 480.497 699.645 489.235 659.979 489.235C620.313 489.235 580.679 480.497 550.469 463.055L550.168 463.576ZM769.79 463.576L770.091 464.097C799.46 447.14 814.782 425.024 815.818 402.611L815.217 402.583L814.616 402.555C813.606 424.417 798.647 446.221 769.489 463.055L769.79 463.576Z" fill="#2C3242" mask="url(#path-186-inside-10_450_10732)"/>
<path d="M798.734 430.215V444.658" stroke="#2C3242" stroke-width="0.601467"/>
</g>
<circle cx="126.799" cy="126.799" r="126.498" transform="matrix(0.866025 -0.5 0.866025 0.5 440.359 376.118)" fill="#F8FAFA" stroke="#2C3242" stroke-width="0.601467"/>
<circle cx="114.844" cy="114.844" r="114.543" transform="matrix(0.866025 -0.5 0.866025 0.5 461.07 373.711)" fill="#2C3242" stroke="#2C3242" stroke-width="0.601467"/>
<circle cx="107.685" cy="107.685" r="107.384" transform="matrix(0.866025 -0.5 0.866025 0.5 473.469 379.021)" fill="#F8FAFA" stroke="#2C3242" stroke-width="0.601467"/>
<circle cx="65.5914" cy="65.5914" r="65.2906" transform="matrix(0.866025 -0.5 0.866025 0.5 546.375 374.629)" fill="#2C3242" stroke="#2C3242" stroke-width="0.601467"/>
<mask id="path-193-inside-11_450_10732" fill="white">
<path d="M738.49 373.761H738.498C738.498 385.361 730.833 396.962 715.503 405.813C684.843 423.514 635.133 423.514 604.474 405.813C589.159 396.971 581.494 385.385 581.479 373.796H581.473V311.094H738.49V373.761Z"/>
</mask>
<path d="M738.49 373.761H738.498C738.498 385.361 730.833 396.962 715.503 405.813C684.843 423.514 635.133 423.514 604.474 405.813C589.159 396.971 581.494 385.385 581.479 373.796H581.473V311.094H738.49V373.761Z" fill="#DCE8E6"/>
<path d="M738.49 373.761H737.889V374.362H738.49V373.761ZM738.498 373.761L739.1 373.761V373.16H738.498V373.761ZM715.503 405.813L715.804 406.334L715.804 406.334L715.503 405.813ZM604.474 405.813L604.173 406.334L604.173 406.334L604.474 405.813ZM581.479 373.796L582.08 373.795L582.079 373.195H581.479V373.796ZM581.473 373.796H580.871V374.398H581.473V373.796ZM581.473 311.094V310.493H580.871V311.094H581.473ZM738.49 311.094H739.092V310.493H738.49V311.094ZM738.49 373.761V374.362H738.498V373.761V373.16H738.49V373.761ZM738.498 373.761L737.897 373.761C737.896 385.071 730.422 396.504 715.202 405.292L715.503 405.813L715.804 406.334C731.243 397.42 739.099 385.652 739.1 373.761L738.498 373.761ZM715.503 405.813L715.202 405.292C699.985 414.077 680.003 418.487 659.988 418.487C639.973 418.487 619.991 414.077 604.774 405.292L604.474 405.813L604.173 406.334C619.616 415.249 639.818 419.69 659.988 419.69C680.158 419.69 700.361 415.249 715.804 406.334L715.503 405.813ZM604.474 405.813L604.774 405.292C589.57 396.513 582.095 385.094 582.08 373.795L581.479 373.796L580.877 373.797C580.893 385.676 588.749 397.429 604.173 406.334L604.474 405.813ZM581.479 373.796V373.195H581.473V373.796V374.398H581.479V373.796ZM581.473 373.796H582.074V311.094H581.473H580.871V373.796H581.473ZM581.473 311.094V311.695H738.49V311.094V310.493H581.473V311.094ZM738.49 311.094H737.889V373.761H738.49H739.092V311.094H738.49Z" fill="#2C3242" mask="url(#path-193-inside-11_450_10732)"/>
<circle cx="64.103" cy="64.103" r="63.9678" transform="matrix(0.866025 -0.5 0.866025 0.5 548.953 304.546)" fill="#F8FAFA" stroke="#2C3242" stroke-width="0.270477"/>
<mask id="path-196-inside-12_450_10732" fill="white">
<path d="M643.801 225.211C653.363 219.69 668.866 219.69 678.428 225.211L734.305 257.472H787.287V293.458H787.173C787.355 297.208 784.969 300.991 780.012 303.853L678.562 362.425C669 367.946 653.496 367.946 643.934 362.425L542.35 303.775C537.428 300.933 535.04 297.182 535.186 293.458H535.18V257.472H587.923L643.801 225.211Z"/>
</mask>
<path d="M643.801 225.211C653.363 219.69 668.866 219.69 678.428 225.211L734.305 257.472H787.287V293.458H787.173C787.355 297.208 784.969 300.991 780.012 303.853L678.562 362.425C669 367.946 653.496 367.946 643.934 362.425L542.35 303.775C537.428 300.933 535.04 297.182 535.186 293.458H535.18V257.472H587.923L643.801 225.211Z" fill="#DCE8E6"/>
<path d="M643.801 225.211L644.102 225.732V225.732L643.801 225.211ZM678.428 225.211L678.729 224.69V224.69L678.428 225.211ZM734.305 257.472L734.004 257.993L734.144 258.073H734.305V257.472ZM787.287 257.472H787.888V256.87H787.287V257.472ZM787.287 293.458V294.06H787.888V293.458H787.287ZM787.173 293.458V292.857H786.542L786.573 293.487L787.173 293.458ZM780.012 303.853L780.313 304.374L780.012 303.853ZM678.562 362.425L678.261 361.904L678.562 362.425ZM643.934 362.425L644.235 361.904L643.934 362.425ZM542.35 303.775L542.049 304.296H542.049L542.35 303.775ZM535.186 293.458L535.787 293.482L535.811 292.857H535.186V293.458ZM535.18 293.458H534.579V294.06H535.18V293.458ZM535.18 257.472V256.87H534.579V257.472H535.18ZM587.923 257.472V258.073H588.084L588.224 257.993L587.923 257.472ZM643.801 225.211L644.102 225.732C648.77 223.037 654.926 221.672 661.115 221.672C667.303 221.672 673.459 223.037 678.127 225.732L678.428 225.211L678.729 224.69C673.835 221.865 667.458 220.469 661.115 220.469C654.771 220.469 648.394 221.865 643.5 224.69L643.801 225.211ZM678.428 225.211L678.127 225.732L734.004 257.993L734.305 257.472L734.606 256.951L678.729 224.69L678.428 225.211ZM734.305 257.472V258.073H787.287V257.472V256.87H734.305V257.472ZM787.287 257.472H786.685V293.458H787.287H787.888V257.472H787.287ZM787.287 293.458V292.857H787.173V293.458V294.06H787.287V293.458ZM787.173 293.458L786.573 293.487C786.74 296.931 784.554 300.536 779.711 303.332L780.012 303.853L780.313 304.374C785.383 301.446 787.971 297.484 787.774 293.429L787.173 293.458ZM780.012 303.853L779.711 303.332L678.261 361.904L678.562 362.425L678.863 362.946L780.313 304.374L780.012 303.853ZM678.562 362.425L678.261 361.904C673.593 364.599 667.437 365.964 661.248 365.964C655.059 365.964 648.903 364.599 644.235 361.904L643.934 362.425L643.633 362.946C648.527 365.771 654.904 367.167 661.248 367.167C667.592 367.167 673.969 365.771 678.863 362.946L678.562 362.425ZM643.934 362.425L644.235 361.904L542.651 303.255L542.35 303.775L542.049 304.296L643.633 362.946L643.934 362.425ZM542.35 303.775L542.651 303.255C537.841 300.478 535.653 296.903 535.787 293.482L535.186 293.458L534.585 293.435C534.427 297.462 537.014 301.389 542.049 304.296L542.35 303.775ZM535.186 293.458V292.857H535.18V293.458V294.06H535.186V293.458ZM535.18 293.458H535.782V257.472H535.18H534.579V293.458H535.18ZM535.18 257.472V258.073H587.923V257.472V256.87H535.18V257.472ZM587.923 257.472L588.224 257.993L644.102 225.732L643.801 225.211L643.5 224.69L587.623 256.951L587.923 257.472Z" fill="#2C3242" mask="url(#path-196-inside-12_450_10732)"/>
<mask id="path-198-inside-13_450_10732" fill="white">
<path d="M548.803 297.039L545.836 295.326L545.836 284.738L548.803 286.451L548.803 297.039ZM559.049 302.954L556.082 301.241L556.082 290.654L559.049 292.366L559.049 302.954ZM564.173 305.913L561.207 304.2L561.207 293.613L564.173 295.325L564.173 305.913ZM553.927 299.996L550.961 298.284L550.961 287.696L553.927 289.408L553.927 299.996ZM569.298 308.871L566.332 307.158L566.332 296.571L569.298 298.283L569.298 308.871Z"/>
</mask>
<path d="M548.803 297.039L545.836 295.326L545.836 284.738L548.803 286.451L548.803 297.039ZM559.049 302.954L556.082 301.241L556.082 290.654L559.049 292.366L559.049 302.954ZM564.173 305.913L561.207 304.2L561.207 293.613L564.173 295.325L564.173 305.913ZM553.927 299.996L550.961 298.284L550.961 287.696L553.927 289.408L553.927 299.996ZM569.298 308.871L566.332 307.158L566.332 296.571L569.298 298.283L569.298 308.871Z" fill="#DEBF1A"/>
<path d="M548.803 297.039L548.803 297.378L549.097 297.548L549.097 297.209L548.803 297.039ZM545.836 295.326L545.542 295.156L545.542 295.496L545.836 295.666L545.836 295.326ZM545.836 284.738L545.836 284.398L545.542 284.229L545.542 284.568L545.836 284.738ZM548.803 286.451L549.097 286.621L549.097 286.281L548.803 286.111L548.803 286.451ZM559.049 302.954L559.049 303.294L559.343 303.464L559.343 303.124L559.049 302.954ZM556.082 301.241L555.788 301.072L555.788 301.411L556.082 301.581L556.082 301.241ZM556.082 290.654L556.082 290.314L555.788 290.144L555.788 290.484L556.082 290.654ZM559.049 292.366L559.343 292.536L559.343 292.197L559.049 292.027L559.049 292.366ZM564.173 305.913L564.173 306.252L564.467 306.422L564.467 306.083L564.173 305.913ZM561.207 304.2L560.913 304.031L560.913 304.37L561.207 304.54L561.207 304.2ZM561.207 293.613L561.207 293.273L560.913 293.103L560.913 293.443L561.207 293.613ZM564.173 295.325L564.467 295.495L564.467 295.155L564.173 294.985L564.173 295.325ZM553.927 299.996L553.927 300.336L554.221 300.506L554.221 300.166L553.927 299.996ZM550.961 298.284L550.667 298.114L550.667 298.454L550.961 298.624L550.961 298.284ZM550.961 287.696L550.961 287.356L550.667 287.187L550.667 287.526L550.961 287.696ZM553.927 289.408L554.221 289.578L554.221 289.239L553.927 289.069L553.927 289.408ZM569.298 308.871L569.298 309.21L569.592 309.38L569.592 309.041L569.298 308.871ZM566.332 307.158L566.038 306.989L566.038 307.328L566.332 307.498L566.332 307.158ZM566.332 296.571L566.332 296.231L566.038 296.061L566.038 296.401L566.332 296.571ZM569.298 298.283L569.592 298.453L569.592 298.113L569.298 297.943L569.298 298.283ZM548.803 297.039L548.803 296.699L545.836 294.986L545.836 295.326L545.836 295.666L548.803 297.378L548.803 297.039ZM545.836 295.326L546.13 295.496L546.13 284.908L545.836 284.738L545.542 284.568L545.542 295.156L545.836 295.326ZM545.836 284.738L545.836 285.078L548.803 286.791L548.803 286.451L548.803 286.111L545.836 284.398L545.836 284.738ZM548.803 286.451L548.509 286.281L548.509 296.869L548.803 297.039L549.097 297.209L549.097 286.621L548.803 286.451ZM559.049 302.954L559.049 302.615L556.082 300.902L556.082 301.241L556.082 301.581L559.049 303.294L559.049 302.954ZM556.082 301.241L556.376 301.411L556.376 290.823L556.082 290.654L555.788 290.484L555.788 301.072L556.082 301.241ZM556.082 290.654L556.082 290.993L559.049 292.706L559.049 292.366L559.049 292.027L556.082 290.314L556.082 290.654ZM559.049 292.366L558.755 292.197L558.755 302.785L559.049 302.954L559.343 303.124L559.343 292.536L559.049 292.366ZM564.173 305.913L564.173 305.573L561.207 303.861L561.207 304.2L561.207 304.54L564.173 306.252L564.173 305.913ZM561.207 304.2L561.501 304.37L561.501 293.782L561.207 293.613L560.913 293.443L560.913 304.031L561.207 304.2ZM561.207 293.613L561.207 293.952L564.173 295.665L564.173 295.325L564.173 294.985L561.207 293.273L561.207 293.613ZM564.173 295.325L563.879 295.155L563.879 305.743L564.173 305.913L564.467 306.083L564.467 295.495L564.173 295.325ZM553.927 299.996L553.927 299.657L550.961 297.944L550.961 298.284L550.961 298.624L553.927 300.336L553.927 299.996ZM550.961 298.284L551.255 298.454L551.255 287.866L550.961 287.696L550.667 287.526L550.667 298.114L550.961 298.284ZM550.961 287.696L550.961 288.036L553.927 289.748L553.927 289.408L553.927 289.069L550.961 287.356L550.961 287.696ZM553.927 289.408L553.633 289.239L553.633 299.827L553.927 299.996L554.221 300.166L554.221 289.578L553.927 289.408ZM569.298 308.871L569.298 308.531L566.332 306.819L566.332 307.158L566.332 307.498L569.298 309.21L569.298 308.871ZM566.332 307.158L566.626 307.328L566.626 296.74L566.332 296.571L566.038 296.401L566.038 306.989L566.332 307.158ZM566.332 296.571L566.332 296.91L569.298 298.623L569.298 298.283L569.298 297.943L566.332 296.231L566.332 296.571ZM569.298 298.283L569.004 298.113L569.004 308.701L569.298 308.871L569.592 309.041L569.592 298.453L569.298 298.283Z" fill="#2C3242" mask="url(#path-198-inside-13_450_10732)"/>
<mask id="path-200-inside-14_450_10732" fill="white">
<path d="M679.075 350.104L676.109 351.816L676.109 341.228L679.075 339.516L679.075 350.104ZM694.451 341.227L691.484 342.94L691.484 332.352L694.451 330.639L694.451 341.227ZM684.2 347.144L681.234 348.856L681.234 338.268L684.2 336.556L684.2 347.144ZM699.572 338.269L696.605 339.982L696.605 329.394L699.572 327.681L699.572 338.269ZM689.321 344.186L686.355 345.899L686.355 335.312L689.321 333.599L689.321 344.186Z"/>
</mask>
<path d="M679.075 350.104L676.109 351.816L676.109 341.228L679.075 339.516L679.075 350.104ZM694.451 341.227L691.484 342.94L691.484 332.352L694.451 330.639L694.451 341.227ZM684.2 347.144L681.234 348.856L681.234 338.268L684.2 336.556L684.2 347.144ZM699.572 338.269L696.605 339.982L696.605 329.394L699.572 327.681L699.572 338.269ZM689.321 344.186L686.355 345.899L686.355 335.312L689.321 333.599L689.321 344.186Z" fill="#DEBF1A"/>
<path d="M679.075 350.104L679.075 350.443L679.369 350.274L679.369 349.934L679.075 350.104ZM676.109 351.816L675.815 351.986L675.815 352.326L676.109 352.156L676.109 351.816ZM676.109 341.228L676.109 340.889L675.815 341.058L675.815 341.398L676.109 341.228ZM679.075 339.516L679.369 339.346L679.369 339.006L679.075 339.176L679.075 339.516ZM694.451 341.227L694.451 341.566L694.745 341.397L694.745 341.057L694.451 341.227ZM691.484 342.94L691.19 343.109L691.19 343.449L691.484 343.279L691.484 342.94ZM691.484 332.352L691.484 332.012L691.19 332.182L691.19 332.522L691.484 332.352ZM694.451 330.639L694.745 330.469L694.745 330.13L694.451 330.299L694.451 330.639ZM684.2 347.144L684.2 347.483L684.495 347.314L684.495 346.974L684.2 347.144ZM681.234 348.856L680.94 349.026L680.94 349.366L681.234 349.196L681.234 348.856ZM681.234 338.268L681.234 337.929L680.94 338.099L680.94 338.438L681.234 338.268ZM684.2 336.556L684.495 336.386L684.495 336.047L684.2 336.216L684.2 336.556ZM699.572 338.269L699.572 338.609L699.866 338.439L699.866 338.099L699.572 338.269ZM696.605 339.982L696.311 340.152L696.311 340.492L696.605 340.322L696.605 339.982ZM696.605 329.394L696.605 329.055L696.311 329.224L696.311 329.564L696.605 329.394ZM699.572 327.681L699.866 327.512L699.866 327.172L699.572 327.342L699.572 327.681ZM689.321 344.186L689.321 344.526L689.615 344.356L689.615 344.016L689.321 344.186ZM686.355 345.899L686.061 346.068L686.061 346.408L686.355 346.238L686.355 345.899ZM686.355 335.312L686.355 334.972L686.061 335.142L686.061 335.482L686.355 335.312ZM689.321 333.599L689.615 333.43L689.615 333.09L689.321 333.26L689.321 333.599ZM679.075 350.104L679.075 349.764L676.109 351.477L676.109 351.816L676.109 352.156L679.075 350.443L679.075 350.104ZM676.109 351.816L676.403 351.646L676.403 341.058L676.109 341.228L675.815 341.398L675.815 351.986L676.109 351.816ZM676.109 341.228L676.109 341.568L679.075 339.855L679.075 339.516L679.075 339.176L676.109 340.889L676.109 341.228ZM679.075 339.516L678.781 339.686L678.781 350.274L679.075 350.104L679.369 349.934L679.369 339.346L679.075 339.516ZM694.451 341.227L694.451 340.887L691.484 342.6L691.484 342.94L691.484 343.279L694.451 341.566L694.451 341.227ZM691.484 342.94L691.778 342.77L691.778 332.182L691.484 332.352L691.19 332.522L691.19 343.109L691.484 342.94ZM691.484 332.352L691.484 332.691L694.451 330.979L694.451 330.639L694.451 330.299L691.484 332.012L691.484 332.352ZM694.451 330.639L694.157 330.809L694.157 341.397L694.451 341.227L694.745 341.057L694.745 330.469L694.451 330.639ZM684.2 347.144L684.2 346.804L681.234 348.517L681.234 348.856L681.234 349.196L684.2 347.483L684.2 347.144ZM681.234 348.856L681.529 348.686L681.529 338.099L681.234 338.268L680.94 338.438L680.94 349.026L681.234 348.856ZM681.234 338.268L681.234 338.608L684.2 336.896L684.2 336.556L684.2 336.216L681.234 337.929L681.234 338.268ZM684.2 336.556L683.906 336.726L683.906 347.314L684.2 347.144L684.495 346.974L684.495 336.386L684.2 336.556ZM699.572 338.269L699.572 337.93L696.605 339.643L696.605 339.982L696.605 340.322L699.572 338.609L699.572 338.269ZM696.605 339.982L696.899 339.812L696.899 329.224L696.605 329.394L696.311 329.564L696.311 340.152L696.605 339.982ZM696.605 329.394L696.605 329.734L699.572 328.021L699.572 327.681L699.572 327.342L696.605 329.055L696.605 329.394ZM699.572 327.681L699.277 327.851L699.277 338.439L699.572 338.269L699.866 338.099L699.866 327.512L699.572 327.681ZM689.321 344.186L689.321 343.847L686.355 345.559L686.355 345.899L686.355 346.238L689.321 344.526L689.321 344.186ZM686.355 345.899L686.649 345.729L686.649 335.142L686.355 335.312L686.061 335.482L686.061 346.068L686.355 345.899ZM686.355 335.312L686.355 335.651L689.321 333.939L689.321 333.599L689.321 333.26L686.355 334.972L686.355 335.312ZM689.321 333.599L689.027 333.769L689.027 344.356L689.321 344.186L689.615 344.016L689.615 333.43L689.321 333.599Z" fill="#2C3242" mask="url(#path-200-inside-14_450_10732)"/>
<rect x="-1.79251e-08" y="0.300733" width="156.682" height="156.528" rx="19.6914" transform="matrix(0.866025 0.5 -0.866025 0.5 661.378 179.38)" fill="#F8FAFA" stroke="#2C3242" stroke-width="0.601467"/>
<path d="M661.215 330.12V366.208" stroke="#2C3242" stroke-width="0.601467"/>
<mask id="path-204-inside-15_450_10732" fill="white">
<path d="M756.231 250.73H756.215C756.089 253.397 754.264 256.041 750.739 258.076L673.283 302.796C665.973 307.017 654.12 307.017 646.81 302.796L569.252 258.018C565.753 255.998 563.93 253.377 563.78 250.73H563.762V140.062H756.231V250.73Z"/>
</mask>
<path d="M756.231 250.73H756.215C756.089 253.397 754.264 256.041 750.739 258.076L673.283 302.796C665.973 307.017 654.12 307.017 646.81 302.796L569.252 258.018C565.753 255.998 563.93 253.377 563.78 250.73H563.762V140.062H756.231V250.73Z" fill="#DCE8E6"/>
<path d="M756.231 250.73V251.19H756.691V250.73H756.231ZM756.215 250.73V250.271H755.776L755.756 250.709L756.215 250.73ZM750.739 258.076L750.969 258.474V258.474L750.739 258.076ZM673.283 302.796L673.513 303.194H673.513L673.283 302.796ZM646.81 302.796L646.58 303.194H646.58L646.81 302.796ZM569.252 258.018L569.022 258.416L569.252 258.018ZM563.78 250.73L564.239 250.705L564.215 250.271H563.78V250.73ZM563.762 250.73H563.302V251.19H563.762V250.73ZM563.762 140.062V139.602H563.302V140.062H563.762ZM756.231 140.062H756.691V139.602H756.231V140.062ZM756.231 250.73V250.271H756.215V250.73V251.19H756.231V250.73ZM756.215 250.73L755.756 250.709C755.64 253.165 753.953 255.69 750.509 257.678L750.739 258.076L750.969 258.474C754.575 256.393 756.538 253.629 756.674 250.752L756.215 250.73ZM750.739 258.076L750.509 257.678L673.053 302.398L673.283 302.796L673.513 303.194L750.969 258.474L750.739 258.076ZM673.283 302.796L673.053 302.398C669.484 304.458 664.778 305.502 660.046 305.502C655.315 305.502 650.608 304.458 647.039 302.398L646.81 302.796L646.58 303.194C650.321 305.354 655.196 306.421 660.046 306.421C664.897 306.421 669.772 305.354 673.513 303.194L673.283 302.796ZM646.81 302.796L647.039 302.398L569.482 257.619L569.252 258.018L569.022 258.416L646.58 303.194L646.81 302.796ZM569.252 258.018L569.482 257.619C566.064 255.646 564.377 253.143 564.239 250.705L563.78 250.73L563.321 250.756C563.483 253.611 565.443 256.349 569.022 258.416L569.252 258.018ZM563.78 250.73V250.271H563.762V250.73V251.19H563.78V250.73ZM563.762 250.73H564.222V140.062H563.762H563.302V250.73H563.762ZM563.762 140.062V140.521H756.231V140.062V139.602H563.762V140.062ZM756.231 140.062H755.772V250.73H756.231H756.691V140.062H756.231Z" fill="#2C3242" mask="url(#path-204-inside-15_450_10732)"/>
<rect x="-1.79251e-08" y="0.300733" width="119.511" height="119.394" rx="14.9835" transform="matrix(0.866025 0.5 -0.866025 0.5 660.198 80.0105)" fill="#F8FAFA" stroke="#2C3242" stroke-width="0.601467"/>
<path d="M660.621 195.396L660.621 306.066" stroke="#2C3242" stroke-width="0.601467"/>
<rect width="16.5071" height="18.7346" rx="3.6088" transform="matrix(0.866025 0.5 0.0797455 0.996815 594.645 306.84)" fill="black"/>
<rect x="0.260443" y="0.150367" width="17.9852" height="8.77249" transform="matrix(0.866026 -0.5 2.20305e-08 1 716.386 330.797)" fill="#2C3242" stroke="#2C3242" stroke-width="0.601467"/>
<rect x="0.260443" y="0.4511" width="5.5569" height="8.39553" transform="matrix(0.866026 0.5 -2.20305e-08 1 717.629 329.966)" fill="#DCE8E6" stroke="#2C3242" stroke-width="0.601467"/>
<rect x="0.520886" width="14.408" height="5.0089" transform="matrix(0.866026 -0.5 0.866026 0.5 717.691 330.96)" fill="#F8FAFA" stroke="#2C3242" stroke-width="0.601467"/>
<rect x="0.260443" y="0.150367" width="14.408" height="8.77249" transform="matrix(0.866026 -0.5 2.20305e-08 1 722.515 333.036)" fill="#DEBF1A" stroke="#2C3242" stroke-width="0.601467"/>
<rect x="0.260443" y="0.4511" width="12.2878" height="8.39553" transform="matrix(0.866026 0.5 -2.20305e-08 1 705.789 324.195)" fill="#DCE8E6" stroke="#2C3242" stroke-width="0.601467"/>
<rect x="0.520886" width="17.8549" height="12.1604" transform="matrix(0.866026 -0.5 0.866026 0.5 705.48 324.978)" fill="#F8FAFA" stroke="#2C3242" stroke-width="0.601467"/>
<rect x="0.260443" y="0.150367" width="75.2339" height="75.2339" rx="6.91687" transform="matrix(0.866025 -0.5 2.20305e-08 1 678.695 208.663)" fill="#F8FAFA" stroke="#2C3242" stroke-width="0.601467"/>
<path d="M680.744 207.631L740.283 173.256C740.715 173.006 741.132 172.943 741.459 173.073L741.593 173.141L798.236 208.041L733.501 247.453L733.248 247.607L733.248 316.854L679.406 280.766C679.094 280.557 678.921 280.146 678.921 279.616L678.921 210.789C678.921 209.626 679.737 208.212 680.744 207.631Z" fill="url(#paint0_linear_450_10732)" stroke="#2C3242" stroke-width="0.601467"/>
<path d="M679.234 209.396L733.993 244.621" stroke="#2C3242" stroke-width="0.601467"/>
<rect x="0.260443" y="0.150367" width="77.6512" height="77.6512" rx="6.91687" transform="matrix(0.866025 -0.5 2.20305e-08 1 731.625 242.957)" fill="#01F027" stroke="#2C3242" stroke-width="0.601467"/>
<rect x="-0.147053" y="-0.0849013" width="46.6469" height="52.8862" transform="matrix(0.866025 -0.5 2.20305e-08 1 747.113 247.62)" fill="#DCE8E6" stroke="#2C3242" stroke-width="0.339605"/>
<mask id="mask12_450_10732" style="mask-type:alpha" maskUnits="userSpaceOnUse" x="747" y="224" width="41" height="77">
<rect x="0.147053" y="0.0849013" width="45.9677" height="52.207" transform="matrix(0.866025 -0.5 2.20305e-08 1 747.153 247.767)" fill="#DCE8E6" stroke="#2C3242" stroke-width="0.339605"/>
</mask>
<g mask="url(#mask12_450_10732)">
<rect x="-1.0121e-08" y="0.169803" width="9.84855" height="46.3744" transform="matrix(0.866025 0.5 -0.866025 0.5 779.221 272.418)" fill="#F8FAFA" stroke="#2C3242" stroke-width="0.339605"/>
<rect x="0.147053" y="0.254704" width="9.84855" height="53.1666" transform="matrix(0.866025 0.5 -2.20305e-08 1 779.094 219.282)" fill="#2C3242" stroke="#2C3242" stroke-width="0.339605"/>
<ellipse cx="7.26077" cy="7.26077" rx="7.26077" ry="7.26077" transform="matrix(0.866025 -0.5 2.20305e-08 1 757.746 249.762)" fill="black"/>
<path d="M752.926 278.975C752.926 275.766 754.03 272.05 755.995 268.646C757.961 265.242 760.626 262.428 763.406 260.823C766.185 259.219 768.851 258.955 770.816 260.089C772.782 261.224 773.886 263.665 773.886 266.874L763.406 272.925L752.926 278.975Z" fill="black"/>
<rect opacity="0.5" width="46.3073" height="52.5466" transform="matrix(0.866025 -0.5 2.20305e-08 1 747.133 247.693)" fill="#01F027"/>
<mask id="mask13_450_10732" style="mask-type:alpha" maskUnits="userSpaceOnUse" x="747" y="224" width="41" height="77">
<rect opacity="0.5" width="46.3073" height="52.5466" transform="matrix(0.866025 -0.5 2.20305e-08 1 747.133 247.693)" fill="#10BD99"/>
</mask>
<g mask="url(#mask13_450_10732)">
<path opacity="0.2" d="M731.287 305.876L787.212 211.284" stroke="#DCE8E6" stroke-width="13.2323"/>
<path opacity="0.2" d="M748.322 311.321L804.247 216.729" stroke="#DCE8E6" stroke-width="4.81173"/>
</g>
</g>
<rect x="-0.260443" y="0.150367" width="71.5745" height="71.5745" rx="6.91687" transform="matrix(-0.866025 -0.5 -2.20305e-08 1 642.491 208.403)" fill="#F8FAFA" stroke="#2C3242" stroke-width="0.601467"/>
<path d="M640.893 207.631L581.353 173.256C580.921 173.006 580.505 172.943 580.178 173.073L580.043 173.141L523.401 208.041L588.135 247.453L588.389 247.607L588.389 316.854L642.231 280.766C642.543 280.557 642.716 280.146 642.716 279.616L642.716 210.789C642.716 209.626 641.9 208.212 640.893 207.631Z" fill="url(#paint1_linear_450_10732)" stroke="#2C3242" stroke-width="0.601467"/>
<path d="M642.402 209.396L587.644 244.621" stroke="#2C3242" stroke-width="0.601467"/>
<rect x="-0.260443" y="0.150367" width="77.6512" height="77.6512" rx="6.91687" transform="matrix(-0.866025 -0.5 -2.20305e-08 1 589.561 242.697)" fill="#55A5DF" stroke="#2C3242" stroke-width="0.601467"/>
<rect x="0.147053" y="-0.0849013" width="46.6469" height="52.8862" transform="matrix(-0.866025 -0.5 -2.20305e-08 1 574.778 247.767)" fill="#DCE8E6" stroke="#2C3242" stroke-width="0.339605"/>
<mask id="mask14_450_10732" style="mask-type:alpha" maskUnits="userSpaceOnUse" x="534" y="224" width="41" height="77">
<rect x="-0.147053" y="0.0849013" width="45.9677" height="52.207" transform="matrix(-0.866025 -0.5 -2.20305e-08 1 574.23 247.62)" fill="#DCE8E6" stroke="#2C3242" stroke-width="0.339605"/>
</mask>
<g mask="url(#mask14_450_10732)">
<rect x="1.0121e-08" y="0.169803" width="9.84855" height="46.3744" transform="matrix(-0.866025 0.5 0.866025 0.5 542.415 272.418)" fill="#F8FAFA" stroke="#2C3242" stroke-width="0.339605"/>
<rect x="-0.147053" y="0.254704" width="9.84855" height="53.1666" transform="matrix(-0.866025 0.5 2.20305e-08 1 542.288 219.429)" fill="#2C3242" stroke="#2C3242" stroke-width="0.339605"/>
<ellipse cx="7.26077" cy="7.26077" rx="7.26077" ry="7.26077" transform="matrix(-0.866025 -0.5 -2.20305e-08 1 562.691 250.965)" fill="black"/>
<path d="M567.508 280.177C567.508 276.968 566.404 273.252 564.438 269.848C562.473 266.444 559.807 263.63 557.028 262.025C554.248 260.421 551.583 260.157 549.617 261.291C547.652 262.426 546.548 264.866 546.548 268.076L557.028 274.127L567.508 280.177Z" fill="black"/>
<rect opacity="0.5" width="46.3073" height="52.5466" transform="matrix(-0.866025 -0.5 -2.20305e-08 1 574.504 247.693)" fill="#55A5DF"/>
<mask id="mask15_450_10732" style="mask-type:alpha" maskUnits="userSpaceOnUse" x="534" y="224" width="41" height="77">
<rect opacity="0.5" width="46.3073" height="52.5466" transform="matrix(-0.866025 -0.5 -2.20305e-08 1 574.504 247.693)" fill="#10BD99"/>
</mask>
<g mask="url(#mask15_450_10732)">
<path opacity="0.2" d="M509.292 297.783L603.884 241.858" stroke="#DCE8E6" stroke-width="13.2323"/>
<path opacity="0.2" d="M503.851 280.75L598.443 224.824" stroke="#DCE8E6" stroke-width="4.81173"/>
</g>
</g>
<rect x="0.520885" width="77.6512" height="77.6512" rx="6.91687" transform="matrix(0.866025 -0.5 0.866025 0.5 592.289 137.491)" fill="#F8FAFA" stroke="#2C3242" stroke-width="0.601467"/>
<rect x="0.520885" width="77.6512" height="77.6512" rx="6.91687" transform="matrix(0.866025 -0.5 0.866025 0.5 592.289 137.491)" fill="#F8FAFA" stroke="#2C3242" stroke-width="0.601467"/>
<mask id="path-245-inside-16_450_10732" fill="white">
<path d="M724.032 79.5913V136.629C724.338 138.128 723.498 139.689 721.506 140.839L666.239 172.749C662.787 174.742 657.19 174.741 653.738 172.749L598.47 140.839C596.556 139.734 595.705 138.249 595.914 136.804V79.5913H724.032Z"/>
</mask>
<path d="M724.032 79.5913V136.629C724.338 138.128 723.498 139.689 721.506 140.839L666.239 172.749C662.787 174.742 657.19 174.741 653.738 172.749L598.47 140.839C596.556 139.734 595.705 138.249 595.914 136.804V79.5913H724.032Z" fill="url(#paint2_linear_450_10732)"/>
<path d="M724.032 79.5913H724.633V78.9898H724.032V79.5913ZM724.032 136.629H723.43V136.69L723.443 136.75L724.032 136.629ZM721.506 140.839L721.807 141.36L721.807 141.36L721.506 140.839ZM666.239 172.749L666.54 173.269H666.54L666.239 172.749ZM653.738 172.749L653.437 173.269L653.437 173.269L653.738 172.749ZM598.47 140.839L598.771 140.318H598.771L598.47 140.839ZM595.914 136.804L596.509 136.89L596.515 136.847V136.804H595.914ZM595.914 79.5913V78.9898H595.312V79.5913H595.914ZM724.032 79.5913H723.43V136.629H724.032H724.633V79.5913H724.032ZM724.032 136.629L723.443 136.75C723.678 137.901 723.07 139.242 721.206 140.318L721.506 140.839L721.807 141.36C723.926 140.137 724.999 138.355 724.621 136.509L724.032 136.629ZM721.506 140.839L721.206 140.318L665.938 172.228L666.239 172.749L666.54 173.269L721.807 141.36L721.506 140.839ZM666.239 172.749L665.938 172.228C664.325 173.159 662.173 173.642 659.988 173.642C657.804 173.642 655.652 173.159 654.039 172.228L653.738 172.749L653.437 173.269C655.276 174.331 657.649 174.845 659.988 174.845C662.328 174.845 664.701 174.331 666.54 173.269L666.239 172.749ZM653.738 172.749L654.039 172.228L598.771 140.318L598.47 140.839L598.17 141.36L653.437 173.269L653.738 172.749ZM598.47 140.839L598.771 140.318C596.979 139.284 596.348 138.002 596.509 136.89L595.914 136.804L595.318 136.718C595.061 138.496 596.133 140.185 598.17 141.36L598.47 140.839ZM595.914 136.804H596.515V79.5913H595.914H595.312V136.804H595.914ZM595.914 79.5913V80.1928H724.032V79.5913V78.9898H595.914V79.5913Z" fill="#2C3242" mask="url(#path-245-inside-16_450_10732)"/>
<rect x="0.520885" width="77.6512" height="77.6512" rx="6.91687" transform="matrix(0.866025 -0.5 0.866025 0.5 592.289 79.8518)" fill="#DEBF1A" stroke="#2C3242" stroke-width="0.601467"/>
<mask id="mask16_450_10732" style="mask-type:alpha" maskUnits="userSpaceOnUse" x="617" y="54" width="86" height="49">
<rect x="0.520885" width="47.9336" height="47.9336" transform="matrix(0.866025 -0.5 0.866025 0.5 618.027 78.6481)" fill="#A7B1B5" stroke="#2C3242" stroke-width="0.601467"/>
</mask>
<g mask="url(#mask16_450_10732)">
<rect width="48.535" height="48.535" transform="matrix(0.866025 -0.5 0.866025 0.5 617.957 78.3877)" fill="#A7B1B5"/>
<rect x="0.260443" y="0.4511" width="47.9332" height="9.38263" transform="matrix(0.866025 0.5 -2.20305e-08 1 660.019 53.9909)" fill="#2C3242" stroke="#2C3242" stroke-width="0.601467"/>
<rect x="0.260443" y="0.150367" width="47.9332" height="9.38263" transform="matrix(0.866025 -0.5 2.20305e-08 1 619.129 78.3097)" fill="#BBBEC3" stroke="#2C3242" stroke-width="0.601467"/>
<circle cx="7.26077" cy="7.26077" r="7.26077" transform="matrix(0.866025 0.5 -0.866025 0.5 668.605 71.4517)" fill="black"/>
<path d="M640.899 81.8827C643.678 80.2779 647.448 79.3764 651.379 79.3764C655.31 79.3764 659.079 80.2779 661.859 81.8827C664.638 83.4874 666.2 85.6639 666.2 87.9333C666.2 90.2027 664.638 92.3792 661.859 93.984L651.379 87.9333L640.899 81.8827Z" fill="black"/>
<rect opacity="0.5" width="48.535" height="48.535" transform="matrix(0.866025 -0.5 0.866025 0.5 617.957 78.3877)" fill="#DEBF1A"/>
<mask id="mask17_450_10732" style="mask-type:alpha" maskUnits="userSpaceOnUse" x="617" y="54" width="86" height="49">
<rect opacity="0.5" width="48.535" height="48.535" transform="matrix(0.866025 -0.5 0.866025 0.5 617.957 78.386)" fill="#10BD99"/>
</mask>
<g mask="url(#mask17_450_10732)">
<path opacity="0.2" d="M596.029 81.3188L705.804 76.3478" stroke="#DCE8E6" stroke-width="13.2323"/>
<path opacity="0.2" d="M599.216 63.7224L708.991 58.7514" stroke="#DCE8E6" stroke-width="4.81173"/>
</g>
</g>
<ellipse cx="9.86835" cy="9.86835" rx="9.86835" ry="9.86835" transform="matrix(0.866025 0.5 -2.20305e-08 1 520.32 428.768)" fill="#2C3242"/>
<path d="M527.142 434.774C531.493 437.286 535.021 443.396 535.021 448.42C535.021 453.444 531.493 455.481 527.142 452.969C522.791 450.457 519.264 444.347 519.264 439.323C519.264 434.299 522.791 432.263 527.142 434.774Z" fill="#DEBF1A" stroke="#2C3242" stroke-width="0.339605"/>
<circle cx="9.86835" cy="9.86835" r="9.86835" transform="matrix(0.848048 0.529919 -0.0348995 0.999391 545.004 447.682)" fill="#2C3242"/>
<path d="M551.61 453.923C555.871 456.585 559.183 462.814 559.008 467.835C558.833 472.856 555.236 474.769 550.975 472.106C546.715 469.444 543.403 463.215 543.579 458.194C543.754 453.173 547.35 451.261 551.61 453.923Z" fill="#DEBF1A" stroke="#2C3242" stroke-width="0.339605"/>
<circle cx="10.9696" cy="10.9696" r="10.7998" transform="matrix(0.866025 -0.5 0.866025 0.5 728.801 420.955)" fill="#DEBF1A" stroke="#2C3242" stroke-width="0.339605"/>
<path d="M710.906 354.882C715.957 351.966 720.052 354.33 720.052 360.163C720.052 365.995 715.957 373.087 710.906 376.003C705.855 378.92 701.76 376.556 701.76 370.723C701.761 364.891 705.855 357.799 710.906 354.882Z" fill="#DEBF1A" stroke="#2C3242" stroke-width="0.601467"/>
<path fill-rule="evenodd" clip-rule="evenodd" d="M740.863 392.813C740.863 391.484 739.916 389.894 738.747 389.262L711.5 374.511L711.5 355.264L755.673 379.178C756.841 379.811 757.789 381.401 757.789 382.729L757.789 425.537L740.863 416.374L740.863 392.813Z" fill="#2C3242"/>
<path fill-rule="evenodd" clip-rule="evenodd" d="M741.392 392.498C741.392 391.169 740.445 389.579 739.276 388.946L711.5 373.909L711.5 355.865L755.144 379.493C756.313 380.126 757.26 381.716 757.26 383.044L757.26 425.25L741.392 416.66L741.392 392.498Z" fill="#DEBF1A"/>
<path d="M749.323 420.956L749.323 385.366L730.41 375.127" stroke="url(#paint3_linear_450_10732)" stroke-width="6.01467"/>
<circle cx="10.9696" cy="10.9696" r="10.7998" transform="matrix(-0.866025 -0.5 -0.866025 0.5 595.145 420.955)" fill="#DEBF1A" stroke="#2C3242" stroke-width="0.339605"/>
<path d="M613.043 354.882C607.992 351.966 603.897 354.33 603.897 360.163C603.897 365.995 607.992 373.087 613.043 376.003C618.094 378.92 622.189 376.556 622.189 370.723C622.189 364.891 618.094 357.799 613.043 354.882Z" fill="#DEBF1A" stroke="#2C3242" stroke-width="0.601467"/>
<path fill-rule="evenodd" clip-rule="evenodd" d="M583.086 392.814C583.086 391.485 584.033 389.895 585.202 389.263L612.449 374.512L612.449 355.265L568.276 379.179C567.108 379.812 566.161 381.402 566.161 382.73L566.161 425.538L583.086 416.375L583.086 392.814Z" fill="#2C3242"/>
<path fill-rule="evenodd" clip-rule="evenodd" d="M582.557 392.498C582.557 391.169 583.505 389.579 584.673 388.946L612.449 373.909L612.449 355.865L568.805 379.493C567.637 380.126 566.689 381.716 566.689 383.044L566.689 425.25L582.557 416.66L582.557 392.498Z" fill="#DEBF1A"/>
<path d="M574.626 420.956L574.626 385.366L593.539 375.127" stroke="url(#paint4_linear_450_10732)" stroke-width="6.01467"/>
<defs>
<linearGradient id="paint0_linear_450_10732" x1="678.66" y1="215.38" x2="761.258" y2="266.282" gradientUnits="userSpaceOnUse">
<stop stop-color="#FFEEE1"/>
<stop offset="1" stop-color="#FACCA1" stop-opacity="0"/>
</linearGradient>
<linearGradient id="paint1_linear_450_10732" x1="642.977" y1="215.38" x2="560.378" y2="266.282" gradientUnits="userSpaceOnUse">
<stop stop-color="#55A5DF"/>
<stop offset="1" stop-color="#55A5DF" stop-opacity="0"/>
</linearGradient>
<linearGradient id="paint2_linear_450_10732" x1="667.174" y1="174.243" x2="666.174" y2="91.208" gradientUnits="userSpaceOnUse">
<stop stop-color="#E1FFF9"/>
<stop offset="1" stop-color="#A1FAE7" stop-opacity="0"/>
</linearGradient>
<linearGradient id="paint3_linear_450_10732" x1="730.41" y1="375.126" x2="728.757" y2="407.753" gradientUnits="userSpaceOnUse">
<stop stop-color="#DAFBF4" stop-opacity="0"/>
<stop offset="0.3116" stop-color="#DAFBF4" stop-opacity="0.385441"/>
<stop offset="1" stop-color="#DAFBF4" stop-opacity="0"/>
</linearGradient>
<linearGradient id="paint4_linear_450_10732" x1="593.539" y1="375.126" x2="595.192" y2="407.753" gradientUnits="userSpaceOnUse">
<stop stop-color="#DAFBF4" stop-opacity="0"/>
<stop offset="0.3116" stop-color="#DAFBF4" stop-opacity="0.385441"/>
<stop offset="1" stop-color="#DAFBF4" stop-opacity="0"/>
</linearGradient>
<clipPath id="clip0_450_10732">
<rect width="84.9013" height="85.5805" rx="27.1684" transform="matrix(0.866025 0.5 -2.20305e-08 1 162.438 14.5886)" fill="white"/>
</clipPath>
<clipPath id="clip1_450_10732">
<rect width="85.233" height="85.233" rx="42.6165" transform="matrix(0.865944 -0.500141 0.865944 0.500141 10.4453 440.74)" fill="white"/>
</clipPath>
<clipPath id="clip2_450_10732">
<rect width="38.9637" height="63.4587" fill="white" transform="matrix(0.865944 -0.500141 0.865944 0.500141 39.9688 435.056)"/>
</clipPath>
<clipPath id="clip3_450_10732">
<rect width="84.5853" height="85.262" rx="27.1684" transform="matrix(0.865944 -0.500141 0.865944 0.500141 42.0898 395.303)" fill="white"/>
</clipPath>
<clipPath id="clip4_450_10732">
<rect width="10.713" height="10.716" rx="5.35648" transform="matrix(0.865944 -0.500141 2.20222e-08 1 291 265.21)" fill="white"/>
</clipPath>
<clipPath id="clip5_450_10732">
<rect width="4.89735" height="7.9784" fill="white" transform="matrix(0.865944 -0.500141 2.20222e-08 1 293.473 265.21)"/>
</clipPath>
<clipPath id="clip6_450_10732">
<rect width="84.5853" height="85.262" rx="27.1684" transform="matrix(0.865944 -0.500141 0.865944 0.500141 65.0586 296.868)" fill="white"/>
</clipPath>
</defs>
</svg>
