<svg width="34" height="32" viewBox="0 0 34 32" fill="none" xmlns="http://www.w3.org/2000/svg">
<path fill-rule="evenodd" clip-rule="evenodd" d="M11.3006 0.657471C7.93683 0.657471 5.30208 1.54675 3.4695 3.30045C1.63692 5.05415 0.707642 7.57549 0.707642 10.7945V31.0684H13.9488V10.7945H6.00412C6.00412 8.96853 6.41145 7.6531 7.21461 6.88435C8.01793 6.11576 9.39253 5.72596 11.3006 5.72596" fill="white"/>
<path fill-rule="evenodd" clip-rule="evenodd" d="M30.721 0.657471C27.3572 0.657471 24.7225 1.54675 22.8899 3.30045C21.0573 5.05415 20.1281 7.57549 20.1281 10.7945V31.0684H33.3692V10.7945H25.4245C25.4245 8.96853 25.8319 7.6531 26.635 6.88435C27.4383 6.11576 28.8129 5.72596 30.721 5.72596" fill="white"/>
</svg>
