<svg width="19" height="40" viewBox="0 0 19 40" fill="none" xmlns="http://www.w3.org/2000/svg">
<rect width="18.3063" height="40" rx="9.15313" fill="#1F2937"/>
<path d="M17.4023 14C17.8086 14 18.1523 14.3438 18.1523 14.75V16.5C18.1523 17.625 17.4336 18.7812 16.2148 19.6562C15.2148 20.375 14.0273 20.8125 12.7773 20.9688C11.7773 22.5938 10.6523 23.25 10.6523 23.25V25.5H12.1523C13.2461 25.5 14.1523 26.1562 14.1523 27.25V27.625C14.1523 27.8438 13.9648 28 13.7773 28H4.52734C4.30859 28 4.15234 27.8438 4.15234 27.625V27.25C4.15234 26.1562 5.02734 25.5 6.15234 25.5H7.65234V23.25C7.65234 23.25 6.49609 22.5938 5.49609 20.9688C4.24609 20.8125 3.05859 20.375 2.05859 19.6562C0.839844 18.7812 0.152344 17.625 0.152344 16.5V14.75C0.152344 14.3438 0.464844 14 0.902344 14H4.15234V12.75C4.15234 12.3438 4.46484 12 4.90234 12H13.4023C13.8086 12 14.1523 12.3438 14.1523 12.75V14H17.4023ZM3.24609 18.0312C3.62109 18.3125 4.05859 18.5312 4.55859 18.7188C4.33984 17.9375 4.18359 17.0312 4.15234 16H2.15234V16.5C2.15234 16.875 2.46484 17.5 3.24609 18.0312ZM16.1523 16.5V16H14.1211C14.0898 17.0312 13.9336 17.9375 13.7148 18.7188C14.2148 18.5312 14.6523 18.3125 15.0273 18.0312C15.5898 17.6562 16.1523 17.0312 16.1523 16.5Z" fill="white"/>
</svg>
