<svg width="19" height="48" viewBox="0 0 19 48" fill="none" xmlns="http://www.w3.org/2000/svg">
<rect x="1" width="17.8031" height="48" rx="8.90156" fill="#111827"/>
<path d="M6.68359 25.75H5.12109C4.84766 25.75 4.65234 25.5547 4.65234 25.2812V23.7188C4.65234 23.4844 4.84766 23.25 5.12109 23.25H6.68359C6.91797 23.25 7.15234 23.4844 7.15234 23.7188V25.2812C7.15234 25.5547 6.91797 25.75 6.68359 25.75ZM10.9023 25.2812C10.9023 25.5547 10.668 25.75 10.4336 25.75H8.87109C8.59766 25.75 8.40234 25.5547 8.40234 25.2812V23.7188C8.40234 23.4844 8.59766 23.25 8.87109 23.25H10.4336C10.668 23.25 10.9023 23.4844 10.9023 23.7188V25.2812ZM14.6523 25.2812C14.6523 25.5547 14.418 25.75 14.1836 25.75H12.6211C12.3477 25.75 12.1523 25.5547 12.1523 25.2812V23.7188C12.1523 23.4844 12.3477 23.25 12.6211 23.25H14.1836C14.418 23.25 14.6523 23.4844 14.6523 23.7188V25.2812ZM10.9023 29.0312C10.9023 29.3047 10.668 29.5 10.4336 29.5H8.87109C8.59766 29.5 8.40234 29.3047 8.40234 29.0312V27.4688C8.40234 27.2344 8.59766 27 8.87109 27H10.4336C10.668 27 10.9023 27.2344 10.9023 27.4688V29.0312ZM7.15234 29.0312C7.15234 29.3047 6.91797 29.5 6.68359 29.5H5.12109C4.84766 29.5 4.65234 29.3047 4.65234 29.0312V27.4688C4.65234 27.2344 4.84766 27 5.12109 27H6.68359C6.91797 27 7.15234 27.2344 7.15234 27.4688V29.0312ZM14.6523 29.0312C14.6523 29.3047 14.418 29.5 14.1836 29.5H12.6211C12.3477 29.5 12.1523 29.3047 12.1523 29.0312V27.4688C12.1523 27.2344 12.3477 27 12.6211 27H14.1836C14.418 27 14.6523 27.2344 14.6523 27.4688V29.0312ZM18.4023 18.875V32.625C18.4023 33.6797 17.543 34.5 16.5273 34.5H2.77734C1.72266 34.5 0.902344 33.6797 0.902344 32.625V18.875C0.902344 17.8594 1.72266 17 2.77734 17H4.65234V14.9688C4.65234 14.7344 4.84766 14.5 5.12109 14.5H6.68359C6.91797 14.5 7.15234 14.7344 7.15234 14.9688V17H12.1523V14.9688C12.1523 14.7344 12.3477 14.5 12.6211 14.5H14.1836C14.418 14.5 14.6523 14.7344 14.6523 14.9688V17H16.5273C17.543 17 18.4023 17.8594 18.4023 18.875ZM16.5273 32.3906V20.75H2.77734V32.3906C2.77734 32.5469 2.85547 32.625 3.01172 32.625H16.293C16.4102 32.625 16.5273 32.5469 16.5273 32.3906Z" fill="#FBAD04"/>
</svg>
