<svg width="16" height="48" viewBox="0 0 16 48" fill="none" xmlns="http://www.w3.org/2000/svg">
<rect x="0.0117188" width="15.375" height="48" rx="7.6875" fill="#111827"/>
<path d="M14.5742 16.375C14.5742 19.5391 13.3242 22.8594 10.7461 24.5C13.2852 26.1797 14.5742 29.5 14.5742 32.625H14.7305C14.9648 32.625 15.1992 32.8594 15.1992 33.0938V34.0312C15.1992 34.3047 14.9648 34.5 14.7305 34.5H0.667969C0.394531 34.5 0.199219 34.3047 0.199219 34.0312V33.0938C0.199219 32.8594 0.394531 32.625 0.667969 32.625H0.824219C0.824219 29.5 2.03516 26.1797 4.61328 24.5C2.07422 22.8594 0.824219 19.5391 0.824219 16.375H0.667969C0.394531 16.375 0.199219 16.1797 0.199219 15.9062V14.9688C0.199219 14.7344 0.394531 14.5 0.667969 14.5H14.7305C14.9648 14.5 15.1992 14.7344 15.1992 14.9688V15.9062C15.1992 16.1797 14.9648 16.375 14.7305 16.375H14.5742ZM2.69922 16.375C2.69922 20.3594 4.92578 23.5625 7.69922 23.5625C10.4336 23.5625 12.6992 20.3594 12.6992 16.375H2.69922ZM12.6992 32.625C12.6992 28.6797 10.4336 25.4375 7.69922 25.4375C4.92578 25.4375 2.69922 28.6797 2.69922 32.625H12.6992Z" fill="#FBAD04"/>
</svg>
