<svg width="26" height="48" viewBox="0 0 26 48" fill="none" xmlns="http://www.w3.org/2000/svg">
<rect x="2" width="22.8344" height="48" rx="9.2" fill="#111827"/>
<path d="M13.418 20.125C15.4883 20.125 17.168 22.1172 17.168 24.5C17.168 26.9219 15.4883 28.875 13.418 28.875C11.3086 28.875 9.66797 26.9219 9.66797 24.5C9.66797 22.1172 11.3086 20.125 13.418 20.125ZM14.9805 26.6875V26.0625C14.9805 25.9062 14.8242 25.75 14.668 25.75H14.043V22.3125C14.043 22.1562 13.8867 22 13.7305 22H13.1836C12.9883 22 12.793 22.0781 12.6758 22.1953L12.0508 22.5859C11.9727 22.625 11.9336 22.7422 11.9336 22.8203C11.9336 22.8984 11.9336 22.9766 11.9727 23.0156L12.3242 23.5234C12.3633 23.6016 12.4805 23.6797 12.5977 23.6797C12.6367 23.6797 12.7148 23.6406 12.7539 23.6016H12.793V25.75H12.168C11.9727 25.75 11.8555 25.9062 11.8555 26.0625V26.6875C11.8555 26.8828 11.9727 27 12.168 27H14.668C14.8242 27 14.9805 26.8828 14.9805 26.6875ZM24.668 17C25.332 17 25.918 17.5859 25.918 18.25V30.75C25.918 31.4531 25.332 32 24.668 32H2.16797C1.46484 32 0.917969 31.4531 0.917969 30.75V18.25C0.917969 17.5859 1.46484 17 2.16797 17H24.668ZM24.043 27.625V21.375C22.6367 21.375 21.543 20.2812 21.543 18.875H5.29297C5.29297 20.2812 4.16016 21.375 2.79297 21.375V27.625C4.16016 27.625 5.29297 28.7578 5.29297 30.125H21.543C21.543 28.7578 22.6367 27.625 24.043 27.625Z" fill="#FBAD04"/>
</svg>
