<svg width="22" height="40" viewBox="0 0 22 40" fill="none" xmlns="http://www.w3.org/2000/svg">
<rect x="0.789062" width="20.3188" height="40" rx="9.2" fill="#FBAD04"/>
<path d="M20.4492 18.5C20.6992 18.5 20.9492 18.75 20.9492 19V20C20.9492 20.2812 20.6992 20.5 20.4492 20.5H18.4492V22.5C18.4492 22.7812 18.1992 23 17.9492 23H16.9492C16.668 23 16.4492 22.7812 16.4492 22.5V20.5H14.4492C14.168 20.5 13.9492 20.2812 13.9492 20V19C13.9492 18.75 14.168 18.5 14.4492 18.5H16.4492V16.5C16.4492 16.25 16.668 16 16.9492 16H17.9492C18.1992 16 18.4492 16.25 18.4492 16.5V18.5H20.4492ZM7.94922 20C5.73047 20 3.94922 18.2188 3.94922 16C3.94922 13.8125 5.73047 12 7.94922 12C10.1367 12 11.9492 13.8125 11.9492 16C11.9492 18.2188 10.1367 20 7.94922 20ZM10.7305 21C13.043 21 14.9492 22.9062 14.9492 25.2188V26.5C14.9492 27.3438 14.2617 28 13.4492 28H2.44922C1.60547 28 0.949219 27.3438 0.949219 26.5V25.2188C0.949219 22.9062 2.82422 21 5.13672 21H5.66797C6.35547 21.3438 7.13672 21.5 7.94922 21.5C8.76172 21.5 9.51172 21.3438 10.1992 21H10.7305Z" fill="#111827"/>
</svg>
