<svg width="19" height="48" viewBox="0 0 19 48" fill="none" xmlns="http://www.w3.org/2000/svg">
<rect x="1" width="17.8031" height="48" rx="8.90156" fill="#61B8A8"/>
<path d="M9.65234 24.5C6.87891 24.5 4.65234 22.2734 4.65234 19.5C4.65234 16.7656 6.87891 14.5 9.65234 14.5C12.3867 14.5 14.6523 16.7656 14.6523 19.5C14.6523 22.2734 12.3867 24.5 9.65234 24.5ZM13.3633 25.7891C16.1758 25.9062 18.4023 28.2109 18.4023 31.0234V32.625C18.4023 33.6797 17.543 34.5 16.5273 34.5H2.77734C1.72266 34.5 0.902344 33.6797 0.902344 32.625V31.0234C0.902344 28.2109 3.08984 25.9062 5.90234 25.7891L7.77734 33.25L9.02734 27.9375L7.77734 25.75H11.5273L10.2773 27.9375L11.5273 33.25L13.3633 25.7891Z" fill="#111827"/>
</svg>
