<svg width="21" height="40" viewBox="0 0 21 40" fill="none" xmlns="http://www.w3.org/2000/svg">
<rect width="20.3188" height="40" rx="9.2" fill="#1F2937"/>
<path d="M3.16016 19C2.03516 19 1.16016 18.125 1.16016 17C1.16016 15.9062 2.03516 15 3.16016 15C4.25391 15 5.16016 15.9062 5.16016 17C5.16016 18.125 4.25391 19 3.16016 19ZM17.1602 19C16.0352 19 15.1602 18.125 15.1602 17C15.1602 15.9062 16.0352 15 17.1602 15C18.2539 15 19.1602 15.9062 19.1602 17C19.1602 18.125 18.2539 19 17.1602 19ZM18.1602 20C19.2539 20 20.1602 20.9062 20.1602 22V23C20.1602 23.5625 19.6914 24 19.1602 24H17.0977C16.8789 22.5312 16.0039 21.2812 14.7227 20.5938C15.0977 20.25 15.5977 20 16.1602 20H18.1602ZM10.1602 20C8.22266 20 6.66016 18.4375 6.66016 16.5C6.66016 14.5938 8.22266 13 10.1602 13C12.0664 13 13.6602 14.5938 13.6602 16.5C13.6602 18.4375 12.0664 20 10.1602 20ZM12.5352 21C14.5352 21 16.1602 22.625 16.1602 24.625V25.5C16.1602 26.3438 15.4727 27 14.6602 27H5.66016C4.81641 27 4.16016 26.3438 4.16016 25.5V24.625C4.16016 22.625 5.75391 21 7.75391 21H8.00391C8.66016 21.3125 9.37891 21.5 10.1602 21.5C10.9102 21.5 11.6289 21.3125 12.2852 21H12.5352ZM5.56641 20.5938C4.28516 21.2812 3.41016 22.5312 3.19141 24H1.16016C0.597656 24 0.160156 23.5625 0.160156 23V22C0.160156 20.9062 1.03516 20 2.16016 20H4.16016C4.69141 20 5.19141 20.25 5.56641 20.5938Z" fill="white"/>
</svg>
