<svg width="24" height="40" viewBox="0 0 24 40" fill="none" xmlns="http://www.w3.org/2000/svg">
<rect x="1" width="22.8344" height="40" rx="9.2" fill="#FBAD04"/>
<path d="M17.793 14.285C20.8867 14.3202 23.418 16.8163 23.418 19.9452C23.418 23.0389 20.8867 25.5702 17.793 25.5702C16.2109 25.5702 14.7695 24.9022 13.75 23.8475H10.5508C9.53125 24.9022 8.08984 25.535 6.54297 25.535C3.41406 25.535 0.917969 23.0389 0.917969 19.91C0.917969 16.8163 3.41406 14.285 6.54297 14.285H17.793ZM9.63672 20.3319V19.4882C9.63672 19.2772 9.42578 19.0663 9.21484 19.0663H7.38672V17.2382C7.38672 17.0272 7.17578 16.8163 6.96484 16.8163H6.12109C5.875 16.8163 5.69922 17.0272 5.69922 17.2382V19.0663H3.87109C3.625 19.0663 3.44922 19.2772 3.44922 19.4882V20.3319C3.44922 20.578 3.625 20.7538 3.87109 20.7538H5.69922V22.5819C5.69922 22.828 5.875 23.0038 6.12109 23.0038H6.96484C7.17578 23.0038 7.38672 22.828 7.38672 22.5819V20.7538H9.21484C9.42578 20.7538 9.63672 20.578 9.63672 20.3319ZM17.2305 23.0038C18.0039 23.0038 18.6367 22.4061 18.6367 21.5975C18.6367 20.8241 18.0039 20.1913 17.2305 20.1913C16.4219 20.1913 15.8242 20.8241 15.8242 21.5975C15.8242 22.4061 16.4219 23.0038 17.2305 23.0038ZM19.4805 19.6288C20.2539 19.6288 20.8867 19.0311 20.8867 18.2225C20.8867 17.4491 20.2539 16.8163 19.4805 16.8163C18.6719 16.8163 18.0742 17.4491 18.0742 18.2225C18.0742 19.0311 18.6719 19.6288 19.4805 19.6288Z" fill="#111827"/>
</svg>
