<svg width="23" height="48" viewBox="0 0 23 48" fill="none" xmlns="http://www.w3.org/2000/svg">
<rect width="22.8344" height="48" rx="9.2" fill="#FBAD04"/>
<path d="M5.97266 33.4062C5.97266 32.7812 6.48047 32.2734 7.10547 32.2734H9.52734V32.0781H4.60547C3.98047 32.0781 3.47266 31.5703 3.47266 30.9453C3.51172 30.3203 3.98047 29.8125 4.60547 29.8125H9.52734V29.6172H3.55078C2.92578 29.6172 2.37891 29.1094 2.41797 28.4844C2.41797 27.8594 2.88672 27.3906 3.51172 27.3906H9.52734V27.1562H4.64453C4.01953 27.1562 3.51172 26.6484 3.51172 26.0234C3.51172 25.3984 4.01953 24.9297 4.64453 24.9297H11.207L9.99609 24.0312C9.48828 23.6797 9.41016 22.9766 9.76172 22.4688C10.1133 22 10.8164 21.8828 11.3242 22.2344L16.1289 25.75C16.4805 25.9844 16.6758 26.375 16.6758 26.8047V32.3516C16.6758 32.9375 16.2461 33.4844 15.6602 33.6406L12.4961 34.3828C12.1055 34.4609 11.7148 34.5391 11.2852 34.5391H7.10547C6.48047 34.5 5.97266 34.0312 5.97266 33.4062ZM8.82422 24.6172L7.41797 22.7812C7.02734 22.3125 7.10547 21.6094 7.57422 21.2188C8.08203 20.8281 8.78516 20.9453 9.17578 21.4141L9.68359 22.0781C9.01953 22.7031 9.09766 23.7578 9.80078 24.3047L10.2695 24.6172H8.82422ZM19.8789 24.5391C19.8789 24.5391 19.918 24.5391 19.918 24.5781C19.918 25.0078 19.6836 25.3984 19.3711 25.6328L16.9883 27.4688V26.8047C16.9883 26.2969 16.7539 25.7891 16.3242 25.4766L11.4805 21.9609C11.0117 21.6094 10.3477 21.6094 9.87891 21.9609L7.84766 19.3438C7.45703 18.8359 7.53516 18.0938 8.04297 17.7422C8.51172 17.3906 9.21484 17.4688 9.56641 17.9375L12.6133 21.8438L12.8086 21.6875L9.09766 16.9609C8.70703 16.4922 8.78516 15.75 9.29297 15.3594C9.80078 15.0078 10.4648 15.0859 10.8555 15.5938L14.5664 20.3203L14.7227 20.2031L11.7148 16.3359C11.3242 15.8281 11.4414 15.125 11.9102 14.7344C12.418 14.3828 13.082 14.4609 13.4727 14.9688L17.5352 20.1641L17.457 18.6406C17.457 18.0156 17.9258 17.5078 18.5508 17.5078C19.1758 17.4688 19.6836 17.9375 19.6836 18.5625L19.8789 24.5391Z" fill="#111827"/>
</svg>
