<svg width="56" height="57" viewBox="0 0 56 57" fill="none" xmlns="http://www.w3.org/2000/svg">
<mask id="path-1-inside-1_425_8504" fill="white">
<path d="M0 9.86992C0 4.7889 4.11898 0.669922 9.2 0.669922H46.8C51.881 0.669922 56 4.7889 56 9.86992V47.4699C56 52.5509 51.881 56.6699 46.8 56.6699H9.2C4.11898 56.6699 0 52.5509 0 47.4699V9.86992Z"/>
</mask>
<path d="M0 9.86992C0 4.7889 4.11898 0.669922 9.2 0.669922H46.8C51.881 0.669922 56 4.7889 56 9.86992V47.4699C56 52.5509 51.881 56.6699 46.8 56.6699H9.2C4.11898 56.6699 0 52.5509 0 47.4699V9.86992Z" fill="#111827"/>
<path d="M9.2 0.669922V2.66992H46.8V0.669922V-1.33008H9.2V0.669922ZM56 9.86992H54V47.4699H56H58V9.86992H56ZM46.8 56.6699V54.6699H9.2V56.6699V58.6699H46.8V56.6699ZM0 47.4699H2V9.86992H0H-2V47.4699H0ZM9.2 56.6699V54.6699C5.22355 54.6699 2 51.4464 2 47.4699H0H-2C-2 53.6555 3.01441 58.6699 9.2 58.6699V56.6699ZM56 47.4699H54C54 51.4464 50.7765 54.6699 46.8 54.6699V56.6699V58.6699C52.9856 58.6699 58 53.6555 58 47.4699H56ZM46.8 0.669922V2.66992C50.7765 2.66992 54 5.89347 54 9.86992H56H58C58 3.68433 52.9856 -1.33008 46.8 -1.33008V0.669922ZM9.2 0.669922V-1.33008C3.01441 -1.33008 -2 3.68433 -2 9.86992H0H2C2 5.89347 5.22355 2.66992 9.2 2.66992V0.669922Z" fill="#FBAD04" mask="url(#path-1-inside-1_425_8504)"/>
<path d="M21.75 27.9199C21.3984 27.9199 21.125 27.6465 21.125 27.2949V23.5449C21.125 23.2324 21.3984 22.9199 21.75 22.9199H22.2578C23.2344 20.7324 25.4219 19.1699 28 19.1699C30.5391 19.1699 32.7266 20.7324 33.7031 22.9199H34.25C34.5625 22.9199 34.875 23.2324 34.875 23.5449V27.2949C34.875 27.6465 34.5625 27.9199 34.25 27.9199H33.7031C32.7266 30.1465 30.5391 31.6699 28 31.6699C25.4219 31.6699 23.2344 30.1465 22.2578 27.9199H21.75ZM23.3125 24.4824V25.4199C23.3125 27.4902 24.9922 29.1699 27.0625 29.1699H28.9375C31.0078 29.1699 32.6875 27.4902 32.6875 25.4199V24.4824C32.6875 23.623 31.8281 22.9199 30.8125 22.9199H25.1875C24.1328 22.9199 23.3125 23.623 23.3125 24.4824ZM26.125 27.2949L25.6562 25.8887L24.25 25.4199L25.6562 24.9512L26.125 23.5449L26.5938 24.9512L28 25.4199L26.5938 25.8887L26.125 27.2949ZM32.0234 31.748C34.6797 32.0215 36.75 34.209 36.75 36.9434V37.2949C36.75 38.3496 35.8906 39.1699 34.875 39.1699H31.75V36.6699C31.75 36.0059 31.1641 35.4199 30.5 35.4199H25.5C24.7969 35.4199 24.25 36.0059 24.25 36.6699V39.1699H21.125C20.0703 39.1699 19.25 38.3496 19.25 37.2949V36.9434C19.25 34.209 21.2812 32.0215 23.9375 31.748C25.1094 32.4902 26.4766 32.9199 28 32.9199C29.4844 32.9199 30.8516 32.4902 32.0234 31.748ZM29.875 36.6699C30.1875 36.6699 30.5 36.9824 30.5 37.2949C30.5 37.6465 30.1875 37.9199 29.875 37.9199C29.5234 37.9199 29.25 37.6465 29.25 37.2949C29.25 36.9824 29.5234 36.6699 29.875 36.6699ZM26.125 36.6699C26.4375 36.6699 26.75 36.9824 26.75 37.2949V39.1699H25.5V37.2949C25.5 36.9824 25.7734 36.6699 26.125 36.6699Z" fill="#FBAD04"/>
</svg>
