<svg width="15" height="33" viewBox="0 0 15 33" fill="none" xmlns="http://www.w3.org/2000/svg">
<rect x="0.667969" y="0.32959" width="13.6335" height="32" rx="6.81675" fill="#FBAD04"/>
<path d="M1.75575 22.3296V17.9136C1.75575 17.4976 1.85708 17.1243 2.05975 16.7936C2.26242 16.4629 2.52908 16.2016 2.85975 16.0096C3.19042 15.8069 3.55842 15.7056 3.96375 15.7056H10.8758C10.9291 15.7056 10.9718 15.6896 11.0038 15.6576C11.0464 15.6149 11.0678 15.5669 11.0678 15.5136V13.0976C11.0678 13.0443 11.0464 13.0016 11.0038 12.9696C10.9718 12.9269 10.9291 12.9056 10.8758 12.9056H4.04375C3.99042 12.9056 3.94242 12.9269 3.89975 12.9696C3.86775 13.0016 3.85175 13.0443 3.85175 13.0976V13.8816H1.75575V13.0176C1.75575 12.6016 1.85708 12.2283 2.05975 11.8976C2.26242 11.5669 2.52908 11.3056 2.85975 11.1136C3.19042 10.9109 3.55842 10.8096 3.96375 10.8096H10.9558C11.3611 10.8096 11.7291 10.9109 12.0598 11.1136C12.4011 11.3056 12.6678 11.5669 12.8598 11.8976C13.0624 12.2283 13.1638 12.6016 13.1638 13.0176V15.6096C13.1638 16.0043 13.0624 16.3723 12.8598 16.7136C12.6678 17.0443 12.4011 17.3109 12.0598 17.5136C11.7291 17.7163 11.3611 17.8176 10.9558 17.8176H4.04375C3.99042 17.8176 3.94242 17.8389 3.89975 17.8816C3.86775 17.9136 3.85175 17.9563 3.85175 18.0096V20.0416C3.85175 20.0949 3.86775 20.1429 3.89975 20.1856C3.94242 20.2176 3.99042 20.2336 4.04375 20.2336H13.1638V22.3296H1.75575Z" fill="#111827"/>
</svg>
