<svg width="15" height="33" viewBox="0 0 15 33" fill="none" xmlns="http://www.w3.org/2000/svg">
<rect x="0.667969" y="0.663086" width="13.5728" height="32" rx="6.78638" fill="#FBAD04"/>
<path d="M3.91575 22.6631C3.49975 22.6631 3.12642 22.5618 2.79575 22.3591C2.46508 22.1564 2.19842 21.8898 1.99575 21.5591C1.79308 21.2284 1.69175 20.8604 1.69175 20.4551V19.7671H3.78775V20.3751C3.78775 20.4284 3.80375 20.4764 3.83575 20.5191C3.87842 20.5511 3.92642 20.5671 3.97975 20.5671H10.8118C10.8651 20.5671 10.9131 20.5511 10.9558 20.5191C10.9984 20.4764 11.0198 20.4284 11.0198 20.3751V18.0711C11.0198 18.0178 10.9984 17.9751 10.9558 17.9431C10.9131 17.9004 10.8651 17.8791 10.8118 17.8791H3.67575V15.7831H10.3638C10.4171 15.7831 10.4598 15.7671 10.4918 15.7351C10.5344 15.6924 10.5558 15.6444 10.5558 15.5911V13.4311C10.5558 13.3778 10.5344 13.3351 10.4918 13.3031C10.4598 13.2604 10.4171 13.2391 10.3638 13.2391H3.97975C3.92642 13.2391 3.87842 13.2604 3.83575 13.3031C3.80375 13.3351 3.78775 13.3778 3.78775 13.4311V14.1831H1.69175V13.3511C1.69175 12.9351 1.79308 12.5618 1.99575 12.2311C2.19842 11.9004 2.46508 11.6391 2.79575 11.4471C3.12642 11.2444 3.49975 11.1431 3.91575 11.1431H10.4438C10.8598 11.1431 11.2331 11.2444 11.5638 11.4471C11.8944 11.6391 12.1558 11.9004 12.3478 12.2311C12.5504 12.5618 12.6518 12.9351 12.6518 13.3511V15.6871C12.6518 15.8151 12.6411 15.9484 12.6198 16.0871C12.5984 16.2151 12.5664 16.3378 12.5238 16.4551C12.7158 16.6578 12.8598 16.8978 12.9558 17.1751C13.0624 17.4418 13.1158 17.7138 13.1158 17.9911V20.4551C13.1158 20.8604 13.0144 21.2284 12.8118 21.5591C12.6091 21.8898 12.3424 22.1564 12.0118 22.3591C11.6811 22.5618 11.3131 22.6631 10.9078 22.6631H3.91575Z" fill="#111827"/>
</svg>
