<svg width="15" height="33" viewBox="0 0 15 33" fill="none" xmlns="http://www.w3.org/2000/svg">
<rect x="0.667969" y="0.32959" width="13.6335" height="32" rx="6.81675" fill="#FBAD04"/>
<path d="M3.96375 22.3296C3.55842 22.3296 3.19042 22.2283 2.85975 22.0256C2.52908 21.8229 2.26242 21.5563 2.05975 21.2256C1.85708 20.8949 1.75575 20.5269 1.75575 20.1216V19.3696H3.85175V20.0416C3.85175 20.0949 3.86775 20.1429 3.89975 20.1856C3.94242 20.2176 3.99042 20.2336 4.04375 20.2336H10.8758C10.9291 20.2336 10.9718 20.2176 11.0038 20.1856C11.0464 20.1429 11.0678 20.0949 11.0678 20.0416V17.7056C11.0678 17.6523 11.0464 17.6096 11.0038 17.5776C10.9718 17.5349 10.9291 17.5136 10.8758 17.5136H1.75575V10.8096H13.1638V12.9056H4.04375C3.99042 12.9056 3.94242 12.9269 3.89975 12.9696C3.86775 13.0016 3.85175 13.0443 3.85175 13.0976V15.2096C3.85175 15.2629 3.86775 15.3109 3.89975 15.3536C3.94242 15.3856 3.99042 15.4016 4.04375 15.4016H10.9558C11.3611 15.4016 11.7291 15.5029 12.0598 15.7056C12.4011 15.8976 12.6678 16.1643 12.8598 16.5056C13.0624 16.8363 13.1638 17.2043 13.1638 17.6096V20.1216C13.1638 20.5269 13.0624 20.8949 12.8598 21.2256C12.6571 21.5563 12.3904 21.8229 12.0598 22.0256C11.7291 22.2283 11.3611 22.3296 10.9558 22.3296H3.96375Z" fill="#111827"/>
</svg>
