<svg width="22" height="40" viewBox="0 0 22 40" fill="none" xmlns="http://www.w3.org/2000/svg">
<rect x="1" width="20.3188" height="40" rx="9.2" fill="#1F2937"/>
<path d="M20.5977 16.8125C21.3164 17.0312 21.3164 18 20.5977 18.2188L11.8789 20.9062C11.2539 21.0938 10.6914 21 10.4102 20.9062L4.31641 19.0312C3.91016 19.2812 3.69141 19.7188 3.66016 20.1875C3.94141 20.3438 4.16016 20.6562 4.16016 21C4.16016 21.3438 3.97266 21.625 3.72266 21.8125L4.50391 25.4062C4.56641 25.7188 4.34766 26 4.03516 26H2.25391C1.94141 26 1.72266 25.7188 1.78516 25.4062L2.56641 21.8125C2.31641 21.625 2.16016 21.3438 2.16016 21C2.16016 20.6562 2.34766 20.3438 2.66016 20.1562C2.69141 19.625 2.87891 19.0938 3.22266 18.6875L1.69141 18.2188C0.972656 18 0.972656 17.0312 1.69141 16.8125L10.4102 14.125C10.8789 13.9688 11.4102 13.9688 11.8789 14.125L20.5977 16.8125ZM12.1602 21.875L16.6914 20.4688L17.1602 24C17.1602 25.125 14.4727 26 11.1602 26C7.81641 26 5.16016 25.125 5.16016 24L5.59766 20.4688L10.1289 21.875C10.5039 22 11.2852 22.125 12.1602 21.875Z" fill="white"/>
</svg>
