<svg width="63" height="79" viewBox="0 0 63 79" fill="none" xmlns="http://www.w3.org/2000/svg">
<rect width="96" height="39.9948" transform="translate(29.1992 -13.4202) rotate(45)" fill="#FBAD04"/>
<path d="M19.8236 1.53622L23.4299 -0.254173L22.7086 -3.91133L25.39 -1.22998L29.2423 -3.16463L27.3246 0.704664L29.989 3.36904L26.3319 2.64779L24.5584 6.27101L23.9051 2.17262L19.8236 1.53622ZM30.2047 11.6288C30.018 11.4421 29.8908 11.2243 29.8229 10.9754C29.7607 10.7322 29.7607 10.4889 29.8229 10.2457C29.8908 9.9968 30.018 9.77901 30.2047 9.59234L34.2777 5.5194C34.4643 5.33272 34.6793 5.20827 34.9225 5.14605C35.1714 5.07817 35.4175 5.07534 35.6608 5.13756C35.9097 5.20544 36.1275 5.33272 36.3141 5.5194L40.3871 9.59234C40.5737 9.77901 40.6982 9.99397 40.7604 10.2372C40.8283 10.4861 40.8283 10.735 40.7604 10.9839C40.6982 11.2272 40.5737 11.4421 40.3871 11.6288L40.141 11.8749L39.4537 11.1876L39.6998 10.9415C39.7903 10.851 39.8327 10.7407 39.827 10.6106C39.8327 10.4805 39.7903 10.3702 39.6998 10.2796L35.6268 6.20671C35.5363 6.1162 35.4232 6.07094 35.2874 6.07094C35.163 6.07094 35.0555 6.1162 34.965 6.20671L30.892 10.2796C30.8015 10.3702 30.7534 10.4805 30.7478 10.6106C30.7534 10.7407 30.8015 10.851 30.892 10.9415L34.965 15.0144C35.0555 15.1049 35.163 15.1502 35.2874 15.1502C35.4232 15.1502 35.5363 15.1049 35.6268 15.0144L37.1372 13.5041L35.6268 11.9937L36.3226 11.2979L38.5203 13.4956L36.3141 15.7017C36.1275 15.8884 35.9097 16.0157 35.6608 16.0836C35.4175 16.1458 35.1714 16.143 34.9225 16.0751C34.6793 16.0129 34.4643 15.8884 34.2777 15.7017L30.2047 11.6288ZM41.389 22.8131L41.7708 18.4432L42.6703 19.3426L42.3054 23.7125L42.2969 23.721L41.389 22.8131ZM36.2299 17.654L42.3309 11.5531L47.422 16.6443C47.6087 16.8309 47.7303 17.0487 47.7869 17.2976C47.8548 17.5465 47.8576 17.7926 47.7954 18.0359C47.7332 18.2791 47.6087 18.4941 47.422 18.6807L45.6316 20.4711C45.445 20.6578 45.23 20.7823 44.9868 20.8445C44.7435 20.9067 44.4946 20.9067 44.24 20.8445C43.9968 20.7823 43.7818 20.6578 43.5952 20.4711L39.1913 16.0673L36.9172 18.3413L36.2299 17.654ZM40.218 15.7024L44.291 19.7753C44.3815 19.8659 44.4889 19.9111 44.6134 19.9111C44.7435 19.9168 44.8538 19.8743 44.9443 19.7838L46.7347 17.9934C46.8252 17.9029 46.8677 17.7926 46.862 17.6625C46.8677 17.5324 46.8252 17.4221 46.7347 17.3316L42.6618 13.2586C42.5713 13.1681 42.4581 13.1229 42.3224 13.1229C42.1979 13.1229 42.0904 13.1681 41.9999 13.2586L40.2095 15.049C40.119 15.1395 40.0738 15.247 40.0738 15.3715C40.0794 15.5016 40.1275 15.6119 40.218 15.7024ZM43.2489 24.673L48.3401 19.5818C48.5268 19.3952 48.7417 19.2707 48.985 19.2085C49.2339 19.1406 49.48 19.1378 49.7232 19.2C49.9721 19.2679 50.1899 19.3952 50.3766 19.5818L54.4495 23.6548C54.6362 23.8415 54.7606 24.0564 54.8229 24.2997C54.8907 24.5486 54.8907 24.7975 54.8229 25.0464C54.7606 25.2896 54.6362 25.5046 54.4495 25.6912L49.3583 30.7824L48.671 30.0951L50.9027 27.8635L46.1679 23.1287L43.9362 25.3603L43.2489 24.673ZM46.8552 22.4414L51.59 27.1762L53.7622 25.0039C53.8527 24.9134 53.8951 24.8031 53.8895 24.673C53.8951 24.5429 53.8527 24.4326 53.7622 24.3421L49.6893 20.2691C49.5987 20.1786 49.4856 20.1334 49.3498 20.1334C49.2254 20.1334 49.1179 20.1786 49.0274 20.2691L46.8552 22.4414ZM50.3421 31.7662L56.4515 25.6568L61.5427 30.7479C61.7293 30.9346 61.8538 31.1496 61.916 31.3928C61.9839 31.6417 61.9839 31.8906 61.916 32.1395C61.8538 32.3828 61.7293 32.5977 61.5427 32.7844L57.4697 36.8573C57.2831 37.044 57.0653 37.1713 56.8164 37.2392C56.5731 37.3014 56.327 37.2986 56.0781 37.2307C55.8349 37.1685 55.6199 37.044 55.4333 36.8573L50.3421 31.7662ZM52.0476 32.0971L56.1206 36.17C56.2111 36.2605 56.3186 36.3058 56.443 36.3058C56.5788 36.3058 56.6919 36.2605 56.7824 36.17L60.8554 32.0971C60.9459 32.0066 60.9883 31.8963 60.9826 31.7662C60.9883 31.6361 60.9459 31.5258 60.8554 31.4353L56.7824 27.3623C56.6919 27.2718 56.5788 27.2265 56.443 27.2265C56.3186 27.2265 56.2111 27.2718 56.1206 27.3623L52.0476 31.4353C51.9571 31.5258 51.909 31.6361 51.9034 31.7662C51.909 31.8963 51.9571 32.0066 52.0476 32.0971ZM58.403 39.8271C58.2163 39.6404 58.089 39.4226 58.0211 39.1737C57.9589 38.9305 57.9589 38.6872 58.0211 38.444C58.089 38.1951 58.2163 37.9773 58.403 37.7906L63.4941 32.6994L64.1815 33.3867L59.0903 38.4779C58.9998 38.5684 58.9517 38.6787 58.946 38.8088C58.9517 38.9389 58.9998 39.0492 59.0903 39.1398L63.1632 43.2127C63.2537 43.3032 63.3612 43.3485 63.4857 43.3485C63.6214 43.3485 63.7346 43.3032 63.8251 43.2127L68.9162 38.1215L69.6036 38.8088L64.5124 43.9C64.3257 44.0867 64.1079 44.214 63.859 44.2818C63.6158 44.3441 63.3697 44.3412 63.1208 44.2734C62.8776 44.2111 62.6626 44.0867 62.4759 43.9L58.403 39.8271ZM64.4456 45.8696L69.5367 40.7785C69.7234 40.5918 69.9384 40.4673 70.1816 40.4051C70.4305 40.3372 70.6766 40.3344 70.9198 40.3966C71.1687 40.4645 71.3865 40.5918 71.5732 40.7785L75.6461 44.8514C75.8328 45.0381 75.9573 45.253 76.0195 45.4963C76.0874 45.7452 76.0874 45.9941 76.0195 46.243C75.9573 46.4862 75.8328 46.7012 75.6461 46.8879L70.555 51.979L69.8677 51.2917L72.0993 49.0601L67.3645 44.3253L65.1329 46.557L64.4456 45.8696ZM68.0518 43.638L72.7866 48.3728L74.9588 46.2006C75.0493 46.1101 75.0918 45.9998 75.0861 45.8696C75.0918 45.7395 75.0493 45.6292 74.9588 45.5387L70.8859 41.4658C70.7954 41.3753 70.6822 41.33 70.5465 41.33C70.422 41.33 70.3145 41.3753 70.224 41.4658L68.0518 43.638ZM73.9316 55.3557L79.3537 49.9336L76.6384 47.2183L77.3257 46.531L83.4351 52.6404L82.7478 53.3277L80.041 50.6209L74.6189 56.043L73.9316 55.3557ZM77.9773 59.4014L84.0867 53.2919L89.6615 58.8668L88.9742 59.5541L84.0867 54.6666L82.0672 56.6861L85.9959 60.6147L85.3001 61.3105L81.3714 57.3819L79.3519 59.4014L84.2394 64.2889L83.5521 64.9762L77.9773 59.4014Z" fill="#111827"/>
<path d="M37.3051 41.6373L40.9113 39.8469L40.1901 36.1897L42.8714 38.8711L46.7237 36.9364L44.8061 40.8057L47.4704 43.4701L43.8133 42.7489L42.0399 46.3721L41.3865 42.2737L37.3051 41.6373Z" fill="#111827"/>
</svg>
