<svg width="17" height="33" viewBox="0 0 17 33" fill="none" xmlns="http://www.w3.org/2000/svg">
<rect y="0.669922" width="16.3875" height="32" rx="8.19375" fill="#1F2937"/>
<path d="M15.6953 20.6699C15.9453 20.6699 16.1953 20.9199 16.1953 21.1699V22.1699C16.1953 22.4512 15.9453 22.6699 15.6953 22.6699H1.19531C0.632812 22.6699 0.195312 22.2324 0.195312 21.6699V11.1699C0.195312 10.9199 0.414062 10.6699 0.695312 10.6699H1.69531C1.94531 10.6699 2.19531 10.9199 2.19531 11.1699V20.6699H15.6953ZM14.6953 11.6699C14.9453 11.6699 15.1953 11.9199 15.1641 12.1699V15.8887C15.1641 16.5449 14.3828 16.8887 13.9141 16.4199L12.8828 15.3887L9.88281 18.3887C9.50781 18.7949 8.85156 18.7949 8.47656 18.3887L6.19531 16.1074L4.72656 17.5449C4.53906 17.7324 4.22656 17.7324 4.03906 17.5449L3.32031 16.8262C3.13281 16.6387 3.13281 16.3262 3.32031 16.1387L5.47656 13.9824C5.85156 13.5762 6.50781 13.5762 6.88281 13.9824L9.19531 16.2637L11.4766 13.9824L10.4453 12.9512C9.97656 12.4824 10.3203 11.6699 10.9766 11.6699H14.6953Z" fill="white"/>
</svg>
