<svg width="30" height="25" viewBox="0 0 30 25" fill="none" xmlns="http://www.w3.org/2000/svg">
<path d="M29.25 10.085C29.625 10.085 30 10.46 30 10.835V12.335C30 12.7568 29.625 13.085 29.25 13.085H26.25V16.085C26.25 16.5068 25.875 16.835 25.5 16.835H24C23.5781 16.835 23.25 16.5068 23.25 16.085V13.085H20.25C19.8281 13.085 19.5 12.7568 19.5 12.335V10.835C19.5 10.46 19.8281 10.085 20.25 10.085H23.25V7.08496C23.25 6.70996 23.5781 6.33496 24 6.33496H25.5C25.875 6.33496 26.25 6.70996 26.25 7.08496V10.085H29.25ZM10.5 12.335C7.17188 12.335 4.5 9.66309 4.5 6.33496C4.5 3.05371 7.17188 0.334961 10.5 0.334961C13.7812 0.334961 16.5 3.05371 16.5 6.33496C16.5 9.66309 13.7812 12.335 10.5 12.335ZM14.6719 13.835C18.1406 13.835 21 16.6943 21 20.1631V22.085C21 23.3506 19.9688 24.335 18.75 24.335H2.25C0.984375 24.335 0 23.3506 0 22.085V20.1631C0 16.6943 2.8125 13.835 6.28125 13.835H7.07812C8.10938 14.3506 9.28125 14.585 10.5 14.585C11.7188 14.585 12.8438 14.3506 13.875 13.835H14.6719Z" fill="#FBAD04"/>
</svg>
