<svg width="19" height="33" viewBox="0 0 19 33" fill="none" xmlns="http://www.w3.org/2000/svg">
<rect y="0.669922" width="18.3063" height="32" rx="9.15313" fill="#1F2937"/>
<path d="M6.37109 18.3574L9.12109 20.6387C9.12109 20.7324 9.15234 20.8262 9.15234 20.9199C9.15234 23.3262 7.49609 24.6699 5.15234 24.6699C2.30859 24.6699 1.15234 22.4199 1.12109 19.8574C1.43359 20.0449 2.52734 20.9199 2.87109 20.9199C3.05859 20.9199 3.24609 20.7949 3.30859 20.6074C3.96484 18.9199 5.08984 18.4199 6.37109 18.3574ZM15.4336 8.66992C16.3398 8.66992 17.1523 9.32617 17.1523 10.2324C17.1523 10.7324 16.9336 11.2324 16.7148 11.6699C13.1836 18.2637 12.0586 19.6699 10.0898 19.6699C9.87109 19.6699 9.62109 19.6387 9.40234 19.5762L7.40234 17.9199C7.24609 17.5449 7.15234 17.1387 7.15234 16.7324C7.15234 15.0449 7.80859 14.9199 14.1836 9.20117C14.5273 8.88867 14.9648 8.66992 15.4336 8.66992Z" fill="white"/>
</svg>
