<svg width="21" height="33" viewBox="0 0 21 33" fill="none" xmlns="http://www.w3.org/2000/svg">
<rect y="0.669922" width="20.3188" height="32" rx="9.2" fill="#1F2937"/>
<path d="M15.1602 11.6699C17.9102 11.7012 20.1602 13.9199 20.1602 16.7012C20.1602 19.4512 17.9102 21.7012 15.1602 21.7012C13.7539 21.7012 12.4727 21.1074 11.5664 20.1699H8.72266C7.81641 21.1074 6.53516 21.6699 5.16016 21.6699C2.37891 21.6699 0.160156 19.4512 0.160156 16.6699C0.160156 13.9199 2.37891 11.6699 5.16016 11.6699H15.1602ZM7.91016 17.0449V16.2949C7.91016 16.1074 7.72266 15.9199 7.53516 15.9199H5.91016V14.2949C5.91016 14.1074 5.72266 13.9199 5.53516 13.9199H4.78516C4.56641 13.9199 4.41016 14.1074 4.41016 14.2949V15.9199H2.78516C2.56641 15.9199 2.41016 16.1074 2.41016 16.2949V17.0449C2.41016 17.2637 2.56641 17.4199 2.78516 17.4199H4.41016V19.0449C4.41016 19.2637 4.56641 19.4199 4.78516 19.4199H5.53516C5.72266 19.4199 5.91016 19.2637 5.91016 19.0449V17.4199H7.53516C7.72266 17.4199 7.91016 17.2637 7.91016 17.0449ZM14.6602 19.4199C15.3477 19.4199 15.9102 18.8887 15.9102 18.1699C15.9102 17.4824 15.3477 16.9199 14.6602 16.9199C13.9414 16.9199 13.4102 17.4824 13.4102 18.1699C13.4102 18.8887 13.9414 19.4199 14.6602 19.4199ZM16.6602 16.4199C17.3477 16.4199 17.9102 15.8887 17.9102 15.1699C17.9102 14.4824 17.3477 13.9199 16.6602 13.9199C15.9414 13.9199 15.4102 14.4824 15.4102 15.1699C15.4102 15.8887 15.9414 16.4199 16.6602 16.4199Z" fill="white"/>
</svg>
