<svg width="15" height="33" viewBox="0 0 15 33" fill="none" xmlns="http://www.w3.org/2000/svg">
<rect y="0.669922" width="14.3625" height="32" rx="7.18125" fill="#1F2937"/>
<path d="M14.1797 19.9199C14.1797 20.1699 14.0547 20.3887 13.8984 20.5137C13.7422 20.9824 13.7422 22.3574 13.8984 22.8574C14.0547 22.9824 14.1797 23.2012 14.1797 23.4199V23.9199C14.1797 24.3574 13.8359 24.6699 13.4297 24.6699H3.17969C1.52344 24.6699 0.179688 23.3262 0.179688 21.6699V11.6699C0.179688 10.0137 1.52344 8.66992 3.17969 8.66992H13.4297C13.8359 8.66992 14.1797 9.01367 14.1797 9.41992V19.9199ZM4.17969 12.8574V13.4824C4.17969 13.6074 4.24219 13.6699 4.36719 13.6699H10.9922C11.0859 13.6699 11.1797 13.6074 11.1797 13.4824V12.8574C11.1797 12.7637 11.0859 12.6699 10.9922 12.6699H4.36719C4.24219 12.6699 4.17969 12.7637 4.17969 12.8574ZM4.17969 14.8574V15.4824C4.17969 15.6074 4.24219 15.6699 4.36719 15.6699H10.9922C11.0859 15.6699 11.1797 15.6074 11.1797 15.4824V14.8574C11.1797 14.7637 11.0859 14.6699 10.9922 14.6699H4.36719C4.24219 14.6699 4.17969 14.7637 4.17969 14.8574ZM12.0859 22.6699C12.0234 22.1387 12.0234 21.2324 12.0859 20.6699H3.17969C2.61719 20.6699 2.17969 21.1387 2.17969 21.6699C2.17969 22.2324 2.61719 22.6699 3.17969 22.6699H12.0859Z" fill="white"/>
</svg>
