<svg width="15" height="33" viewBox="0 0 15 33" fill="none" xmlns="http://www.w3.org/2000/svg">
<rect y="0.669922" width="14.3625" height="32" rx="7.18125" fill="#1F2937"/>
<path d="M7.17969 16.6699C4.96094 16.6699 3.17969 14.8887 3.17969 12.6699C3.17969 10.4824 4.96094 8.66992 7.17969 8.66992C9.36719 8.66992 11.1797 10.4824 11.1797 12.6699C11.1797 14.8887 9.36719 16.6699 7.17969 16.6699ZM9.96094 17.6699C12.2734 17.6699 14.1797 19.5762 14.1797 21.8887V23.1699C14.1797 24.0137 13.4922 24.6699 12.6797 24.6699H1.67969C0.835938 24.6699 0.179688 24.0137 0.179688 23.1699V21.8887C0.179688 19.5762 2.05469 17.6699 4.36719 17.6699H4.89844C5.58594 18.0137 6.36719 18.1699 7.17969 18.1699C7.99219 18.1699 8.74219 18.0137 9.42969 17.6699H9.96094Z" fill="white"/>
</svg>
